<?xml version="1.0" encoding="utf-8"?>
<!-- Generated by IcoMoon.io -->
<!DOCTYPE svg PUBLIC "-//W3C//DTD SVG 1.1//EN" "http://www.w3.org/Graphics/SVG/1.1/DTD/svg11.dtd">
<svg version="1.1" xmlns="http://www.w3.org/2000/svg" xmlns:xlink="http://www.w3.org/1999/xlink" width="496" height="80" viewBox="0 0 496 80">
<g transform="translate(0 0)">
	<path d="M14 2v13h-10.5c-0.828 0-1.5-0.672-1.5-1.5 0-0.828 0.672-1.5 1.5-1.5h9.5v-12h-10c-1.1 0-2 0.9-2 2v12c0 1.1 0.9 2 2 2h12v-14h-1zM4 13h9v1h-9z" fill="#ffffff" />
</g>
<g transform="translate(32 0)">
	<path d="M16 9.5l-3-3v-4.5h-2v2.5l-3-3-8 8v0.5h2v5h5v-3h2v3h5v-5h2z" fill="#ffffff" />
</g>
<g transform="translate(64 0)">
	<path d="M13.5 0c1.381 0 2.5 1.119 2.5 2.5 0 0.563-0.186 1.082-0.5 1.5l-1 1-3.5-3.5 1-1c0.418-0.314 0.937-0.5 1.5-0.5zM1 11.5l-1 4.5 4.5-1 9.25-9.25-3.5-3.5-9.25 9.25zM11.181 5.681l-7 7-0.862-0.862 7-7 0.862 0.862z" fill="#ffffff" />
</g>
<g transform="translate(96 0)">
	<path d="M16 5l-8-4-8 4 8 4 8-4zM8 2.328l5.345 2.672-5.345 2.672-5.345-2.672 5.345-2.672zM14.398 7.199l1.602 0.801-8 4-8-4 1.602-0.801 6.398 3.199zM14.398 10.199l1.602 0.801-8 4-8-4 1.602-0.801 6.398 3.199z" fill="#ffffff" />
</g>
<g transform="translate(128 0)">
	<path d="M16 13v-12h-16v12h7v1h-3v1h8v-1h-3v-1h7zM2 3h12v8h-12v-8z" fill="#ffffff" />
</g>
<g transform="translate(160 0)">
	<path d="M9 1c3.866 0 7 3.134 7 7s-3.134 7-7 7v-1.5c1.469 0 2.85-0.572 3.889-1.611 1.039-1.039 1.611-2.42 1.611-3.889 0-1.469-0.572-2.85-1.611-3.889-1.039-1.039-2.42-1.611-3.889-1.611-1.469 0-2.85 0.572-3.889 1.611-0.799 0.799-1.322 1.801-1.52 2.889h2.909l-3.5 4-3.5-4h2.571c0.485-3.392 3.402-6 6.929-6zM12 7v2h-4v-5h2v3z" fill="#ffffff" />
</g>
<g transform="translate(192 0)">
	<path d="M14.5 2h-13c-0.825 0-1.5 0.675-1.5 1.5v10c0 0.825 0.675 1.5 1.5 1.5h13c0.825 0 1.5-0.675 1.5-1.5v-10c0-0.825-0.675-1.5-1.5-1.5zM6.23 8.6l-4.23 3.295v-7.838l4.23 4.543zM2.756 4h10.488l-5.244 3.938-5.244-3.938zM6.395 8.777l1.605 1.723 1.605-1.723 3.29 4.223h-9.79l3.29-4.223zM9.77 8.6l4.23-4.543v7.838l-4.23-3.295z" fill="#ffffff" />
</g>
<g transform="translate(224 0)">
	<path d="M11 10c-1 1-1 2-2 2s-2-1-3-2-2-2-2-3 1-1 2-2-2-4-3-4-3 3-3 3c0 2 2.055 6.055 4 8s6 4 8 4c0 0 3-2 3-3s-3-4-4-3z" fill="#ffffff" />
</g>
<g transform="translate(256 0)">
	<path d="M11.39 8c2.152-1.365 3.61-3.988 3.61-7 0-0.339-0.019-0.672-0.054-1h-13.891c-0.036 0.328-0.054 0.661-0.054 1 0 3.012 1.457 5.635 3.609 7-2.152 1.365-3.609 3.988-3.609 7 0 0.339 0.019 0.672 0.054 1h13.891c0.036-0.328 0.054-0.661 0.054-1 0-3.012-1.457-5.635-3.609-7zM2.5 15c0-2.921 1.253-5.397 3.5-6.214v-1.572c-2.247-0.817-3.5-3.294-3.5-6.214v0h11c0 2.921-1.253 5.397-3.5 6.214v1.572c2.247 0.817 3.5 3.294 3.5 6.214h-11zM9.682 10.462c-1.12-0.635-1.181-1.459-1.182-1.959v-1.004c0-0.5 0.059-1.327 1.184-1.963 0.602-0.349 1.122-0.88 1.516-1.537h-6.4c0.395 0.657 0.916 1.188 1.518 1.538 1.12 0.635 1.181 1.459 1.182 1.959v1.004c0 0.5-0.059 1.327-1.184 1.963-1.135 0.659-1.98 1.964-2.236 3.537h7.839c-0.256-1.574-1.102-2.879-2.238-3.538z" fill="#ffffff" />
</g>
<g transform="translate(288 0)">
	<path d="M4 5c0-2.209 1.791-4 4-4s4 1.791 4 4c0 2.209-1.791 4-4 4-2.209 0-4-1.791-4-4zM12 10h-8c-2.209 0-4 1.791-4 4v1h16v-1c0-2.209-1.791-4-4-4z" fill="#ffffff" />
</g>
<g transform="translate(320 0)">
	<path d="M15.504 13.616l-3.79-3.223c-0.392-0.353-0.811-0.514-1.149-0.499 0.895-1.048 1.435-2.407 1.435-3.893 0-3.314-2.686-6-6-6-3.314 0-6 2.686-6 6 0 3.314 2.686 6 6 6 1.486 0 2.845-0.54 3.893-1.435-0.016 0.338 0.146 0.757 0.499 1.149l3.223 3.79c0.552 0.613 1.453 0.665 2.003 0.115s0.498-1.452-0.115-2.003zM6 10c-2.209 0-4-1.791-4-4s1.791-4 4-4 4 1.791 4 4-1.791 4-4 4z" fill="#ffffff" />
</g>
<g transform="translate(352 0)">
	<path d="M14.59 9.535c-0.839-1.454-0.335-3.317 1.127-4.164l-1.572-2.723c-0.449 0.263-0.972 0.414-1.529 0.414-1.68 0-3.042-1.371-3.042-3.062h-3.145c0.004 0.522-0.126 1.051-0.406 1.535-0.839 1.454-2.706 1.948-4.17 1.106l-1.572 2.723c0.453 0.257 0.845 0.634 1.123 1.117 0.838 1.452 0.336 3.311-1.12 4.16l1.572 2.723c0.448-0.261 0.967-0.41 1.522-0.41 1.675 0 3.033 1.362 3.042 3.046h3.145c-0.001-0.517 0.129-1.040 0.406-1.519 0.838-1.452 2.7-1.947 4.163-1.11l1.572-2.723c-0.45-0.257-0.839-0.633-1.116-1.113zM8 11.24c-1.789 0-3.24-1.45-3.24-3.24 0-1.789 1.45-3.24 3.24-3.24 1.789 0 3.24 1.45 3.24 3.24-0 1.789-1.45 3.24-3.24 3.24z" fill="#ffffff" />
</g>
<g transform="translate(384 0)">
	<path d="M16 6.204l-5.528-0.803-2.472-5.009-2.472 5.009-5.528 0.803 4 3.899-0.944 5.505 4.944-2.599 4.944 2.599-0.944-5.505 4-3.899z" fill="#ffffff" />
</g>
<g transform="translate(416 0)">
	<path d="M16 6.204l-5.528-0.803-2.472-5.009-2.472 5.009-5.528 0.803 4 3.899-0.944 5.505 4.944-2.599 4.944 2.599-0.944-5.505 4-3.899zM8 11.773l-0.015 0.008 0.015-8.918 1.746 3.537 3.904 0.567-2.825 2.753 0.667 3.888-3.492-1.836z" fill="#ffffff" />
</g>
<g transform="translate(448 0)">
	<path d="M16 6.204l-5.528-0.803-2.472-5.009-2.472 5.009-5.528 0.803 4 3.899-0.944 5.505 4.944-2.599 4.944 2.599-0.944-5.505 4-3.899zM8 11.773l-3.492 1.836 0.667-3.888-2.825-2.753 3.904-0.567 1.746-3.537 1.746 3.537 3.904 0.567-2.825 2.753 0.667 3.888-3.492-1.836z" fill="#ffffff" />
</g>
<g transform="translate(480 0)">
	<path d="M8 2.48l-5.388 11.52h10.776l-5.388-11.52zM8 0v0c0.345 0 0.69 0.233 0.951 0.698l6.829 13.611c0.523 0.93 0.078 1.691-0.989 1.691h-13.583c-1.067 0-1.512-0.761-0.989-1.691l6.829-13.611c0.262-0.465 0.606-0.698 0.951-0.698zM7 12c0-0.552 0.448-1 1-1s1 0.448 1 1c0 0.552-0.448 1-1 1-0.552 0-1-0.448-1-1zM8 6c0.552 0 1 0.448 1 1l-0.313 3h-1.375l-0.313-3c0-0.552 0.448-1 1-1z" fill="#ffffff" />
</g>
<g transform="translate(0 32)">
	<path d="M5 2v5.434c-1.264-0.351-1.572-0.528-2.906-0.528-1.155 0-2.094 0.939-2.094 2.094 0 1.154 0.939 2.094 2.094 2.094 1.625 0 2.374 0.605 3.214 1.798 0.025 0.035 0.049 0.072 0.074 0.108h-1.382v3h10v-3h-0.891c0.067-0.995 0.347-1.268 0.689-1.601 0.264-0.257 0.592-0.577 0.832-1.157 0.252-0.609 0.369-1.401 0.369-2.493v-1.015c0-0.968-0.801-1.755-1.786-1.755-0.164 0-0.326 0.022-0.483 0.065-0.328-0.308-0.766-0.484-1.231-0.484-0.164 0-0.326 0.022-0.483 0.065-0.328-0.308-0.766-0.484-1.232-0.484-0.282 0-0.548 0.065-0.786 0.179v-2.322c0-1.105-0.895-2-2-2-1.105 0-2 0.895-2 2zM13 14.5c0 0.276-0.224 0.5-0.5 0.5s-0.5-0.224-0.5-0.5 0.224-0.5 0.5-0.5 0.5 0.224 0.5 0.5zM8 2.094v4h1v-0.102c0-0.416 0.352-0.755 0.786-0.755 0.271 0 0.52 0.132 0.665 0.354l0.254 0.387 0.406-0.223c0.118-0.065 0.253-0.099 0.389-0.099 0.271 0 0.52 0.132 0.665 0.354l0.254 0.387 0.406-0.223c0.118-0.065 0.253-0.099 0.389-0.099 0.433 0 0.786 0.339 0.786 0.755v1.015c0 1.978-0.597 2.376-1.030 2.799-0.443 0.431-0.937 0.914-1.043 2.358h-5.225c-0.129-0.246-0.27-0.48-0.423-0.698-1.060-1.506-2.18-2.302-4.185-2.302-0.5 0-0.906-0.469-0.906-0.969s0.407-0.938 0.906-0.938c1.338 0 1.647 0.194 2.906 0.578 0.355 0.096 0.707 0.186 0.99 0.248l0.010-6.826c0-0.551 0.449-1 1-1s1 0.449 1 1z" fill="#ffffff" />
</g>
<g transform="translate(32 32)">
	<path d="M8 1.5c-1.736 0-3.369 0.676-4.596 1.904s-1.904 2.86-1.904 4.596c0 1.736 0.676 3.369 1.904 4.596 1.228 1.228 2.86 1.904 4.596 1.904 1.736 0 3.369-0.676 4.596-1.904 1.228-1.228 1.904-2.86 1.904-4.596 0-1.736-0.676-3.369-1.904-4.596-1.228-1.228-2.86-1.904-4.596-1.904zM8 0v0c4.418 0 8 3.582 8 8s-3.582 8-8 8c-4.418 0-8-3.582-8-8 0-4.418 3.582-8 8-8zM7 11h2v2h-2zM7 3h2v6h-2z" fill="#ffffff" />
</g>
<g transform="translate(64 32)">
	<path d="M7 11h2v2h-2zM11 4c0.552 0 1 0.448 1 1v3l-3 2h-2v-1l3-2v-1h-5v-2h6zM8 1.5c-1.736 0-3.369 0.676-4.596 1.904s-1.904 2.86-1.904 4.596c0 1.736 0.676 3.369 1.904 4.596 1.228 1.228 2.86 1.904 4.596 1.904 1.736 0 3.369-0.676 4.596-1.904 1.228-1.228 1.904-2.86 1.904-4.596 0-1.736-0.676-3.369-1.904-4.596-1.228-1.228-2.86-1.904-4.596-1.904zM8 0v0c4.418 0 8 3.582 8 8s-3.582 8-8 8c-4.418 0-8-3.582-8-8 0-4.418 3.582-8 8-8z" fill="#ffffff" />
</g>
<g transform="translate(96 32)">
	<path d="M8 0c-4.418 0-8 3.582-8 8s3.582 8 8 8 8-3.582 8-8-3.582-8-8-8zM8 14.5c-3.59 0-6.5-2.91-6.5-6.5s2.91-6.5 6.5-6.5 6.5 2.91 6.5 6.5-2.91 6.5-6.5 6.5zM7 4h2v2h-2zM10 12h-4v-1h1v-3h-1v-1h3v4h1z" fill="#ffffff" />
</g>
<g transform="translate(128 32)">
	<path d="M12 10v-2h-5v-2h5v-2l3 3zM11 9v4h-5v3l-6-3v-13h11v5h-1v-4h-8l4 2v9h4v-3z" fill="#ffffff" />
</g>
<g transform="translate(160 32)">
	<path d="M8 0c-4.418 0-8 3.582-8 8s3.582 8 8 8 8-3.582 8-8-3.582-8-8-8zM7 3h2v2h-2v-2zM10 13h-4v-1h1v-4h-1v-1h3v5h1v1z" fill="#ffffff" />
</g>
<g transform="translate(192 32)">
	<path d="M8 0c-4.418 0-8 3.582-8 8s3.582 8 8 8 8-3.582 8-8-3.582-8-8-8zM6.5 13l-3.313-4.313 1.469-1.531 1.844 2.344 5.781-4.719 0.719 0.719-6.5 7.5z" fill="#ffffff" />
</g>
<g transform="translate(224 32)">
	<path d="M15.854 12.854c-0-0-0-0-0-0l-4.854-4.854 4.854-4.854c0-0 0-0 0-0 0.052-0.052 0.090-0.113 0.114-0.178 0.066-0.178 0.028-0.386-0.114-0.529l-2.293-2.293c-0.143-0.143-0.351-0.181-0.529-0.114-0.065 0.024-0.126 0.062-0.178 0.114 0 0-0 0-0 0l-4.854 4.854-4.854-4.854c-0-0-0-0-0-0-0.052-0.052-0.113-0.090-0.178-0.114-0.178-0.066-0.386-0.029-0.529 0.114l-2.293 2.293c-0.143 0.143-0.181 0.351-0.114 0.529 0.024 0.065 0.062 0.126 0.114 0.178 0 0 0 0 0 0l4.854 4.854-4.854 4.854c-0 0-0 0-0 0-0.052 0.052-0.090 0.113-0.114 0.178-0.066 0.178-0.029 0.386 0.114 0.529l2.293 2.293c0.143 0.143 0.351 0.181 0.529 0.114 0.065-0.024 0.126-0.062 0.178-0.114 0-0 0-0 0-0l4.854-4.854 4.854 4.854c0 0 0 0 0 0 0.052 0.052 0.113 0.090 0.178 0.114 0.178 0.066 0.386 0.029 0.529-0.114l2.293-2.293c0.143-0.143 0.181-0.351 0.114-0.529-0.024-0.065-0.062-0.126-0.114-0.178z" fill="#ffffff" />
</g>
<g transform="translate(256 32)">
	<path d="M13.5 2l-7.5 7.5-3.5-3.5-2.5 2.5 6 6 10-10z" fill="#ffffff" />
</g>
<g transform="translate(288 32)">
	<path d="M3 2l10 6-10 6z" fill="#ffffff" />
</g>
<g transform="translate(320 32)">
	<path d="M0 2l6 6v6l4-1v-5l6-6z" fill="#ffffff" />
</g>
<g transform="translate(352 32)">
	<path d="M16 8l-8-8v5h-8l-0 6h8v5z" fill="#ffffff" />
</g>
<g transform="translate(384 32)">
	<path d="M6.21 14.339l-6.217-6.119 3.084-3.035 3.133 3.083 6.713-6.607 3.084 3.035-9.797 9.643zM1.686 8.22l4.524 4.453 8.104-7.976-1.391-1.369-6.713 6.607-3.133-3.083-1.391 1.369z" fill="#ffffff" />
</g>
<g transform="translate(416 32)">
	<path d="M4 1h8v2h-8zM15 4h-14c-0.55 0-1 0.45-1 1v5c0 0.55 0.45 1 1 1h3v4h8v-4h3c0.55 0 1-0.45 1-1v-5c0-0.55-0.45-1-1-1zM11 14h-6v-5h6v5zM15.225 5.5c0 0.4-0.325 0.725-0.725 0.725-0.4 0-0.725-0.325-0.725-0.725s0.325-0.725 0.725-0.725c0.4 0 0.725 0.325 0.725 0.725z" fill="#ffffff" />
</g>
<g transform="translate(448 32)">
	<path d="M1 0h6v1h-6zM9 0h6v1h-6zM14.875 5h-0.875v-4h-4v4h-4v-4h-4v4h-0.875c-0.619 0-1.125 0.506-1.125 1.125v8.75c0 0.619 0.506 1.125 1.125 1.125h4.75c0.619 0 1.125-0.506 1.125-1.125v-5.875h2v5.875c0 0.619 0.506 1.125 1.125 1.125h4.75c0.619 0 1.125-0.506 1.125-1.125v-8.75c0-0.619-0.506-1.125-1.125-1.125zM5.438 15h-3.875c-0.309 0-0.563-0.225-0.563-0.5s0.253-0.5 0.563-0.5h3.875c0.309 0 0.563 0.225 0.563 0.5s-0.253 0.5-0.563 0.5zM8.5 8h-1c-0.275 0-0.5-0.225-0.5-0.5s0.225-0.5 0.5-0.5h1c0.275 0 0.5 0.225 0.5 0.5s-0.225 0.5-0.5 0.5zM14.438 15h-3.875c-0.309 0-0.563-0.225-0.563-0.5s0.253-0.5 0.563-0.5h3.875c0.309 0 0.563 0.225 0.563 0.5s-0.253 0.5-0.563 0.5z" fill="#ffffff" />
</g>
<g transform="translate(480 32)">
	<path d="M12.5 2h-9c-0.828 0-1.5 0.672-1.5 1.5v0.5h12v-0.5c0-0.828-0.672-1.5-1.5-1.5zM9.88 1l0.221 1.578h-4.201l0.221-1.578h3.76M10 0h-4c-0.412 0-0.797 0.334-0.854 0.743l-0.292 2.093c-0.057 0.409 0.234 0.743 0.646 0.743h5c0.412 0 0.703-0.334 0.646-0.743l-0.292-2.093c-0.057-0.409-0.441-0.743-0.854-0.743v0zM12.75 5h-9.5c-0.55 0-0.959 0.448-0.909 0.996l0.819 9.008c0.050 0.548 0.541 0.996 1.091 0.996h7.5c0.55 0 1.041-0.448 1.091-0.996l0.819-9.008c0.050-0.548-0.359-0.996-0.909-0.996zM6 14h-1.5l-0.5-7h2v7zM9 14h-2v-7h2v7zM11.5 14h-1.5v-7h2l-0.5 7z" fill="#ffffff" />
</g>
<g transform="translate(0 64)">
	<path d="M13 2.692c1.195 0 2.267-0.65 3-1.142v9.308c-0.733 0.492-1.805 1.142-3 1.142s-2.267-0.354-3-0.846c-0.733-0.492-1.805-0.846-3-0.846-1.195 0-2.267 0.608-3 1.1v-9.308c0.733-0.492 1.805-1.1 3-1.1s2.267 0.354 3 0.846c0.733 0.492 1.805 0.846 3 0.846zM2 0c0.552 0 1 0.448 1 1v15h-2v-15c0-0.552 0.448-1 1-1z" fill="#ffffff" />
</g>
</svg>
