<?xml version="1.0" encoding="utf-8"?>
<!-- Generated by IcoMoon.io -->
<!DOCTYPE svg PUBLIC "-//W3C//DTD SVG 1.1//EN" "http://www.w3.org/Graphics/SVG/1.1/DTD/svg11.dtd">
<svg version="1.1" xmlns="http://www.w3.org/2000/svg" xmlns:xlink="http://www.w3.org/1999/xlink" width="301" height="16" viewBox="0 0 301 16">
<g transform="translate(0 0)">
	<path d="M11.061 7.573c0.586-0.696 0.939-1.594 0.939-2.573 0-2.206-1.794-4-4-4h-5v14h6c2.206 0 4-1.794 4-4 0-1.452-0.778-2.726-1.939-3.427zM6 3h1.586c0.874 0 1.586 0.897 1.586 2s-0.711 2-1.586 2h-1.586v-4zM8.484 13h-2.484v-4h2.484c0.913 0 1.656 0.897 1.656 2s-0.743 2-1.656 2z" fill="#000000" />
</g>
<g transform="translate(24 0)">
	<path d="M11 1h2v6.5c0 2.485-2.239 4.5-5 4.5-2.761 0-5-2.015-5-4.5v-6.5h2v6.5c0 0.628 0.285 1.23 0.802 1.695 0.577 0.519 1.357 0.805 2.198 0.805 0.841 0 1.621-0.286 2.198-0.805 0.517-0.466 0.802-1.068 0.802-1.695v-6.5zM3 13h10v2h-10z" fill="#000000" />
</g>
<g transform="translate(48 0)">
	<path d="M14 1v1h-2l-5 12h2v1h-7v-1h2l5-12h-2v-1z" fill="#000000" />
</g>
<g transform="translate(72 0)">
	<path d="M0 1h16v2h-16zM0 4h10v2h-10zM0 10h10v2h-10zM0 7h16v2h-16zM0 13h16v2h-16z" fill="#000000" />
</g>
<g transform="translate(96 0)">
	<path d="M0 1h16v2h-16zM3 4h10v2h-10zM3 10h10v2h-10zM0 7h16v2h-16zM0 13h16v2h-16z" fill="#000000" />
</g>
<g transform="translate(120 0)">
	<path d="M0 1h16v2h-16zM6 4h10v2h-10zM6 10h10v2h-10zM0 7h16v2h-16zM0 13h16v2h-16z" fill="#000000" />
</g>
<g transform="translate(144 0)">
	<path d="M0 1h16v2h-16zM0 4h16v2h-16zM0 7h16v2h-16zM0 10h16v2h-16zM0 13h16v2h-16z" fill="#000000" />
</g>
<g transform="translate(168 0)">
	<path d="M6 1h10v2h-10v-2zM6 7h10v2h-10v-2zM6 13h10v2h-10v-2zM0 2c0-1.105 0.895-2 2-2s2 0.895 2 2c0 1.105-0.895 2-2 2-1.105 0-2-0.895-2-2zM0 8c0-1.105 0.895-2 2-2s2 0.895 2 2c0 1.105-0.895 2-2 2-1.105 0-2-0.895-2-2zM0 14c0-1.105 0.895-2 2-2s2 0.895 2 2c0 1.105-0.895 2-2 2-1.105 0-2-0.895-2-2z" fill="#000000" />
</g>
<g transform="translate(192 0)">
	<path d="M10.94 11.348l2.286 2.286q0.089 0.080 0.205 0.080 0.107 0 0.205-0.080 0.080-0.089 0.080-0.205t-0.080-0.205l-2.286-2.286q-0.089-0.080-0.205-0.080t-0.205 0.080q-0.080 0.089-0.080 0.205t0.080 0.205zM9.431 11.714v2.857q0 0.125 0.080 0.205t0.205 0.080 0.205-0.080 0.080-0.205v-2.857q0-0.125-0.080-0.205t-0.205-0.080-0.205 0.080-0.080 0.205zM11.431 9.714q0 0.125 0.080 0.205t0.205 0.080h2.857q0.125 0 0.205-0.080t0.080-0.205-0.080-0.205-0.205-0.080h-2.857q-0.125 0-0.205 0.080t-0.080 0.205zM0.145 10.857q0 1.071 0.759 1.813l1.313 1.304q0.741 0.741 1.812 0.741 1.080 0 1.821-0.759l2.982-2.991q0.188-0.188 0.375-0.5l-2.134-0.161-2.438 2.446q-0.241 0.241-0.607 0.246t-0.607-0.237l-1.313-1.304q-0.25-0.25-0.25-0.598 0-0.357 0.25-0.607l2.446-2.455-0.161-2.134q-0.313 0.188-0.5 0.375l-3 3q-0.75 0.768-0.75 1.821zM5.654 4.393l2.134 0.161 2.438-2.446q0.25-0.25 0.607-0.25 0.348 0 0.607 0.241l1.313 1.304q0.25 0.25 0.25 0.598 0 0.357-0.25 0.607l-2.446 2.446 0.161 2.143q0.313-0.188 0.5-0.375l3-3q0.75-0.768 0.75-1.821 0-1.071-0.759-1.813l-1.313-1.304q-0.741-0.741-1.813-0.741-1.080 0-1.821 0.759l-2.982 2.991q-0.188 0.188-0.375 0.5zM0.002 5.143q0 0.125 0.080 0.205t0.205 0.080h2.857q0.125 0 0.205-0.080t0.080-0.205-0.080-0.205-0.205-0.080h-2.857q-0.125 0-0.205 0.080t-0.080 0.205zM4.859 0.286v2.857q0 0.125 0.080 0.205t0.205 0.080 0.205-0.080 0.080-0.205v-2.857q0-0.125-0.080-0.205t-0.205-0.080-0.205 0.080-0.080 0.205zM1.225 1.634l2.286 2.286q0.098 0.080 0.205 0.080t0.205-0.080q0.080-0.089 0.080-0.205t-0.080-0.205l-2.286-2.286q-0.089-0.080-0.205-0.080t-0.205 0.080q-0.080 0.089-0.080 0.205t0.080 0.205z" fill="#000000" />
</g>
<g transform="translate(215 0)">
	<path d="M1.859 10.857q0-0.357 0.25-0.607l1.857-1.857q0.25-0.25 0.607-0.25 0.375 0 0.643 0.286-0.027 0.027-0.17 0.165t-0.192 0.192-0.134 0.17-0.116 0.228-0.031 0.246q0 0.357 0.25 0.607t0.607 0.25q0.134 0 0.246-0.031t0.228-0.116 0.17-0.134 0.192-0.192 0.165-0.17q0.295 0.277 0.295 0.652 0 0.357-0.25 0.607l-1.839 1.848q-0.241 0.241-0.607 0.241-0.357 0-0.607-0.232l-1.313-1.304q-0.25-0.25-0.25-0.598zM8.136 4.563q0-0.357 0.25-0.607l1.839-1.848q0.25-0.25 0.607-0.25 0.348 0 0.607 0.241l1.313 1.304q0.25 0.25 0.25 0.598 0 0.357-0.25 0.607l-1.857 1.857q-0.241 0.241-0.607 0.241-0.375 0-0.643-0.277 0.027-0.027 0.17-0.165t0.192-0.192 0.134-0.17 0.116-0.228 0.031-0.246q0-0.357-0.25-0.607t-0.607-0.25q-0.134 0-0.246 0.031t-0.228 0.116-0.17 0.134-0.192 0.192-0.165 0.17q-0.295-0.277-0.295-0.652zM0.145 10.857q0 1.071 0.759 1.813l1.313 1.304q0.741 0.741 1.812 0.741 1.080 0 1.821-0.759l1.839-1.848q0.741-0.741 0.741-1.813 0-1.098-0.786-1.866l0.786-0.786q0.768 0.786 1.857 0.786 1.071 0 1.821-0.75l1.857-1.857q0.75-0.75 0.75-1.821t-0.759-1.813l-1.313-1.304q-0.741-0.741-1.813-0.741-1.080 0-1.821 0.759l-1.839 1.848q-0.741 0.741-0.741 1.813 0 1.098 0.786 1.866l-0.786 0.786q-0.768-0.786-1.857-0.786-1.071 0-1.821 0.75l-1.857 1.857q-0.75 0.75-0.75 1.821z" fill="#000000" />
</g>
<g transform="translate(238 0)">
	<path d="M0 1v14h16v-14h-16zM15 14h-14v-12h14v12zM14 3h-12v10h12v-10zM7 8h-1v1h-1v1h-1v-1h1v-1h1v-1h-1v-1h-1v-1h1v1h1v1h1v1zM11 10h-3v-1h3v1z" fill="#000000" />
</g>
<g transform="translate(262 0)">
	<path d="M13 5v-2.5c0-0.275-0.225-0.5-0.5-0.5h-3.5v-1c0-0.55-0.45-1-1-1h-2c-0.55 0-1 0.45-1 1v1h-3.5c-0.275 0-0.5 0.225-0.5 0.5v10c0 0.275 0.225 0.5 0.5 0.5h4.5v3h7l3-3v-8h-3zM6 1.002c0.001-0.001 0.001-0.001 0.002-0.002h1.996c0.001 0.001 0.001 0.001 0.002 0.002v0.998h-2v-0.998zM3 4v-1h8v1h-8zM13 14.586v-1.586h1.586l-1.586 1.586zM15 12h-3v3h-5v-9h8v6z" fill="#000000" />
</g>
<g transform="translate(286 0)">
	<path d="M14.384 8.67q0 0.455-0.33 0.804l-0.67 0.67q-0.339 0.339-0.813 0.339-0.482 0-0.804-0.339l-2.625-2.616v6.286q0 0.464-0.335 0.754t-0.808 0.29h-1.143q-0.473 0-0.808-0.29t-0.335-0.754v-6.286l-2.625 2.616q-0.321 0.339-0.804 0.339t-0.804-0.339l-0.67-0.67q-0.339-0.339-0.339-0.804 0-0.473 0.339-0.813l5.813-5.813q0.313-0.33 0.804-0.33 0.482 0 0.813 0.33l5.813 5.813q0.33 0.348 0.33 0.813z" fill="#000000" />
</g>
</svg>
