<?xml version="1.0" standalone="no"?><!DOCTYPE svg PUBLIC "-//W3C//DTD SVG 1.1//EN" "http://www.w3.org/Graphics/SVG/1.1/DTD/svg11.dtd" ><svg version="1.1" xmlns="http://www.w3.org/2000/svg"><defs><font horiz-adv-x="0" id="font"><font-face ascent="800" bbox="-241 -256 1768 1134" cap-height="780" descent="-200" font-family="Chemours Sans Book Italic" font-stretch="normal" font-style="normal" font-weight="600" units-per-em="1000" x-height="530" /><missing-glyph d="M90 780H870V0H90ZM201 66H759L480 345ZM480 435 759 714H201ZM160 665V115L435 390ZM800 115V665L525 390Z" horiz-adv-x="960" /><glyph glyph-name=".null" horiz-adv-x="0" /><glyph d="M378 790H454L659 0H582L520 247H180L58 0H-19ZM312 514 212 313H503L454 514L407 712Z" glyph-name="A" horiz-adv-x="720" unicode="A" /><glyph d="M517 247H211L52 0H-27L486 780H1030L1022 714H555L575 433H948L940 367H580L601 66H963L955 0H534ZM254 313H512L498 530L488 674Z" glyph-name="AE" horiz-adv-x="1060" unicode="&#198;" /><glyph d="M517 247H211L52 0H-27L486 780H1030L1022 714H555L575 433H948L940 367H580L601 66H963L955 0H534ZM254 313H512L498 530L488 674ZM732 1030 595 822H530L650 1030Z" glyph-name="AEacute" horiz-adv-x="1060" unicode="&#508;" /><glyph d="M517 247H211L52 0H-27L486 780H1030L1022 714H555L575 433H948L940 367H580L601 66H963L955 0H534ZM254 313H512L498 530L488 674ZM441 958H713L705 894H433Z" glyph-name="AEmacron" horiz-adv-x="1060" unicode="&#482;" /><glyph d="M378 790H454L659 0H582L520 247H180L58 0H-19ZM312 514 212 313H503L454 514L407 712ZM592 1030 455 822H390L510 1030Z" glyph-name="Aacute" horiz-adv-x="720" unicode="&#193;" /><glyph d="M378 790H454L659 0H582L520 247H180L58 0H-19ZM312 514 212 313H503L454 514L407 712ZM625 1030Q619 983 605.5 946Q592 909 568.5 883.5Q545 858 509 845Q473 832 422 832Q371 832 338.5 845Q306 858 288.5 883.5Q271 909 267 946Q263 983 269 1030H323Q313 951 337.5 919.5Q362 888 427 888Q492 888 524.5 919.5Q557 951 567 1030Z" glyph-name="Abreve" horiz-adv-x="720" unicode="&#258;" /><glyph d="M378 790H454L659 0H582L520 247H180L58 0H-19ZM312 514 212 313H503L454 514L407 712ZM330 1030 428 880 564 1030H633L457 822H389L265 1030Z" glyph-name="Acaron" horiz-adv-x="720" unicode="&#461;" /><glyph d="M378 790H454L659 0H582L520 247H180L58 0H-19ZM312 514 212 313H503L454 514L407 712ZM537 822 439 972 303 822H234L410 1030H478L602 822Z" glyph-name="Acircumflex" horiz-adv-x="720" unicode="&#194;" /><glyph d="M378 790H454L659 0H582L520 247H180L58 0H-19ZM312 514 212 313H503L454 514L407 712ZM378 883H292L302 969H388ZM564 883H478L488 969H574Z" glyph-name="Adieresis" horiz-adv-x="720" unicode="&#196;" /><glyph d="M378 790H454L659 0H582L520 247H180L58 0H-19ZM312 514 212 313H503L454 514L407 712ZM373 843H287L298 929H384ZM559 843H473L484 929H570ZM313 1058H585L578 994H306Z" glyph-name="Adieresismacron" horiz-adv-x="720" unicode="&#478;" /><glyph d="M378 790H454L659 0H582L520 247H180L58 0H-19ZM312 514 212 313H503L454 514L407 712ZM471 883H385L395 969H481Z" glyph-name="Adotabove" horiz-adv-x="720" unicode="&#550;" /><glyph d="M378 790H454L659 0H582L520 247H180L58 0H-19ZM312 514 212 313H503L454 514L407 712ZM457 1030 525 822H460L375 1030ZM317 1030 385 822H320L235 1030Z" glyph-name="Adoublegrave" horiz-adv-x="720" unicode="&#512;" /><glyph d="M378 790H454L659 0H582L520 247H180L58 0H-19ZM312 514 212 313H503L454 514L407 712ZM382 1030 450 822H385L300 1030Z" glyph-name="Agrave" horiz-adv-x="720" unicode="&#192;" /><glyph d="M378 790H454L659 0H582L520 247H180L58 0H-19ZM312 514 212 313H503L454 514L407 712ZM242 822Q248 869 261.5 906Q275 943 298.5 968.5Q322 994 358 1007Q394 1020 445 1020Q496 1020 528.5 1007Q561 994 578.5 968.5Q596 943 600 906Q604 869 598 822H544Q554 901 529.5 932.5Q505 964 440 964Q375 964 342.5 932.5Q310 901 300 822Z" glyph-name="Ainvertedbreve" horiz-adv-x="720" unicode="&#514;" /><glyph d="M378 790H454L659 0H582L520 247H180L58 0H-19ZM312 514 212 313H503L454 514L407 712ZM301 958H573L565 894H293Z" glyph-name="Amacron" horiz-adv-x="720" unicode="&#256;" /><glyph d="M378 790H454L658 0H582L454 514L407 712L312 514L58 0H-18Z" glyph-name="Anocross" horiz-adv-x="720" unicode="&#59185;" /><glyph d="M378 790H454L659 0Q631 -4 604.5 -14.5Q578 -25 557 -40.5Q536 -56 523.5 -75.5Q511 -95 511 -117Q511 -135 522.5 -145Q534 -155 561 -155Q574 -155 587.5 -151.5Q601 -148 612 -145Q624 -140 636 -134L647 -185Q630 -195 604 -202.5Q578 -210 544 -210Q526 -210 508 -205.5Q490 -201 475.5 -191.5Q461 -182 452.5 -167Q444 -152 444 -130Q444 -88 479.5 -48Q515 -8 576 20L520 247H180L58 0H-19ZM312 514 212 313H503L454 514L407 712Z" glyph-name="Aogonek" horiz-adv-x="720" unicode="&#260;" /><glyph d="M378 790H454L659 0H582L520 247H180L58 0H-19ZM312 514 212 313H503L454 514L407 712ZM419 812Q370 812 344 839Q318 866 318 908Q318 965 353 1002.5Q388 1040 447 1040Q496 1040 522 1013Q548 986 548 944Q548 887 513 849.5Q478 812 419 812ZM440 984Q411 984 394 965Q377 946 377 917Q377 895 389.5 881.5Q402 868 426 868Q455 868 472 887Q489 906 489 935Q489 957 476.5 970.5Q464 984 440 984Z" glyph-name="Aring" horiz-adv-x="720" unicode="&#197;" /><glyph d="M378 790H454L659 0H582L520 247H180L58 0H-19ZM312 514 212 313H503L454 514L407 712ZM519 1134 447 1040Q497 1040 522.5 1013.5Q548 987 548 944Q548 887 513 849.5Q478 812 419 812Q370 812 344 839Q318 866 318 908Q318 957 345 992L442 1134ZM440 984Q411 984 394 965Q377 946 377 917Q377 895 389.5 881.5Q402 868 426 868Q455 868 472.5 887Q490 906 490 935Q490 957 477 970.5Q464 984 440 984Z" glyph-name="Aringacute" horiz-adv-x="720" unicode="&#506;" /><glyph d="M378 790H454L659 0H582L520 247H180L58 0H-19ZM312 514 212 313H503L454 514L407 712ZM505 860Q473 860 453.5 871.5Q434 883 419 897.5Q404 912 389.5 923.5Q375 935 353 935Q333 935 319.5 927Q306 919 299 909Q290 898 285 883L231 891Q245 934 275.5 964Q306 994 361 994Q393 994 412.5 982.5Q432 971 447 956.5Q462 942 476.5 930.5Q491 919 513 919Q534 919 547 927Q560 935 568 945Q577 956 581 971L636 963Q621 920 591 890Q561 860 505 860Z" glyph-name="Atilde" horiz-adv-x="720" unicode="&#195;" /><glyph d="M378 790H454L659 0H582L520 247H180L58 0H-19ZM312 514 212 313H503L454 514L407 712ZM255 693H169L179 779H265ZM641 693H555L565 779H651Z" glyph-name="Aumlaut.alt" horiz-adv-x="720" /><glyph d="M50 0 145 780H454Q485 780 518 773Q551 766 578.5 747.5Q606 729 623.5 696.5Q641 664 641 614Q641 563 628 525.5Q615 488 595.5 463Q576 438 554 424Q532 410 514 405Q536 401 555.5 389.5Q575 378 590 359Q605 340 614 313Q623 286 623 250Q623 172 599.5 123Q576 74 539 47Q502 20 456 10Q410 0 365 0ZM364 66Q390 66 421.5 70Q453 74 481.5 92Q510 110 529 146.5Q548 183 548 248Q548 288 535 311.5Q522 335 502 347.5Q482 360 456.5 363.5Q431 367 406 367H165L128 66ZM207 714 173 433H401Q436 433 465.5 440.5Q495 448 517.5 467.5Q540 487 552.5 521.5Q565 556 565 611Q565 643 556 663Q547 683 530.5 694Q514 705 489.5 709.5Q465 714 435 714Z" glyph-name="B" horiz-adv-x="695" unicode="B" /><glyph d="M646 580Q640 655 593 690Q546 725 444 725Q358 725 299.5 689Q241 653 205.5 594Q170 535 155 458.5Q140 382 140 302Q140 250 151 204.5Q162 159 187.5 126Q213 93 255.5 74Q298 55 361 55Q463 55 519 90Q575 125 599 200L664 177Q649 136 624 101.5Q599 67 561 42.5Q523 18 472 4Q421 -10 353 -10Q278 -10 224 11.5Q170 33 135 73Q100 113 83 170Q66 227 66 298Q66 409 91 500Q116 591 164.5 655.5Q213 720 285 755Q357 790 451 790Q518 790 566 776.5Q614 763 645.5 738Q677 713 694 679Q711 645 716 604Z" glyph-name="C" horiz-adv-x="750" unicode="C" /><glyph d="M617 1030 480 822H415L535 1030ZM646 580Q640 655 593 690Q546 725 444 725Q358 725 299.5 689Q241 653 205.5 594Q170 535 155 458.5Q140 382 140 302Q140 250 151 204.5Q162 159 187.5 126Q213 93 255.5 74Q298 55 361 55Q463 55 519 90Q575 125 599 200L664 177Q649 136 624 101.5Q599 67 561 42.5Q523 18 472 4Q421 -10 353 -10Q278 -10 224 11.5Q170 33 135 73Q100 113 83 170Q66 227 66 298Q66 409 91 500Q116 591 164.5 655.5Q213 720 285 755Q357 790 451 790Q518 790 566 776.5Q614 763 645.5 738Q677 713 694 679Q711 645 716 604Z" glyph-name="Cacute" horiz-adv-x="750" unicode="&#262;" /><glyph d="M646 580Q640 655 593 690Q546 725 444 725Q358 725 299.5 689Q241 653 205.5 594Q170 535 155 458.5Q140 382 140 302Q140 250 151 204.5Q162 159 187.5 126Q213 93 255.5 74Q298 55 361 55Q463 55 519 90Q575 125 599 200L664 177Q649 136 624 101.5Q599 67 561 42.5Q523 18 472 4Q421 -10 353 -10Q278 -10 224 11.5Q170 33 135 73Q100 113 83 170Q66 227 66 298Q66 409 91 500Q116 591 164.5 655.5Q213 720 285 755Q357 790 451 790Q518 790 566 776.5Q614 763 645.5 738Q677 713 694 679Q711 645 716 604ZM354 1030 452 880 588 1030H657L481 822H413L289 1030Z" glyph-name="Ccaron" horiz-adv-x="750" unicode="&#268;" /><glyph d="M646 580Q640 655 593 690Q546 725 444 725Q358 725 299.5 689Q241 653 205.5 594Q170 535 155 458.5Q140 382 140 302Q140 250 151 204.5Q162 159 187.5 126Q213 93 255.5 74Q298 55 361 55Q463 55 519 90Q575 125 599 200L664 177Q649 138 625.5 104.5Q602 71 567 46.5Q532 22 485 7.5Q438 -7 376 -9L366 -34Q398 -42 420.5 -60.5Q443 -79 443 -114Q443 -164 408 -187Q373 -210 323 -210Q300 -210 278 -204.5Q256 -199 246 -193L266 -149Q275 -153 284 -156Q293 -158 303.5 -160Q314 -162 325 -162Q355 -162 369.5 -151Q384 -140 384 -123Q384 -100 359.5 -89.5Q335 -79 300 -75L331 -9Q262 -6 212 16.5Q162 39 129.5 79Q97 119 81.5 174Q66 229 66 298Q66 409 91 500Q116 591 164.5 655.5Q213 720 285 755Q357 790 451 790Q518 790 566 776.5Q614 763 645.5 738Q677 713 694 679Q711 645 716 604Z" glyph-name="Ccedilla" horiz-adv-x="751" unicode="&#199;" /><glyph d="M646 580Q640 655 593 690Q546 725 444 725Q358 725 299.5 689Q241 653 205.5 594Q170 535 155 458.5Q140 382 140 302Q140 250 151 204.5Q162 159 187.5 126Q213 93 255.5 74Q298 55 361 55Q463 55 519 90Q575 125 599 200L664 177Q649 136 624 101.5Q599 67 561 42.5Q523 18 472 4Q421 -10 353 -10Q278 -10 224 11.5Q170 33 135 73Q100 113 83 170Q66 227 66 298Q66 409 91 500Q116 591 164.5 655.5Q213 720 285 755Q357 790 451 790Q518 790 566 776.5Q614 763 645.5 738Q677 713 694 679Q711 645 716 604ZM562 822 464 972 328 822H259L435 1030H503L627 822Z" glyph-name="Ccircumflex" horiz-adv-x="750" unicode="&#264;" /><glyph d="M496 883H410L420 969H506ZM646 580Q640 655 593 690Q546 725 444 725Q358 725 299.5 689Q241 653 205.5 594Q170 535 155 458.5Q140 382 140 302Q140 250 151 204.5Q162 159 187.5 126Q213 93 255.5 74Q298 55 361 55Q463 55 519 90Q575 125 599 200L664 177Q649 136 624 101.5Q599 67 561 42.5Q523 18 472 4Q421 -10 353 -10Q278 -10 224 11.5Q170 33 135 73Q100 113 83 170Q66 227 66 298Q66 409 91 500Q116 591 164.5 655.5Q213 720 285 755Q357 790 451 790Q518 790 566 776.5Q614 763 645.5 738Q677 713 694 679Q711 645 716 604Z" glyph-name="Cdotaccent" horiz-adv-x="750" unicode="&#266;" /><glyph d="M50 0 145 780H403Q556 780 634.5 707.5Q713 635 713 480Q713 356 684.5 265Q656 174 603 115.5Q550 57 475 28.5Q400 0 308 0ZM316 66Q400 66 460.5 95Q521 124 560.5 177Q600 230 619 304Q638 378 638 469Q638 526 624.5 571.5Q611 617 582 648.5Q553 680 507 697Q461 714 395 714H207L128 66Z" glyph-name="D" horiz-adv-x="765" unicode="D" /><glyph d="M50 0 145 780H403Q556 780 634.5 707.5Q713 635 713 480Q713 356 684.5 265Q656 174 603 115.5Q550 57 475 28.5Q400 0 308 0ZM316 66Q400 66 460.5 95Q521 124 560.5 177Q600 230 619 304Q638 378 638 469Q638 526 624.5 571.5Q611 617 582 648.5Q553 680 507 697Q461 714 395 714H207L128 66ZM308 1030 406 880 542 1030H611L435 822H367L243 1030Z" glyph-name="Dcaron" horiz-adv-x="765" unicode="&#270;" /><glyph d="M50 0 145 780H403Q556 780 634.5 707.5Q713 635 713 480Q713 356 684.5 265Q656 174 603 115.5Q550 57 475 28.5Q400 0 308 0ZM316 66Q400 66 460.5 95Q521 124 560.5 177Q600 230 619 304Q638 378 638 469Q638 526 624.5 571.5Q611 617 582 648.5Q553 680 507 697Q461 714 395 714H207L128 66ZM274 -26Q337 -34 365.5 -56Q394 -78 394 -114Q394 -164 359 -187Q324 -210 274 -210Q251 -210 229 -204.5Q207 -199 197 -193L217 -149Q226 -153 235 -156Q244 -158 254.5 -160Q265 -162 276 -162Q306 -162 320.5 -151Q335 -140 335 -123Q335 -100 310.5 -89.5Q286 -79 251 -75Z" glyph-name="Dcedilla" horiz-adv-x="765" unicode="&#7696;" /><glyph d="M105 0 150 367H30L38 433H158L200 780H458Q611 780 689.5 707.5Q768 635 768 480Q768 368 741.5 279Q715 190 664 128Q613 66 537.5 33Q462 0 363 0ZM371 66Q458 66 519 98Q580 130 619 184.5Q658 239 675.5 312.5Q693 386 693 469Q693 526 679.5 571.5Q666 617 637 648.5Q608 680 562 697Q516 714 450 714H262L228 433H466L458 367H220L183 66Z" glyph-name="Dcroat" horiz-adv-x="820" unicode="&#272;" /><glyph d="M332 -153H246L256 -67H342ZM50 0 145 780H403Q556 780 634.5 707.5Q713 635 713 480Q713 356 684.5 265Q656 174 603 115.5Q550 57 475 28.5Q400 0 308 0ZM316 66Q400 66 460.5 95Q521 124 560.5 177Q600 230 619 304Q638 378 638 469Q638 526 624.5 571.5Q611 617 582 648.5Q553 680 507 697Q461 714 395 714H207L128 66Z" glyph-name="Ddotbelow" horiz-adv-x="765" unicode="&#7692;" /><glyph d="M15 43 449 774H521L775 43L770 0H10ZM701 59 520 577 477 709 400 577 93 61H227L567 59Z" glyph-name="Delta" horiz-adv-x="860" unicode="&#8710;" /><glyph d="M665 780 657 714H207L173 433H583L575 367H165L128 66H598L590 0H50L145 780Z" glyph-name="E" horiz-adv-x="695" unicode="E" /><glyph d="M665 780 657 714H207L173 433H583L575 367H165L128 66H598L590 0H50L145 780ZM577 1030 440 822H375L495 1030Z" glyph-name="Eacute" horiz-adv-x="695" unicode="&#201;" /><glyph d="M665 780 657 714H207L173 433H583L575 367H165L128 66H598L590 0H50L145 780ZM615 1030Q609 983 595.5 946Q582 909 558.5 883.5Q535 858 499 845Q463 832 412 832Q361 832 328.5 845Q296 858 278.5 883.5Q261 909 257 946Q253 983 259 1030H313Q303 951 327.5 919.5Q352 888 417 888Q482 888 514.5 919.5Q547 951 557 1030Z" glyph-name="Ebreve" horiz-adv-x="695" unicode="&#276;" /><glyph d="M665 780 657 714H207L173 433H583L575 367H165L128 66H598L590 0H50L145 780ZM320 1030 418 880 554 1030H623L447 822H379L255 1030Z" glyph-name="Ecaron" horiz-adv-x="695" unicode="&#282;" /><glyph d="M665 780 657 714H207L173 433H583L575 367H165L128 66H598L590 0H50L145 780ZM527 822 429 972 293 822H224L400 1030H468L592 822Z" glyph-name="Ecircumflex" horiz-adv-x="695" unicode="&#202;" /><glyph d="M665 780 657 714H207L173 433H583L575 367H165L128 66H598L590 0H50L145 780ZM368 883H282L292 969H378ZM554 883H468L478 969H564Z" glyph-name="Edieresis" horiz-adv-x="695" unicode="&#203;" /><glyph d="M665 780 657 714H207L173 433H583L575 367H165L128 66H598L590 0H50L145 780ZM461 883H375L385 969H471Z" glyph-name="Edotaccent" horiz-adv-x="695" unicode="&#278;" /><glyph d="M665 780 657 714H207L173 433H583L575 367H165L128 66H598L590 0H50L145 780ZM447 1030 515 822H450L365 1030ZM307 1030 375 822H310L225 1030Z" glyph-name="Edoublegrave" horiz-adv-x="695" unicode="&#516;" /><glyph d="M665 780 657 714H207L173 433H583L575 367H165L128 66H598L590 0H50L145 780ZM377 1030 445 822H380L295 1030Z" glyph-name="Egrave" horiz-adv-x="695" unicode="&#200;" /><glyph d="M665 780 657 714H207L173 433H583L575 367H165L128 66H598L590 0H50L145 780ZM232 822Q238 869 251.5 906Q265 943 288.5 968.5Q312 994 348 1007Q384 1020 435 1020Q486 1020 518.5 1007Q551 994 568.5 968.5Q586 943 590 906Q594 869 588 822H534Q544 901 519.5 932.5Q495 964 430 964Q365 964 332.5 932.5Q300 901 290 822Z" glyph-name="Einvertedbreve" horiz-adv-x="695" unicode="&#518;" /><glyph d="M665 780 657 714H207L173 433H583L575 367H165L128 66H598L590 0H50L145 780ZM291 958H563L555 894H283Z" glyph-name="Emacron" horiz-adv-x="695" unicode="&#274;" /><glyph d="M421 -147Q451 -147 473.5 -141.5Q496 -136 511.5 -120.5Q527 -105 537 -76.5Q547 -48 553 -2L554 4L272 515L197 657L168 390L121 0H50L145 780H208L493 265L568 123L596 390L644 780H715L619 -2Q614 -43 603.5 -81Q593 -119 570.5 -147.5Q548 -176 510.5 -193Q473 -210 414 -210Q400 -210 384 -208Q368 -206 358 -202L374 -138Q379 -140 391 -143.5Q403 -147 421 -147Z" glyph-name="Eng" horiz-adv-x="750" unicode="&#330;" /><glyph d="M665 780 657 714H207L173 433H583L575 367H165L128 66H598L590 0Q562 -4 535.5 -14.5Q509 -25 488 -40.5Q467 -56 454.5 -75.5Q442 -95 442 -117Q442 -135 453.5 -145Q465 -155 492 -155Q505 -155 518.5 -151.5Q532 -148 543 -145Q555 -140 567 -134L578 -185Q561 -195 535 -202.5Q509 -210 475 -210Q457 -210 439 -205.5Q421 -201 406.5 -191.5Q392 -182 383.5 -167Q375 -152 375 -130Q375 -94 399.5 -60.5Q424 -27 469 0H50L145 780Z" glyph-name="Eogonek" horiz-adv-x="695" unicode="&#280;" /><glyph d="M506 55Q602 55 648.5 97Q695 139 695 213Q695 273 660.5 304.5Q626 336 551 347Q532 350 511 353Q490 356 469.5 360.5Q449 365 432 371Q415 377 403 385L409 433L634 690Q604 707 560.5 716Q517 725 466 725Q387 725 333.5 707.5Q280 690 246 660Q212 630 195.5 589.5Q179 549 173 502L112 0H40L101 500Q109 562 132.5 615Q156 668 200.5 707Q245 746 312 768Q379 790 473 790Q563 790 621 770Q679 750 711 721L705 673L487 424Q502 419 520 416Q538 413 561 410Q603 404 640 392.5Q677 381 704.5 359Q732 337 748 304Q764 271 764 222Q764 163 742.5 119.5Q721 76 686 47Q651 18 605 4Q559 -10 509 -10Q385 -10 326 30Q267 70 259 145L330 169Q331 136 344 114.5Q357 93 380.5 79.5Q404 66 435.5 60.5Q467 55 506 55Z" glyph-name="Eszett" horiz-adv-x="831" unicode="&#7838;" /><glyph d="M105 0 150 367H30L38 433H158L200 780H458Q611 780 689.5 707.5Q768 635 768 480Q768 368 741.5 279Q715 190 664 128Q613 66 537.5 33Q462 0 363 0ZM371 66Q458 66 519 98Q580 130 619 184.5Q658 239 675.5 312.5Q693 386 693 469Q693 526 679.5 571.5Q666 617 637 648.5Q608 680 562 697Q516 714 450 714H262L228 433H466L458 367H220L183 66Z" glyph-name="Eth" horiz-adv-x="820" unicode="&#208;" /><glyph d="M215 430Q211 407 208 382Q205 357 203 334H491L463 270H202Q207 159 255.5 106Q304 53 396 53Q485 53 532.5 89Q580 125 604 200L669 177Q654 136 631 101.5Q608 67 574 42.5Q540 18 494 4Q448 -10 388 -10Q260 -10 196.5 61.5Q133 133 130 270H23L31 334H132Q134 357 137 382Q140 407 144 430H42L50 494H158Q194 631 275.5 702.5Q357 774 485 774Q545 774 587.5 760.5Q630 747 657.5 722Q685 697 699.5 663Q714 629 719 588L649 564Q643 639 604.5 675Q566 711 477 711Q385 711 323 658Q261 605 230 494H560L532 430Z" glyph-name="Euro" horiz-adv-x="755" unicode="&#8364;" /><glyph d="M478 377Q473 425 444.5 452Q416 479 351 479Q224 479 173 357H450L422 293H155Q153 279 151.5 265Q150 251 149 237H399L371 173H151Q161 114 196.5 83Q232 52 292 51Q357 51 395 76.5Q433 102 450 153L515 130Q490 67 436.5 28.5Q383 -10 285 -10Q194 -10 141.5 37.5Q89 85 80 173H1L9 237H79L85 293H15L23 357H102Q134 445 198 492.5Q262 540 353 540Q401 540 436 530Q471 520 494.5 501.5Q518 483 531 457Q544 431 548 400Z" glyph-name="Euro.OP" horiz-adv-x="593" unicode="&#59805;" /><glyph d="M50 -1Q56 -76 113.5 -110.5Q171 -145 273 -145Q336 -145 389.5 -126.5Q443 -108 481 -72Q519 -36 540.5 17Q562 70 562 137Q562 181 547.5 217Q533 253 503.5 278.5Q474 304 428 318.5Q382 333 319 333Q313 333 307 333Q304 332 301 332L258 383L468 610L564 714H115L123 780H670L663 722L359 395Q488 385 561 327.5Q634 270 634 150Q634 65 606 -1.5Q578 -68 528.5 -114.5Q479 -161 411.5 -185.5Q344 -210 265 -210Q198 -210 147 -196.5Q96 -183 61 -158Q26 -133 6 -99Q-14 -65 -20 -24Z" glyph-name="Ezh" horiz-adv-x="700" unicode="&#439;" /><glyph d="M50 -1Q56 -76 113.5 -110.5Q171 -145 273 -145Q336 -145 389.5 -126.5Q443 -108 481 -72Q519 -36 540.5 17Q562 70 562 137Q562 181 547.5 217Q533 253 503.5 278.5Q474 304 428 318.5Q382 333 319 333Q313 333 307 333Q304 332 301 332L258 383L468 610L564 714H115L123 780H670L663 722L359 395Q488 385 561 327.5Q634 270 634 150Q634 65 606 -1.5Q578 -68 528.5 -114.5Q479 -161 411.5 -185.5Q344 -210 265 -210Q198 -210 147 -196.5Q96 -183 61 -158Q26 -133 6 -99Q-14 -65 -20 -24ZM300 1030 398 880 534 1030H603L427 822H359L235 1030Z" glyph-name="Ezhcaron" horiz-adv-x="700" unicode="&#494;" /><glyph d="M120 0H50L145 780H645L637 714H207L173 433H563L555 367H165Z" glyph-name="F" horiz-adv-x="630" unicode="F" /><glyph d="M361 55Q428 55 489.5 71.5Q551 88 592 114L620 337H450L458 403H698L657 70Q617 46 580 30.5Q543 15 507 6Q471 -3 433 -6.5Q395 -10 353 -10Q278 -10 224 11.5Q170 33 135 73Q100 113 83 170Q66 227 66 298Q66 409 91 500Q116 591 164.5 655.5Q213 720 285 755Q357 790 451 790Q518 790 566 776.5Q614 763 645.5 738Q677 713 694 679Q711 645 716 604L646 580Q640 655 593 690Q546 725 444 725Q358 725 299.5 689Q241 653 205.5 594Q170 535 155 458.5Q140 382 140 302Q140 250 151 204.5Q162 159 187.5 126Q213 93 255.5 74Q298 55 361 55Z" glyph-name="G" horiz-adv-x="774" unicode="G" /><glyph d="M617 1030 480 822H415L535 1030ZM361 55Q428 55 489.5 71.5Q551 88 592 114L620 337H450L458 403H698L657 70Q617 46 580 30.5Q543 15 507 6Q471 -3 433 -6.5Q395 -10 353 -10Q278 -10 224 11.5Q170 33 135 73Q100 113 83 170Q66 227 66 298Q66 409 91 500Q116 591 164.5 655.5Q213 720 285 755Q357 790 451 790Q518 790 566 776.5Q614 763 645.5 738Q677 713 694 679Q711 645 716 604L646 580Q640 655 593 690Q546 725 444 725Q358 725 299.5 689Q241 653 205.5 594Q170 535 155 458.5Q140 382 140 302Q140 250 151 204.5Q162 159 187.5 126Q213 93 255.5 74Q298 55 361 55Z" glyph-name="Gacute" horiz-adv-x="774" unicode="&#500;" /><glyph d="M361 55Q428 55 489.5 71.5Q551 88 592 114L620 337H450L458 403H698L657 70Q617 46 580 30.5Q543 15 507 6Q471 -3 433 -6.5Q395 -10 353 -10Q278 -10 224 11.5Q170 33 135 73Q100 113 83 170Q66 227 66 298Q66 409 91 500Q116 591 164.5 655.5Q213 720 285 755Q357 790 451 790Q518 790 566 776.5Q614 763 645.5 738Q677 713 694 679Q711 645 716 604L646 580Q640 655 593 690Q546 725 444 725Q358 725 299.5 689Q241 653 205.5 594Q170 535 155 458.5Q140 382 140 302Q140 250 151 204.5Q162 159 187.5 126Q213 93 255.5 74Q298 55 361 55ZM650 1030Q644 983 630.5 946Q617 909 593.5 883.5Q570 858 534 845Q498 832 447 832Q396 832 363.5 845Q331 858 313.5 883.5Q296 909 292 946Q288 983 294 1030H348Q338 951 362.5 919.5Q387 888 452 888Q517 888 549.5 919.5Q582 951 592 1030Z" glyph-name="Gbreve" horiz-adv-x="774" unicode="&#286;" /><glyph d="M361 55Q428 55 489.5 71.5Q551 88 592 114L620 337H450L458 403H698L657 70Q617 46 580 30.5Q543 15 507 6Q471 -3 433 -6.5Q395 -10 353 -10Q278 -10 224 11.5Q170 33 135 73Q100 113 83 170Q66 227 66 298Q66 409 91 500Q116 591 164.5 655.5Q213 720 285 755Q357 790 451 790Q518 790 566 776.5Q614 763 645.5 738Q677 713 694 679Q711 645 716 604L646 580Q640 655 593 690Q546 725 444 725Q358 725 299.5 689Q241 653 205.5 594Q170 535 155 458.5Q140 382 140 302Q140 250 151 204.5Q162 159 187.5 126Q213 93 255.5 74Q298 55 361 55ZM355 1030 453 880 589 1030H658L482 822H414L290 1030Z" glyph-name="Gcaron" horiz-adv-x="774" unicode="&#486;" /><glyph d="M361 55Q428 55 489.5 71.5Q551 88 592 114L620 337H450L458 403H698L657 70Q617 46 580 30.5Q543 15 507 6Q471 -3 433 -6.5Q395 -10 353 -10Q278 -10 224 11.5Q170 33 135 73Q100 113 83 170Q66 227 66 298Q66 409 91 500Q116 591 164.5 655.5Q213 720 285 755Q357 790 451 790Q518 790 566 776.5Q614 763 645.5 738Q677 713 694 679Q711 645 716 604L646 580Q640 655 593 690Q546 725 444 725Q358 725 299.5 689Q241 653 205.5 594Q170 535 155 458.5Q140 382 140 302Q140 250 151 204.5Q162 159 187.5 126Q213 93 255.5 74Q298 55 361 55ZM562 822 464 972 328 822H259L435 1030H503L627 822Z" glyph-name="Gcircumflex" horiz-adv-x="774" unicode="&#284;" /><glyph d="M386 -62 319 -200H252L307 -62ZM361 55Q428 55 489.5 71.5Q551 88 592 114L620 337H450L458 403H698L657 70Q617 46 580 30.5Q543 15 507 6Q471 -3 433 -6.5Q395 -10 353 -10Q278 -10 224 11.5Q170 33 135 73Q100 113 83 170Q66 227 66 298Q66 409 91 500Q116 591 164.5 655.5Q213 720 285 755Q357 790 451 790Q518 790 566 776.5Q614 763 645.5 738Q677 713 694 679Q711 645 716 604L646 580Q640 655 593 690Q546 725 444 725Q358 725 299.5 689Q241 653 205.5 594Q170 535 155 458.5Q140 382 140 302Q140 250 151 204.5Q162 159 187.5 126Q213 93 255.5 74Q298 55 361 55Z" glyph-name="Gcommaaccent" horiz-adv-x="774" unicode="&#290;" /><glyph d="M408 822 509 1030H570L487 822ZM361 55Q428 55 489.5 71.5Q551 88 592 114L620 337H450L458 403H698L657 70Q617 46 580 30.5Q543 15 507 6Q471 -3 433 -6.5Q395 -10 353 -10Q278 -10 224 11.5Q170 33 135 73Q100 113 83 170Q66 227 66 298Q66 409 91 500Q116 591 164.5 655.5Q213 720 285 755Q357 790 451 790Q518 790 566 776.5Q614 763 645.5 738Q677 713 694 679Q711 645 716 604L646 580Q640 655 593 690Q546 725 444 725Q358 725 299.5 689Q241 653 205.5 594Q170 535 155 458.5Q140 382 140 302Q140 250 151 204.5Q162 159 187.5 126Q213 93 255.5 74Q298 55 361 55Z" glyph-name="Gcommaturnedabove" horiz-adv-x="774" unicode="&#57607;" /><glyph d="M496 883H410L420 969H506ZM361 55Q428 55 489.5 71.5Q551 88 592 114L620 337H450L458 403H698L657 70Q617 46 580 30.5Q543 15 507 6Q471 -3 433 -6.5Q395 -10 353 -10Q278 -10 224 11.5Q170 33 135 73Q100 113 83 170Q66 227 66 298Q66 409 91 500Q116 591 164.5 655.5Q213 720 285 755Q357 790 451 790Q518 790 566 776.5Q614 763 645.5 738Q677 713 694 679Q711 645 716 604L646 580Q640 655 593 690Q546 725 444 725Q358 725 299.5 689Q241 653 205.5 594Q170 535 155 458.5Q140 382 140 302Q140 250 151 204.5Q162 159 187.5 126Q213 93 255.5 74Q298 55 361 55Z" glyph-name="Gdotaccent" horiz-adv-x="774" unicode="&#288;" /><glyph d="M361 55Q428 55 489.5 71.5Q551 88 592 114L600 182H377L385 248H609L620 337H450L458 403H698L679 248H799L791 182H671L657 70Q617 46 580 30.5Q543 15 507 6Q471 -3 433 -6.5Q395 -10 353 -10Q278 -10 224 11.5Q170 33 135 73Q100 113 83 170Q66 227 66 298Q66 409 91 500Q116 591 164.5 655.5Q213 720 285 755Q357 790 451 790Q518 790 566 776.5Q614 763 645.5 738Q677 713 694 679Q711 645 716 604L646 580Q640 655 593 690Q546 725 444 725Q358 725 299.5 689Q241 653 205.5 594Q170 535 155 458.5Q140 382 140 302Q140 250 151 204.5Q162 159 187.5 126Q213 93 255.5 74Q298 55 361 55Z" glyph-name="Gstroke" horiz-adv-x="814" unicode="&#484;" /><glyph d="M361 55Q428 55 489.5 71.5Q551 88 592 114L620 337H450L458 403H698L657 70Q617 46 580 30.5Q543 15 507 6Q471 -3 433 -6.5Q395 -10 353 -10Q278 -10 224 11.5Q170 33 135 73Q100 113 83 170Q66 227 66 298Q66 409 91 500Q116 591 164.5 655.5Q213 720 285 755Q357 790 451 790Q518 790 566 776.5Q614 763 645.5 738Q677 713 694 679Q711 645 716 604L646 580Q640 655 593 690Q546 725 444 725Q358 725 299.5 689Q241 653 205.5 594Q170 535 155 458.5Q140 382 140 302Q140 250 151 204.5Q162 159 187.5 126Q213 93 255.5 74Q298 55 361 55ZM530 860Q498 860 478.5 871.5Q459 883 444 897.5Q429 912 414.5 923.5Q400 935 378 935Q358 935 344.5 927Q331 919 324 909Q315 898 310 883L256 891Q270 934 300.5 964Q331 994 386 994Q418 994 437.5 982.5Q457 971 472 956.5Q487 942 501.5 930.5Q516 919 538 919Q559 919 572 927Q585 935 593 945Q602 956 606 971L661 963Q646 920 616 890Q586 860 530 860Z" glyph-name="Gtilde" horiz-adv-x="774" unicode="&#57605;" /><glyph d="M715 780 620 0H550L595 367H165L120 0H50L145 780H215L173 433H603L645 780Z" glyph-name="H" horiz-adv-x="750" unicode="H" /><glyph d="M715 780 620 0H550L595 367H165L120 0H50L145 780H215L196 627H626L645 780ZM603 433 619 563H189L173 433Z" glyph-name="Hbar" horiz-adv-x="750" unicode="&#294;" /><glyph d="M715 780 620 0H550L595 367H165L120 0H50L145 780H215L173 433H603L645 780ZM345 1030 443 880 579 1030H648L472 822H404L280 1030Z" glyph-name="Hcaron" horiz-adv-x="750" unicode="&#542;" /><glyph d="M715 780 620 0H550L595 367H165L120 0H50L145 780H215L173 433H603L645 780ZM552 822 454 972 318 822H249L425 1030H493L617 822Z" glyph-name="Hcircumflex" horiz-adv-x="750" unicode="&#292;" /><glyph d="M715 780 620 0H550L595 367H165L120 0H50L145 780H215L173 433H603L645 780ZM359 -153H273L283 -67H369Z" glyph-name="Hdotbelow" horiz-adv-x="750" unicode="&#7716;" /><glyph d="M715 780 620 0H550L595 367H165L120 0H50L145 780H215L173 433H603L645 780ZM189 -78H461L453 -142H181Z" glyph-name="Hmacronbelow" horiz-adv-x="750" unicode="&#57609;" /><glyph d="M140 0H70L165 780H235Z" glyph-name="I" horiz-adv-x="290" unicode="I" /><glyph d="M232 714H102L110 780H440L432 714H302L223 66H353L345 0H15L23 66H153Z" glyph-name="I.alt" horiz-adv-x="500" unicode="&#57649;" /><glyph d="M140 0H70L165 780H235ZM315 56Q344 56 367.5 62Q391 68 409.5 84Q428 100 440.5 127.5Q453 155 458 198L529 780H599L528 198Q523 157 510 119Q497 81 471.5 52.5Q446 24 406 7Q366 -10 307 -10Q293 -10 277.5 -8Q262 -6 251 -2L268 65Q273 63 285 59.5Q297 56 315 56Z" glyph-name="IJ" horiz-adv-x="627" unicode="&#306;" /><glyph d="M232 714H102L110 780H440L432 714H302L223 66H353L345 0H15L23 66H153ZM455 56Q484 56 507.5 62Q531 68 549.5 84Q568 100 580.5 127.5Q593 155 598 198L669 780H739L668 198Q663 157 649.5 119Q636 81 610.5 52.5Q585 24 545.5 7Q506 -10 447 -10Q433 -10 417.5 -8Q402 -6 391 -2L408 65Q413 63 425 59.5Q437 56 455 56Z" glyph-name="IJ.alt" horiz-adv-x="500" unicode="&#59530;" /><glyph d="M140 0H70L165 780H235ZM376 1030 239 822H174L294 1030Z" glyph-name="Iacute" horiz-adv-x="290" unicode="&#205;" /><glyph d="M451 1030 314 822H249L369 1030ZM232 714H102L110 780H440L432 714H302L223 66H353L345 0H15L23 66H153Z" glyph-name="Iacute.alt" horiz-adv-x="500" unicode="&#57651;" /><glyph d="M140 0H70L165 780H235ZM410 1030Q404 983 390.5 946Q377 909 353.5 883.5Q330 858 294 845Q258 832 207 832Q156 832 123.5 845Q91 858 73.5 883.5Q56 909 52 946Q48 983 54 1030H108Q98 951 122.5 919.5Q147 888 212 888Q277 888 309.5 919.5Q342 951 352 1030Z" glyph-name="Ibreve" horiz-adv-x="290" unicode="&#300;" /><glyph d="M484 1030Q478 983 465 946Q452 909 428 883.5Q404 858 368.5 845Q333 832 282 832Q231 832 198.5 845Q166 858 148 883.5Q130 909 126 946Q122 983 128 1030H184Q174 951 199 919.5Q224 888 289 888Q354 888 386 919.5Q418 951 428 1030ZM232 714H102L110 780H440L432 714H302L223 66H353L345 0H15L23 66H153Z" glyph-name="Ibreve.alt" horiz-adv-x="500" unicode="&#57657;" /><glyph d="M140 0H70L165 780H235ZM115 1030 213 880 349 1030H418L242 822H174L50 1030Z" glyph-name="Icaron" horiz-adv-x="290" unicode="&#463;" /><glyph d="M189 1030 288 880 423 1030H490L314 822H246L122 1030ZM232 714H102L110 780H440L432 714H302L223 66H353L345 0H15L23 66H153Z" glyph-name="Icaron.alt" horiz-adv-x="500" unicode="&#57655;" /><glyph d="M140 0H70L165 780H235ZM322 822 224 972 88 822H19L195 1030H263L387 822Z" glyph-name="Icircumflex" horiz-adv-x="290" unicode="&#206;" /><glyph d="M397 822 299 972 163 822H96L272 1030H340L464 822ZM232 714H102L110 780H440L432 714H302L223 66H353L345 0H15L23 66H153Z" glyph-name="Icircumflex.alt" horiz-adv-x="500" unicode="&#57652;" /><glyph d="M140 0H70L165 780H235ZM163 883H77L87 969H173ZM349 883H263L273 969H359Z" glyph-name="Idieresis" horiz-adv-x="290" unicode="&#207;" /><glyph d="M238 883H152L162 969H248ZM424 883H338L348 969H434ZM232 714H102L110 780H440L432 714H302L223 66H353L345 0H15L23 66H153Z" glyph-name="Idieresis.alt" horiz-adv-x="500" unicode="&#57653;" /><glyph d="M140 0H70L165 780H235ZM256 883H170L180 969H266Z" glyph-name="Idotaccent" horiz-adv-x="290" unicode="&#304;" /><glyph d="M331 883H245L255 969H341ZM232 714H102L110 780H440L432 714H302L223 66H353L345 0H15L23 66H153Z" glyph-name="Idotaccent.alt" horiz-adv-x="500" unicode="&#57660;" /><glyph d="M140 0H70L165 780H235ZM129 -153H43L53 -67H139Z" glyph-name="Idotbelow" horiz-adv-x="290" unicode="&#7882;" /><glyph d="M204 -153H118L128 -67H214ZM232 714H102L110 780H440L432 714H302L223 66H353L345 0H15L23 66H153Z" glyph-name="Idotbelow.alt" horiz-adv-x="500" unicode="&#57661;" /><glyph d="M140 0H70L165 780H235ZM242 1030 310 822H245L160 1030ZM102 1030 170 822H105L20 1030Z" glyph-name="Idoublegrave" horiz-adv-x="290" unicode="&#520;" /><glyph d="M317 1030 385 822H320L235 1030ZM177 1030 245 822H180L95 1030ZM232 714H102L110 780H440L432 714H302L223 66H353L345 0H15L23 66H153Z" glyph-name="Idoublegrave.alt" horiz-adv-x="500" unicode="&#57659;" /><glyph d="M140 0H70L165 780H235ZM168 1030 236 822H171L86 1030Z" glyph-name="Igrave" horiz-adv-x="290" unicode="&#204;" /><glyph d="M243 1030 311 822H246L161 1030ZM232 714H102L110 780H440L432 714H302L223 66H353L345 0H15L23 66H153Z" glyph-name="Igrave.alt" horiz-adv-x="500" unicode="&#57650;" /><glyph d="M140 0H70L165 780H235ZM27 822Q33 869 46.5 906Q60 943 83.5 968.5Q107 994 143 1007Q179 1020 230 1020Q281 1020 313.5 1007Q346 994 363.5 968.5Q381 943 385 906Q389 869 383 822H329Q339 901 314.5 932.5Q290 964 225 964Q160 964 127.5 932.5Q95 901 85 822Z" glyph-name="Iinvertedbreve" horiz-adv-x="290" unicode="&#522;" /><glyph d="M402 822Q412 901 387.5 932.5Q363 964 298 964Q233 964 200.5 932.5Q168 901 158 822H102Q108 869 121.5 906Q135 943 158.5 968.5Q182 994 218 1007Q254 1020 305 1020Q356 1020 388.5 1007Q421 994 438.5 968.5Q456 943 460 906Q464 869 458 822ZM232 714H102L110 780H440L432 714H302L223 66H353L345 0H15L23 66H153Z" glyph-name="Iinvertedbreve.alt" horiz-adv-x="500" unicode="&#57658;" /><glyph d="M140 0H70L165 780H235ZM86 958H358L350 894H78Z" glyph-name="Imacron" horiz-adv-x="290" unicode="&#298;" /><glyph d="M161 958H433L425 894H153ZM232 714H102L110 780H440L432 714H302L223 66H353L345 0H15L23 66H153Z" glyph-name="Imacron.alt" horiz-adv-x="500" unicode="&#57656;" /><glyph d="M140 0Q122 -12 104.5 -25Q87 -38 73.5 -52.5Q60 -67 51.5 -83Q43 -99 43 -117Q43 -135 54.5 -145Q66 -155 93 -155Q106 -155 119.5 -151.5Q133 -148 144 -145Q156 -140 168 -134L179 -185Q162 -195 136 -202.5Q110 -210 76 -210Q58 -210 40 -205.5Q22 -201 7.5 -191.5Q-7 -182 -15.5 -167Q-24 -152 -24 -130Q-24 -85 4.5 -55.5Q33 -26 70 0L165 780H235Z" glyph-name="Iogonek" horiz-adv-x="290" unicode="&#302;" /><glyph d="M23 66H153L232 714H102L110 780H440L432 714H302L223 66H353L345 0Q318 -4 292.5 -14Q267 -24 246.5 -38.5Q226 -53 213 -71.5Q200 -90 197 -109Q195 -131 206 -143Q217 -155 247 -155Q260 -155 273.5 -151.5Q287 -148 298 -145Q310 -140 322 -134L333 -185Q316 -195 290 -202.5Q264 -210 230 -210Q210 -210 191 -205Q172 -200 157.5 -189Q143 -178 135.5 -160.5Q128 -143 131 -117Q135 -85 159.5 -54.5Q184 -24 224 0H15Z" glyph-name="Iogonek.alt" horiz-adv-x="500" unicode="&#57662;" /><glyph d="M140 0H70L165 780H235ZM288 860Q256 860 236.5 871.5Q217 883 202 897.5Q187 912 172.5 923.5Q158 935 136 935Q116 935 102.5 927Q89 919 82 909Q73 898 68 883L14 891Q28 934 58.5 964Q89 994 144 994Q176 994 195.5 982.5Q215 971 230 956.5Q245 942 259.5 930.5Q274 919 296 919Q317 919 330 927Q343 935 351 945Q360 956 364 971L419 963Q404 920 374 890Q344 860 288 860Z" glyph-name="Itilde" horiz-adv-x="290" unicode="&#296;" /><glyph d="M359 880Q329 882 311.5 893Q294 904 280.5 917.5Q267 931 254 942.5Q241 954 222 955Q199 957 184.5 949Q170 941 162 931Q152 919 147 903L93 911Q101 933 112.5 952.5Q124 972 140.5 986Q157 1000 180 1008Q203 1016 233 1014Q263 1013 280.5 1001.5Q298 990 311.5 976.5Q325 963 338 951.5Q351 940 370 939Q392 937 406.5 945Q421 953 429 964Q439 975 444 991L498 983Q491 961 479.5 941.5Q468 922 451 908Q434 894 411.5 886.5Q389 879 359 880ZM232 714H102L110 780H440L432 714H302L223 66H353L345 0H15L23 66H153Z" glyph-name="Itilde.alt" horiz-adv-x="500" unicode="&#57654;" /><glyph d="M477 780 407 210Q401 162 383 121.5Q365 81 335.5 51.5Q306 22 266 6Q226 -10 176 -10Q125 -10 91 2Q57 14 36.5 34Q16 54 7 81Q-2 108 -3 139L69 164Q66 112 92.5 82.5Q119 53 184 55Q317 59 335 199L406 780Z" glyph-name="J" horiz-adv-x="507" unicode="J" /><glyph d="M354 1030 453 880 588 1030H655L479 822H411L287 1030ZM477 780 407 210Q401 162 383 121.5Q365 81 335.5 51.5Q306 22 266 6Q226 -10 176 -10Q125 -10 91 2Q57 14 36.5 34Q16 54 7 81Q-2 108 -3 139L69 164Q66 112 92.5 82.5Q119 53 184 55Q317 59 335 199L406 780Z" glyph-name="Jcaron" horiz-adv-x="507" unicode="&#57611;" /><glyph d="M562 822 464 972 328 822H261L437 1030H505L629 822ZM477 780 407 210Q401 162 383 121.5Q365 81 335.5 51.5Q306 22 266 6Q226 -10 176 -10Q125 -10 91 2Q57 14 36.5 34Q16 54 7 81Q-2 108 -3 139L69 164Q66 112 92.5 82.5Q119 53 184 55Q317 59 335 199L406 780Z" glyph-name="Jcircumflex" horiz-adv-x="507" unicode="&#308;" /><glyph d="M164 361 260 455 601 780H703L332 430L633 0H543L278 379L152 260L120 0H50L145 780H215Z" glyph-name="K" horiz-adv-x="695" unicode="K" /><glyph d="M315 1030 413 880 549 1030H618L442 822H374L250 1030ZM164 361 260 455 601 780H703L332 430L633 0H543L278 379L152 260L120 0H50L145 780H215Z" glyph-name="Kcaron" horiz-adv-x="695" unicode="&#488;" /><glyph d="M296 -26Q359 -34 387.5 -56Q416 -78 416 -114Q416 -164 381 -187Q346 -210 296 -210Q273 -210 251 -204.5Q229 -199 219 -193L239 -149Q248 -153 257 -156Q266 -158 276.5 -160Q287 -162 298 -162Q328 -162 342.5 -151Q357 -140 357 -123Q357 -100 332.5 -89.5Q308 -79 273 -75ZM164 361 260 455 601 780H703L332 430L633 0H543L278 379L152 260L120 0H50L145 780H215Z" glyph-name="Kcedilla" horiz-adv-x="695" unicode="&#57613;" /><glyph d="M361 -62 294 -200H227L282 -62ZM164 361 260 455 601 780H703L332 430L633 0H543L278 379L152 260L120 0H50L145 780H215Z" glyph-name="Kcommaaccent" horiz-adv-x="695" unicode="&#310;" /><glyph d="M658 723Q612 723 582 693.5Q552 664 522 617.5Q492 571 453.5 513.5Q415 456 352 401L633 0H543L294 356Q262 335 228 316.5Q194 298 154 282L120 0H50L145 780H215L163 358Q243 392 295.5 437.5Q348 483 385 531Q422 579 449.5 625.5Q477 672 506 708.5Q535 745 572 767.5Q609 790 666 790Q680 790 696 788Q712 786 723 782L706 714Q701 716 688.5 719.5Q676 723 658 723Z" glyph-name="Khook" horiz-adv-x="695" unicode="&#408;" /><glyph d="M128 66H538L530 0H50L145 780H215Z" glyph-name="L" horiz-adv-x="585" unicode="L" /><glyph d="M128 66H538L530 0H50L145 780H215ZM357 1030 220 822H155L275 1030Z" glyph-name="Lacute" horiz-adv-x="585" unicode="&#313;" /><glyph d="M128 66H538L530 0H50L145 780H215ZM530 800 429 592H368L451 800Z" glyph-name="Lcaron" horiz-adv-x="585" unicode="&#317;" /><glyph d="M274 -26Q337 -34 365.5 -56Q394 -78 394 -114Q394 -164 359 -187Q324 -210 274 -210Q251 -210 229 -204.5Q207 -199 197 -193L217 -149Q226 -153 235 -156Q244 -158 254.5 -160Q265 -162 276 -162Q306 -162 320.5 -151Q335 -140 335 -123Q335 -100 310.5 -89.5Q286 -79 251 -75ZM128 66H538L530 0H50L145 780H215Z" glyph-name="Lcedilla" horiz-adv-x="585" unicode="&#57615;" /><glyph d="M128 66H538L530 0H50L145 780H215ZM328 -62 261 -200H194L249 -62Z" glyph-name="Lcommaaccent" horiz-adv-x="585" unicode="&#315;" /><glyph d="M128 66H538L530 0H50L145 780H215ZM503 357H417L428 443H514Z" glyph-name="Ldot" horiz-adv-x="585" unicode="&#319;" /><glyph d="M128 66H538L530 0H50L145 780H215ZM317 -153H231L241 -67H327Z" glyph-name="Ldotbelow" horiz-adv-x="585" unicode="&#7734;" /><glyph d="M158 311 128 66H538L530 0H50L83 276L-2 236L6 301L91 341L145 780H215L166 377L468 520L460 455Z" glyph-name="Lslash" horiz-adv-x="585" unicode="&#321;" /><glyph d="M230 483 190 624 153 290 118 0H50L145 780H206L373 265L425 76L523 265L816 780H877L782 0H714L749 290L795 630L720 483L449 0H383Z" glyph-name="M" horiz-adv-x="912" unicode="M" /><glyph d="M230 483 190 624 153 290 118 0H50L145 780H206L373 265L425 76L523 265L816 780H877L782 0H714L749 290L795 630L720 483L449 0H383ZM383 -26Q446 -34 474.5 -56Q503 -78 503 -114Q503 -164 468 -187Q433 -210 383 -210Q360 -210 338 -204.5Q316 -199 306 -193L326 -149Q335 -153 344 -156Q353 -158 363.5 -160Q374 -162 385 -162Q415 -162 429.5 -151Q444 -140 444 -123Q444 -100 419.5 -89.5Q395 -79 360 -75Z" glyph-name="Mcedilla" horiz-adv-x="912" unicode="&#57619;" /><glyph d="M230 483 190 624 153 290 118 0H50L145 780H206L373 265L425 76L523 265L816 780H877L782 0H714L749 290L795 630L720 483L449 0H383ZM440 -153H354L364 -67H450Z" glyph-name="Mdotbelow" horiz-adv-x="912" unicode="&#7746;" /><glyph d="M397 958H669L661 894H389ZM230 483 190 624 153 290 118 0H50L145 780H206L373 265L425 76L523 265L816 780H877L782 0H714L749 290L795 630L720 483L449 0H383Z" glyph-name="Mmacron" horiz-adv-x="912" unicode="&#57617;" /><glyph d="M272 515 197 657 168 390 121 0H50L145 780H208L493 265L568 123L596 390L644 780H715L620 0H557Z" glyph-name="N" horiz-adv-x="750" unicode="N" /><glyph d="M272 515 197 657 168 390 121 0H50L145 780H208L493 265L568 123L596 390L644 780H715L620 0H557ZM607 1030 470 822H405L525 1030Z" glyph-name="Nacute" horiz-adv-x="750" unicode="&#323;" /><glyph d="M272 515 197 657 168 390 121 0H50L145 780H208L493 265L568 123L596 390L644 780H715L620 0H557ZM345 1030 443 880 579 1030H648L472 822H404L280 1030Z" glyph-name="Ncaron" horiz-adv-x="750" unicode="&#327;" /><glyph d="M314 -26Q377 -34 405.5 -56Q434 -78 434 -114Q434 -164 399 -187Q364 -210 314 -210Q291 -210 269 -204.5Q247 -199 237 -193L257 -149Q266 -153 275 -156Q284 -158 294.5 -160Q305 -162 316 -162Q346 -162 360.5 -151Q375 -140 375 -123Q375 -100 350.5 -89.5Q326 -79 291 -75ZM272 515 197 657 168 390 121 0H50L145 780H208L493 265L568 123L596 390L644 780H715L620 0H557Z" glyph-name="Ncedilla" horiz-adv-x="750" unicode="&#57625;" /><glyph d="M272 515 197 657 168 390 121 0H50L145 780H208L493 265L568 123L596 390L644 780H715L620 0H557ZM376 -62 309 -200H242L297 -62Z" glyph-name="Ncommaaccent" horiz-adv-x="750" unicode="&#325;" /><glyph d="M595 -200H525L551 10L272 515L197 657L168 390L121 0H50L145 780H208L493 265L568 123L596 390L644 780H715Z" glyph-name="Ndescender" horiz-adv-x="750" unicode="&#59398;" /><glyph d="M272 515 197 657 168 390 121 0H50L145 780H208L493 265L568 123L596 390L644 780H715L620 0H557ZM393 883H307L317 969H403ZM579 883H493L503 969H589Z" glyph-name="Ndieresis" horiz-adv-x="750" unicode="&#57621;" /><glyph d="M272 515 197 657 168 390 121 0H50L145 780H208L493 265L568 123L596 390L644 780H715L620 0H557ZM486 883H400L410 969H496Z" glyph-name="Ndotaccent" horiz-adv-x="750" unicode="&#7748;" /><glyph d="M272 515 197 657 168 390 121 0H50L145 780H208L493 265L568 123L596 390L644 780H715L620 0H557ZM359 -153H273L283 -67H369Z" glyph-name="Ndotbelow" horiz-adv-x="750" unicode="&#7750;" /><glyph d="M272 515 197 657 168 390 121 0H50L145 780H208L493 265L568 123L596 390L644 780H715L620 0H557ZM397 1030 465 822H400L315 1030Z" glyph-name="Ngrave" horiz-adv-x="750" unicode="&#504;" /><glyph d="M272 515 197 657 168 390 121 0H50L145 780H208L493 265L568 123L596 390L644 780H715L620 0H557ZM316 958H588L580 894H308Z" glyph-name="Nmacron" horiz-adv-x="750" unicode="&#57623;" /><glyph d="M272 515 197 657 168 390 121 0H50L145 780H208L493 265L568 123L596 390L644 780H715L620 0H557ZM520 860Q488 860 468.5 871.5Q449 883 434 897.5Q419 912 404.5 923.5Q390 935 368 935Q348 935 334.5 927Q321 919 314 909Q305 898 300 883L246 891Q260 934 290.5 964Q321 994 376 994Q408 994 427.5 982.5Q447 971 462 956.5Q477 942 491.5 930.5Q506 919 528 919Q549 919 562 927Q575 935 583 945Q592 956 596 971L651 963Q636 920 606 890Q576 860 520 860Z" glyph-name="Ntilde" horiz-adv-x="750" unicode="&#209;" /><glyph d="M353 -10Q278 -10 224 11.5Q170 33 135 73Q100 113 83 170Q66 227 66 298Q66 399 89 488.5Q112 578 159.5 645Q207 712 279.5 751Q352 790 451 790Q526 790 580 768.5Q634 747 669.5 707.5Q705 668 721.5 611Q738 554 738 482Q738 381 715 291.5Q692 202 644.5 135Q597 68 524.5 29Q452 -10 353 -10ZM444 725Q356 725 297.5 687.5Q239 650 204 589.5Q169 529 154.5 453.5Q140 378 140 302Q140 250 151 204.5Q162 159 187.5 126Q213 93 255.5 74Q298 55 361 55Q449 55 507.5 92.5Q566 130 600.5 190.5Q635 251 649.5 327Q664 403 664 479Q664 531 653.5 576Q643 621 617.5 654Q592 687 549.5 706Q507 725 444 725Z" glyph-name="O" horiz-adv-x="790" unicode="O" /><glyph d="M464 714Q378 714 316.5 682.5Q255 651 216 596.5Q177 542 159 469Q141 396 141 313Q141 256 154.5 210Q168 164 197.5 132Q227 100 273 83Q319 66 385 66H483L562 714ZM1040 780 1032 714H632L598 433H958L950 367H590L553 66H973L965 0H377Q225 0 145.5 73Q66 146 66 301Q66 413 92.5 501.5Q119 590 170.5 652Q222 714 298 747Q374 780 472 780Z" glyph-name="OE" horiz-adv-x="1070" unicode="&#338;" /><glyph d="M627 1030 490 822H425L545 1030ZM353 -10Q278 -10 224 11.5Q170 33 135 73Q100 113 83 170Q66 227 66 298Q66 399 89 488.5Q112 578 159.5 645Q207 712 279.5 751Q352 790 451 790Q526 790 580 768.5Q634 747 669.5 707.5Q705 668 721.5 611Q738 554 738 482Q738 381 715 291.5Q692 202 644.5 135Q597 68 524.5 29Q452 -10 353 -10ZM444 725Q356 725 297.5 687.5Q239 650 204 589.5Q169 529 154.5 453.5Q140 378 140 302Q140 250 151 204.5Q162 159 187.5 126Q213 93 255.5 74Q298 55 361 55Q449 55 507.5 92.5Q566 130 600.5 190.5Q635 251 649.5 327Q664 403 664 479Q664 531 653.5 576Q643 621 617.5 654Q592 687 549.5 706Q507 725 444 725Z" glyph-name="Oacute" horiz-adv-x="790" unicode="&#211;" /><glyph d="M353 -10Q278 -10 224 11.5Q170 33 135 73Q100 113 83 170Q66 227 66 298Q66 399 89 488.5Q112 578 159.5 645Q207 712 279.5 751Q352 790 451 790Q526 790 580 768.5Q634 747 669.5 707.5Q705 668 721.5 611Q738 554 738 482Q738 381 715 291.5Q692 202 644.5 135Q597 68 524.5 29Q452 -10 353 -10ZM444 725Q356 725 297.5 687.5Q239 650 204 589.5Q169 529 154.5 453.5Q140 378 140 302Q140 250 151 204.5Q162 159 187.5 126Q213 93 255.5 74Q298 55 361 55Q449 55 507.5 92.5Q566 130 600.5 190.5Q635 251 649.5 327Q664 403 664 479Q664 531 653.5 576Q643 621 617.5 654Q592 687 549.5 706Q507 725 444 725ZM660 1030Q654 983 640.5 946Q627 909 603.5 883.5Q580 858 544 845Q508 832 457 832Q406 832 373.5 845Q341 858 323.5 883.5Q306 909 302 946Q298 983 304 1030H358Q348 951 372.5 919.5Q397 888 462 888Q527 888 559.5 919.5Q592 951 602 1030Z" glyph-name="Obreve" horiz-adv-x="790" unicode="&#334;" /><glyph d="M353 -10Q278 -10 224 11.5Q170 33 135 73Q100 113 83 170Q66 227 66 298Q66 399 89 488.5Q112 578 159.5 645Q207 712 279.5 751Q352 790 451 790Q526 790 580 768.5Q634 747 669.5 707.5Q705 668 721.5 611Q738 554 738 482Q738 381 715 291.5Q692 202 644.5 135Q597 68 524.5 29Q452 -10 353 -10ZM444 725Q356 725 297.5 687.5Q239 650 204 589.5Q169 529 154.5 453.5Q140 378 140 302Q140 250 151 204.5Q162 159 187.5 126Q213 93 255.5 74Q298 55 361 55Q449 55 507.5 92.5Q566 130 600.5 190.5Q635 251 649.5 327Q664 403 664 479Q664 531 653.5 576Q643 621 617.5 654Q592 687 549.5 706Q507 725 444 725ZM365 1030 463 880 599 1030H668L492 822H424L300 1030Z" glyph-name="Ocaron" horiz-adv-x="790" unicode="&#465;" /><glyph d="M353 -10Q278 -10 224 11.5Q170 33 135 73Q100 113 83 170Q66 227 66 298Q66 399 89 488.5Q112 578 159.5 645Q207 712 279.5 751Q352 790 451 790Q526 790 580 768.5Q634 747 669.5 707.5Q705 668 721.5 611Q738 554 738 482Q738 381 715 291.5Q692 202 644.5 135Q597 68 524.5 29Q452 -10 353 -10ZM444 725Q356 725 297.5 687.5Q239 650 204 589.5Q169 529 154.5 453.5Q140 378 140 302Q140 250 151 204.5Q162 159 187.5 126Q213 93 255.5 74Q298 55 361 55Q449 55 507.5 92.5Q566 130 600.5 190.5Q635 251 649.5 327Q664 403 664 479Q664 531 653.5 576Q643 621 617.5 654Q592 687 549.5 706Q507 725 444 725ZM324 -26Q387 -34 415.5 -56Q444 -78 444 -114Q444 -164 409 -187Q374 -210 324 -210Q301 -210 279 -204.5Q257 -199 247 -193L267 -149Q276 -153 285 -156Q294 -158 304.5 -160Q315 -162 326 -162Q356 -162 370.5 -151Q385 -140 385 -123Q385 -100 360.5 -89.5Q336 -79 301 -75Z" glyph-name="Ocedilla" horiz-adv-x="790" unicode="&#57631;" /><glyph d="M353 -10Q278 -10 224 11.5Q170 33 135 73Q100 113 83 170Q66 227 66 298Q66 399 89 488.5Q112 578 159.5 645Q207 712 279.5 751Q352 790 451 790Q526 790 580 768.5Q634 747 669.5 707.5Q705 668 721.5 611Q738 554 738 482Q738 381 715 291.5Q692 202 644.5 135Q597 68 524.5 29Q452 -10 353 -10ZM444 725Q356 725 297.5 687.5Q239 650 204 589.5Q169 529 154.5 453.5Q140 378 140 302Q140 250 151 204.5Q162 159 187.5 126Q213 93 255.5 74Q298 55 361 55Q449 55 507.5 92.5Q566 130 600.5 190.5Q635 251 649.5 327Q664 403 664 479Q664 531 653.5 576Q643 621 617.5 654Q592 687 549.5 706Q507 725 444 725ZM572 822 474 972 338 822H269L445 1030H513L637 822Z" glyph-name="Ocircumflex" horiz-adv-x="790" unicode="&#212;" /><glyph d="M418 822 519 1030H580L497 822ZM353 -10Q278 -10 224 11.5Q170 33 135 73Q100 113 83 170Q66 227 66 298Q66 399 89 488.5Q112 578 159.5 645Q207 712 279.5 751Q352 790 451 790Q526 790 580 768.5Q634 747 669.5 707.5Q705 668 721.5 611Q738 554 738 482Q738 381 715 291.5Q692 202 644.5 135Q597 68 524.5 29Q452 -10 353 -10ZM444 725Q356 725 297.5 687.5Q239 650 204 589.5Q169 529 154.5 453.5Q140 378 140 302Q140 250 151 204.5Q162 159 187.5 126Q213 93 255.5 74Q298 55 361 55Q449 55 507.5 92.5Q566 130 600.5 190.5Q635 251 649.5 327Q664 403 664 479Q664 531 653.5 576Q643 621 617.5 654Q592 687 549.5 706Q507 725 444 725Z" glyph-name="Ocommaturnedabove" horiz-adv-x="790" unicode="&#57627;" /><glyph d="M413 883H327L337 969H423ZM599 883H513L523 969H609ZM353 -10Q278 -10 224 11.5Q170 33 135 73Q100 113 83 170Q66 227 66 298Q66 399 89 488.5Q112 578 159.5 645Q207 712 279.5 751Q352 790 451 790Q526 790 580 768.5Q634 747 669.5 707.5Q705 668 721.5 611Q738 554 738 482Q738 381 715 291.5Q692 202 644.5 135Q597 68 524.5 29Q452 -10 353 -10ZM444 725Q356 725 297.5 687.5Q239 650 204 589.5Q169 529 154.5 453.5Q140 378 140 302Q140 250 151 204.5Q162 159 187.5 126Q213 93 255.5 74Q298 55 361 55Q449 55 507.5 92.5Q566 130 600.5 190.5Q635 251 649.5 327Q664 403 664 479Q664 531 653.5 576Q643 621 617.5 654Q592 687 549.5 706Q507 725 444 725Z" glyph-name="Odieresis" horiz-adv-x="790" unicode="&#214;" /><glyph d="M506 883H420L430 969H516ZM353 -10Q278 -10 224 11.5Q170 33 135 73Q100 113 83 170Q66 227 66 298Q66 399 89 488.5Q112 578 159.5 645Q207 712 279.5 751Q352 790 451 790Q526 790 580 768.5Q634 747 669.5 707.5Q705 668 721.5 611Q738 554 738 482Q738 381 715 291.5Q692 202 644.5 135Q597 68 524.5 29Q452 -10 353 -10ZM444 725Q356 725 297.5 687.5Q239 650 204 589.5Q169 529 154.5 453.5Q140 378 140 302Q140 250 151 204.5Q162 159 187.5 126Q213 93 255.5 74Q298 55 361 55Q449 55 507.5 92.5Q566 130 600.5 190.5Q635 251 649.5 327Q664 403 664 479Q664 531 653.5 576Q643 621 617.5 654Q592 687 549.5 706Q507 725 444 725Z" glyph-name="Odotabove" horiz-adv-x="790" unicode="&#558;" /><glyph d="M379 -153H293L303 -67H389ZM353 -10Q278 -10 224 11.5Q170 33 135 73Q100 113 83 170Q66 227 66 298Q66 399 89 488.5Q112 578 159.5 645Q207 712 279.5 751Q352 790 451 790Q526 790 580 768.5Q634 747 669.5 707.5Q705 668 721.5 611Q738 554 738 482Q738 381 715 291.5Q692 202 644.5 135Q597 68 524.5 29Q452 -10 353 -10ZM444 725Q356 725 297.5 687.5Q239 650 204 589.5Q169 529 154.5 453.5Q140 378 140 302Q140 250 151 204.5Q162 159 187.5 126Q213 93 255.5 74Q298 55 361 55Q449 55 507.5 92.5Q566 130 600.5 190.5Q635 251 649.5 327Q664 403 664 479Q664 531 653.5 576Q643 621 617.5 654Q592 687 549.5 706Q507 725 444 725Z" glyph-name="Odotbelow" horiz-adv-x="790" unicode="&#7884;" /><glyph d="M497 1030 565 822H500L415 1030ZM357 1030 425 822H360L275 1030ZM353 -10Q278 -10 224 11.5Q170 33 135 73Q100 113 83 170Q66 227 66 298Q66 399 89 488.5Q112 578 159.5 645Q207 712 279.5 751Q352 790 451 790Q526 790 580 768.5Q634 747 669.5 707.5Q705 668 721.5 611Q738 554 738 482Q738 381 715 291.5Q692 202 644.5 135Q597 68 524.5 29Q452 -10 353 -10ZM444 725Q356 725 297.5 687.5Q239 650 204 589.5Q169 529 154.5 453.5Q140 378 140 302Q140 250 151 204.5Q162 159 187.5 126Q213 93 255.5 74Q298 55 361 55Q449 55 507.5 92.5Q566 130 600.5 190.5Q635 251 649.5 327Q664 403 664 479Q664 531 653.5 576Q643 621 617.5 654Q592 687 549.5 706Q507 725 444 725Z" glyph-name="Odoublegrave" horiz-adv-x="790" unicode="&#524;" /><glyph d="M427 1030 495 822H430L345 1030ZM353 -10Q278 -10 224 11.5Q170 33 135 73Q100 113 83 170Q66 227 66 298Q66 399 89 488.5Q112 578 159.5 645Q207 712 279.5 751Q352 790 451 790Q526 790 580 768.5Q634 747 669.5 707.5Q705 668 721.5 611Q738 554 738 482Q738 381 715 291.5Q692 202 644.5 135Q597 68 524.5 29Q452 -10 353 -10ZM444 725Q356 725 297.5 687.5Q239 650 204 589.5Q169 529 154.5 453.5Q140 378 140 302Q140 250 151 204.5Q162 159 187.5 126Q213 93 255.5 74Q298 55 361 55Q449 55 507.5 92.5Q566 130 600.5 190.5Q635 251 649.5 327Q664 403 664 479Q664 531 653.5 576Q643 621 617.5 654Q592 687 549.5 706Q507 725 444 725Z" glyph-name="Ograve" horiz-adv-x="790" unicode="&#210;" /><glyph d="M547 1030 410 822H345L465 1030ZM687 1030 550 822H485L605 1030ZM353 -10Q278 -10 224 11.5Q170 33 135 73Q100 113 83 170Q66 227 66 298Q66 399 89 488.5Q112 578 159.5 645Q207 712 279.5 751Q352 790 451 790Q526 790 580 768.5Q634 747 669.5 707.5Q705 668 721.5 611Q738 554 738 482Q738 381 715 291.5Q692 202 644.5 135Q597 68 524.5 29Q452 -10 353 -10ZM444 725Q356 725 297.5 687.5Q239 650 204 589.5Q169 529 154.5 453.5Q140 378 140 302Q140 250 151 204.5Q162 159 187.5 126Q213 93 255.5 74Q298 55 361 55Q449 55 507.5 92.5Q566 130 600.5 190.5Q635 251 649.5 327Q664 403 664 479Q664 531 653.5 576Q643 621 617.5 654Q592 687 549.5 706Q507 725 444 725Z" glyph-name="Ohungarumlaut" horiz-adv-x="790" unicode="&#336;" /><glyph d="M353 -10Q278 -10 224 11.5Q170 33 135 73Q100 113 83 170Q66 227 66 298Q66 399 89 488.5Q112 578 159.5 645Q207 712 279.5 751Q352 790 451 790Q526 790 580 768.5Q634 747 669.5 707.5Q705 668 721.5 611Q738 554 738 482Q738 381 715 291.5Q692 202 644.5 135Q597 68 524.5 29Q452 -10 353 -10ZM444 725Q356 725 297.5 687.5Q239 650 204 589.5Q169 529 154.5 453.5Q140 378 140 302Q140 250 151 204.5Q162 159 187.5 126Q213 93 255.5 74Q298 55 361 55Q449 55 507.5 92.5Q566 130 600.5 190.5Q635 251 649.5 327Q664 403 664 479Q664 531 653.5 576Q643 621 617.5 654Q592 687 549.5 706Q507 725 444 725ZM277 822Q283 869 296.5 906Q310 943 333.5 968.5Q357 994 393 1007Q429 1020 480 1020Q531 1020 563.5 1007Q596 994 613.5 968.5Q631 943 635 906Q639 869 633 822H579Q589 901 564.5 932.5Q540 964 475 964Q410 964 377.5 932.5Q345 901 335 822Z" glyph-name="Oinvertedbreve" horiz-adv-x="790" unicode="&#526;" /><glyph d="M336 958H608L600 894H328ZM353 -10Q278 -10 224 11.5Q170 33 135 73Q100 113 83 170Q66 227 66 298Q66 399 89 488.5Q112 578 159.5 645Q207 712 279.5 751Q352 790 451 790Q526 790 580 768.5Q634 747 669.5 707.5Q705 668 721.5 611Q738 554 738 482Q738 381 715 291.5Q692 202 644.5 135Q597 68 524.5 29Q452 -10 353 -10ZM444 725Q356 725 297.5 687.5Q239 650 204 589.5Q169 529 154.5 453.5Q140 378 140 302Q140 250 151 204.5Q162 159 187.5 126Q213 93 255.5 74Q298 55 361 55Q449 55 507.5 92.5Q566 130 600.5 190.5Q635 251 649.5 327Q664 403 664 479Q664 531 653.5 576Q643 621 617.5 654Q592 687 549.5 706Q507 725 444 725Z" glyph-name="Omacron" horiz-adv-x="790" unicode="&#332;" /><glyph d="M738 482Q738 395 720 314.5Q702 234 665 169.5Q628 105 573 60Q518 15 443 -1Q418 -7 394.5 -18.5Q371 -30 353 -46Q335 -62 324 -80Q313 -98 313 -117Q313 -135 324.5 -145Q336 -155 363 -155Q376 -155 389.5 -151.5Q403 -148 414 -145Q426 -140 438 -134L449 -185Q432 -195 406 -202.5Q380 -210 346 -210Q328 -210 310 -205.5Q292 -201 277.5 -191.5Q263 -182 254.5 -167Q246 -152 246 -130Q246 -97 267 -66Q288 -35 325 -9Q190 -2 128 80.5Q66 163 66 300Q66 401 89.5 490.5Q113 580 160.5 646.5Q208 713 280.5 751.5Q353 790 451 790Q526 790 580 768.5Q634 747 669.5 707.5Q705 668 721.5 611Q738 554 738 482ZM444 725Q356 725 297.5 687.5Q239 650 204 589.5Q169 529 154.5 453.5Q140 378 140 302Q140 250 151 204.5Q162 159 187.5 126Q213 93 255.5 74Q298 55 361 55Q449 55 507.5 92.5Q566 130 600.5 190.5Q635 251 649.5 327Q664 403 664 479Q664 531 653.5 576Q643 621 617.5 654Q592 687 549.5 706Q507 725 444 725Z" glyph-name="Oogonek" horiz-adv-x="790" unicode="&#490;" /><glyph d="M444 725Q356 725 297.5 687.5Q239 650 204 590Q169 530 154.5 454.5Q140 379 140 303Q140 255 148.5 214.5Q157 174 176 142L593 679Q567 701 531 713Q495 725 444 725ZM128 80Q96 119 81 174Q66 229 66 298Q66 399 89 488.5Q112 578 159.5 645Q207 712 279.5 751Q352 790 451 790Q511 790 557 776.5Q603 763 638 737L671 780H739L678 700Q710 661 725 606Q740 551 740 482Q740 381 717 291.5Q694 202 646.5 135Q599 68 526.5 29Q454 -10 355 -10Q295 -10 249 3.5Q203 17 168 43L135 0H67ZM362 55Q450 55 508.5 92.5Q567 130 602 190Q637 250 651.5 325.5Q666 401 666 477Q666 525 657.5 565.5Q649 606 630 638L213 101Q239 79 275 67Q311 55 362 55Z" glyph-name="Oslash" horiz-adv-x="790" unicode="&#216;" /><glyph d="M627 1030 490 822H425L545 1030ZM444 725Q356 725 297.5 687.5Q239 650 204 590Q169 530 154.5 454.5Q140 379 140 303Q140 255 148.5 214.5Q157 174 176 142L593 679Q567 701 531 713Q495 725 444 725ZM128 80Q96 119 81 174Q66 229 66 298Q66 399 89 488.5Q112 578 159.5 645Q207 712 279.5 751Q352 790 451 790Q511 790 557 776.5Q603 763 638 737L671 780H739L678 700Q710 661 725 606Q740 551 740 482Q740 381 717 291.5Q694 202 646.5 135Q599 68 526.5 29Q454 -10 355 -10Q295 -10 249 3.5Q203 17 168 43L135 0H67ZM362 55Q450 55 508.5 92.5Q567 130 602 190Q637 250 651.5 325.5Q666 401 666 477Q666 525 657.5 565.5Q649 606 630 638L213 101Q239 79 275 67Q311 55 362 55Z" glyph-name="Oslashacute" horiz-adv-x="790" unicode="&#510;" /><glyph d="M353 -10Q278 -10 224 11.5Q170 33 135 73Q100 113 83 170Q66 227 66 298Q66 399 89 488.5Q112 578 159.5 645Q207 712 279.5 751Q352 790 451 790Q526 790 580 768.5Q634 747 669.5 707.5Q705 668 721.5 611Q738 554 738 482Q738 381 715 291.5Q692 202 644.5 135Q597 68 524.5 29Q452 -10 353 -10ZM444 725Q356 725 297.5 687.5Q239 650 204 589.5Q169 529 154.5 453.5Q140 378 140 302Q140 250 151 204.5Q162 159 187.5 126Q213 93 255.5 74Q298 55 361 55Q449 55 507.5 92.5Q566 130 600.5 190.5Q635 251 649.5 327Q664 403 664 479Q664 531 653.5 576Q643 621 617.5 654Q592 687 549.5 706Q507 725 444 725ZM540 860Q508 860 488.5 871.5Q469 883 454 897.5Q439 912 424.5 923.5Q410 935 388 935Q368 935 354.5 927Q341 919 334 909Q325 898 320 883L266 891Q280 934 310.5 964Q341 994 396 994Q428 994 447.5 982.5Q467 971 482 956.5Q497 942 511.5 930.5Q526 919 548 919Q569 919 582 927Q595 935 603 945Q612 956 616 971L671 963Q656 920 626 890Q596 860 540 860Z" glyph-name="Otilde" horiz-adv-x="790" unicode="&#213;" /><glyph d="M526 820Q497 822 479 833Q461 844 447.5 857.5Q434 871 421.5 882.5Q409 894 389 895Q367 897 352.5 889Q338 881 330 871Q320 859 315 843L261 851Q269 873 280 892.5Q291 912 308 926Q325 940 348 948Q371 956 401 954Q430 953 448 941.5Q466 930 479.5 916.5Q493 903 505.5 891.5Q518 880 537 879Q560 877 574.5 885Q589 893 597 904Q607 915 612 931L666 923Q659 901 647.5 881.5Q636 862 619 848Q602 834 579 826.5Q556 819 526 820ZM348 1058H620L613 994H341ZM353 -10Q278 -10 224 11.5Q170 33 135 73Q100 113 83 170Q66 227 66 298Q66 399 89 488.5Q112 578 159.5 645Q207 712 279.5 751Q352 790 451 790Q526 790 580 768.5Q634 747 669.5 707.5Q705 668 721.5 611Q738 554 738 482Q738 381 715 291.5Q692 202 644.5 135Q597 68 524.5 29Q452 -10 353 -10ZM444 725Q356 725 297.5 687.5Q239 650 204 589.5Q169 529 154.5 453.5Q140 378 140 302Q140 250 151 204.5Q162 159 187.5 126Q213 93 255.5 74Q298 55 361 55Q449 55 507.5 92.5Q566 130 600.5 190.5Q635 251 649.5 327Q664 403 664 479Q664 531 653.5 576Q643 621 617.5 654Q592 687 549.5 706Q507 725 444 725Z" glyph-name="Otildemacron" horiz-adv-x="790" unicode="&#556;" /><glyph d="M190 693H104L114 779H200ZM776 693H690L700 779H786ZM353 -10Q278 -10 224 11.5Q170 33 135 73Q100 113 83 170Q66 227 66 298Q66 399 89 488.5Q112 578 159.5 645Q207 712 279.5 751Q352 790 451 790Q526 790 580 768.5Q634 747 669.5 707.5Q705 668 721.5 611Q738 554 738 482Q738 381 715 291.5Q692 202 644.5 135Q597 68 524.5 29Q452 -10 353 -10ZM444 725Q356 725 297.5 687.5Q239 650 204 589.5Q169 529 154.5 453.5Q140 378 140 302Q140 250 151 204.5Q162 159 187.5 126Q213 93 255.5 74Q298 55 361 55Q449 55 507.5 92.5Q566 130 600.5 190.5Q635 251 649.5 327Q664 403 664 479Q664 531 653.5 576Q643 621 617.5 654Q592 687 549.5 706Q507 725 444 725Z" glyph-name="Oumlaut.alt" horiz-adv-x="790" /><glyph d="M300 -200 320 -40H380L360 -200ZM353 -10Q278 -10 224 11.5Q170 33 135 73Q100 113 83 170Q66 227 66 298Q66 399 89 488.5Q112 578 159.5 645Q207 712 279.5 751Q352 790 451 790Q526 790 580 768.5Q634 747 669.5 707.5Q705 668 721.5 611Q738 554 738 482Q738 381 715 291.5Q692 202 644.5 135Q597 68 524.5 29Q452 -10 353 -10ZM444 725Q356 725 297.5 687.5Q239 650 204 589.5Q169 529 154.5 453.5Q140 378 140 302Q140 250 151 204.5Q162 159 187.5 126Q213 93 255.5 74Q298 55 361 55Q449 55 507.5 92.5Q566 130 600.5 190.5Q635 251 649.5 327Q664 403 664 479Q664 531 653.5 576Q643 621 617.5 654Q592 687 549.5 706Q507 725 444 725Z" glyph-name="Ounderlineaccent" horiz-adv-x="790" unicode="&#57633;" /><glyph d="M386 402Q416 402 448 410Q480 418 506.5 439Q533 460 550 497Q567 534 567 591Q567 632 553.5 656.5Q540 681 519 694Q498 707 472.5 710.5Q447 714 424 714H207L169 402ZM120 0H50L145 780H421Q463 780 502.5 772Q542 764 573.5 743Q605 722 624 687Q643 652 643 598Q643 525 618.5 475Q594 425 555 394Q516 363 466.5 349.5Q417 336 367 336H161Z" glyph-name="P" horiz-adv-x="650" unicode="P" /><glyph d="M386 402Q411 402 440 406.5Q469 411 494.5 427Q520 443 539.5 474Q559 505 565 558Q571 611 559.5 642Q548 673 526 689Q504 705 476.5 709.5Q449 714 424 714H207L169 402ZM120 0H50L145 780H421Q466 780 509 770Q552 760 584 735Q616 710 632 667Q648 624 640 558Q632 492 605 449Q578 406 540 381Q502 356 457 346Q412 336 367 336H161ZM256 958H528L520 894H248Z" glyph-name="Pmacron" horiz-adv-x="650" unicode="&#57635;" /><glyph d="M729 -210 215 15Q138 49 102 121.5Q66 194 66 299Q66 400 89.5 489.5Q113 579 160.5 646Q208 713 280.5 751.5Q353 790 451 790Q526 790 580 768.5Q634 747 669.5 707.5Q705 668 721.5 611Q738 554 738 482Q738 391 719 308.5Q700 226 661 160.5Q622 95 562.5 51.5Q503 8 422 -5L421 -9L523 -50L738 -131ZM444 725Q356 725 297.5 687.5Q239 650 204 589.5Q169 529 154.5 453.5Q140 378 140 302Q140 250 151 204.5Q162 159 187.5 126Q213 93 255.5 74Q298 55 361 55Q449 55 507.5 92.5Q566 130 600.5 190.5Q635 251 649.5 327Q664 403 664 479Q664 531 653.5 576Q643 621 617.5 654Q592 687 549.5 706Q507 725 444 725Z" glyph-name="Q" horiz-adv-x="790" unicode="Q" /><glyph d="M120 0H50L145 780H445Q487 780 526 772.5Q565 765 596 745.5Q627 726 645.5 692Q664 658 664 604Q664 546 647.5 500.5Q631 455 602.5 423Q574 391 535 372.5Q496 354 452 350L623 0H539L378 347H162ZM409 413Q442 413 474.5 420Q507 427 532 447Q557 467 572.5 503Q588 539 588 597Q588 638 574.5 661.5Q561 685 540 696.5Q519 708 494 711Q469 714 446 714H207L170 413Z" glyph-name="R" horiz-adv-x="705" unicode="R" /><glyph d="M560 1030 423 822H358L478 1030ZM120 0H50L145 780H445Q487 780 526 772.5Q565 765 596 745.5Q627 726 645.5 692Q664 658 664 604Q664 546 647.5 500.5Q631 455 602.5 423Q574 391 535 372.5Q496 354 452 350L623 0H539L378 347H162ZM409 413Q442 413 474.5 420Q507 427 532 447Q557 467 572.5 503Q588 539 588 597Q588 638 574.5 661.5Q561 685 540 696.5Q519 708 494 711Q469 714 446 714H207L170 413Z" glyph-name="Racute" horiz-adv-x="705" unicode="&#340;" /><glyph d="M300 1030 398 880 534 1030H603L427 822H359L235 1030ZM120 0H50L145 780H445Q487 780 526 772.5Q565 765 596 745.5Q627 726 645.5 692Q664 658 664 604Q664 546 647.5 500.5Q631 455 602.5 423Q574 391 535 372.5Q496 354 452 350L623 0H539L378 347H162ZM409 413Q442 413 474.5 420Q507 427 532 447Q557 467 572.5 503Q588 539 588 597Q588 638 574.5 661.5Q561 685 540 696.5Q519 708 494 711Q469 714 446 714H207L170 413Z" glyph-name="Rcaron" horiz-adv-x="705" unicode="&#344;" /><glyph d="M286 -26Q349 -34 377.5 -56Q406 -78 406 -114Q406 -164 371 -187Q336 -210 286 -210Q263 -210 241 -204.5Q219 -199 209 -193L229 -149Q238 -153 247 -156Q256 -158 266.5 -160Q277 -162 288 -162Q318 -162 332.5 -151Q347 -140 347 -123Q347 -100 322.5 -89.5Q298 -79 263 -75ZM120 0H50L145 780H445Q487 780 526 772.5Q565 765 596 745.5Q627 726 645.5 692Q664 658 664 604Q664 546 647.5 500.5Q631 455 602.5 423Q574 391 535 372.5Q496 354 452 350L623 0H539L378 347H162ZM409 413Q442 413 474.5 420Q507 427 532 447Q557 467 572.5 503Q588 539 588 597Q588 638 574.5 661.5Q561 685 540 696.5Q519 708 494 711Q469 714 446 714H207L170 413Z" glyph-name="Rcedilla" horiz-adv-x="705" unicode="&#57639;" /><glyph d="M341 -62 274 -200H207L262 -62ZM120 0H50L145 780H445Q487 780 526 772.5Q565 765 596 745.5Q627 726 645.5 692Q664 658 664 604Q664 546 647.5 500.5Q631 455 602.5 423Q574 391 535 372.5Q496 354 452 350L623 0H539L378 347H162ZM409 413Q442 413 474.5 420Q507 427 532 447Q557 467 572.5 503Q588 539 588 597Q588 638 574.5 661.5Q561 685 540 696.5Q519 708 494 711Q469 714 446 714H207L170 413Z" glyph-name="Rcommaaccent" horiz-adv-x="705" unicode="&#342;" /><glyph d="M327 -153H241L251 -67H337ZM120 0H50L145 780H445Q487 780 526 772.5Q565 765 596 745.5Q627 726 645.5 692Q664 658 664 604Q664 546 647.5 500.5Q631 455 602.5 423Q574 391 535 372.5Q496 354 452 350L623 0H539L378 347H162ZM409 413Q442 413 474.5 420Q507 427 532 447Q557 467 572.5 503Q588 539 588 597Q588 638 574.5 661.5Q561 685 540 696.5Q519 708 494 711Q469 714 446 714H207L170 413Z" glyph-name="Rdotbelow" horiz-adv-x="705" unicode="&#7770;" /><glyph d="M327 -153H241L251 -67H337ZM266 958H538L530 894H258ZM120 0H50L145 780H445Q487 780 526 772.5Q565 765 596 745.5Q627 726 645.5 692Q664 658 664 604Q664 546 647.5 500.5Q631 455 602.5 423Q574 391 535 372.5Q496 354 452 350L623 0H539L378 347H162ZM409 413Q442 413 474.5 420Q507 427 532 447Q557 467 572.5 503Q588 539 588 597Q588 638 574.5 661.5Q561 685 540 696.5Q519 708 494 711Q469 714 446 714H207L170 413Z" glyph-name="Rdotbelowmacron" horiz-adv-x="705" unicode="&#7772;" /><glyph d="M427 1030 495 822H430L345 1030ZM287 1030 355 822H290L205 1030ZM120 0H50L145 780H445Q487 780 526 772.5Q565 765 596 745.5Q627 726 645.5 692Q664 658 664 604Q664 546 647.5 500.5Q631 455 602.5 423Q574 391 535 372.5Q496 354 452 350L623 0H539L378 347H162ZM409 413Q442 413 474.5 420Q507 427 532 447Q557 467 572.5 503Q588 539 588 597Q588 638 574.5 661.5Q561 685 540 696.5Q519 708 494 711Q469 714 446 714H207L170 413Z" glyph-name="Rdoublegrave" horiz-adv-x="705" unicode="&#57637;" /><glyph d="M222 822Q228 869 241.5 906Q255 943 278.5 968.5Q302 994 338 1007Q374 1020 425 1020Q476 1020 508.5 1007Q541 994 558.5 968.5Q576 943 580 906Q584 869 578 822H524Q534 901 509.5 932.5Q485 964 420 964Q355 964 322.5 932.5Q290 901 280 822ZM120 0H50L145 780H445Q487 780 526 772.5Q565 765 596 745.5Q627 726 645.5 692Q664 658 664 604Q664 546 647.5 500.5Q631 455 602.5 423Q574 391 535 372.5Q496 354 452 350L623 0H539L378 347H162ZM409 413Q442 413 474.5 420Q507 427 532 447Q557 467 572.5 503Q588 539 588 597Q588 638 574.5 661.5Q561 685 540 696.5Q519 708 494 711Q469 714 446 714H207L170 413Z" glyph-name="Rinvertedbreve" horiz-adv-x="705" unicode="&#530;" /><glyph d="M602 588Q596 660 551 692.5Q506 725 405 725Q377 725 341 717.5Q305 710 273 691Q241 672 218.5 639Q196 606 196 554Q196 531 204.5 513Q213 495 233 481.5Q253 468 287 458.5Q321 449 373 443Q433 436 481 425.5Q529 415 562 395Q595 375 613 343Q631 311 631 261Q631 193 604.5 142Q578 91 534 57.5Q490 24 432.5 7Q375 -10 313 -10Q246 -10 198.5 3.5Q151 17 119.5 41Q88 65 71 99Q54 133 49 173L120 198Q126 123 172.5 89Q219 55 321 55Q364 55 406.5 66Q449 77 483.5 100Q518 123 539.5 160Q561 197 561 249Q561 278 550.5 299.5Q540 321 517 336.5Q494 352 456 362.5Q418 373 363 379Q317 384 274 393.5Q231 403 197.5 422Q164 441 144 471Q124 501 124 548Q124 609 148 654.5Q172 700 212 730Q252 760 304 775Q356 790 412 790Q479 790 526 776.5Q573 763 603.5 739.5Q634 716 650.5 683.5Q667 651 672 612Z" glyph-name="S" horiz-adv-x="710" unicode="S" /><glyph d="M588 1030 451 822H386L506 1030ZM602 588Q596 660 551 692.5Q506 725 405 725Q377 725 341 717.5Q305 710 273 691Q241 672 218.5 639Q196 606 196 554Q196 531 204.5 513Q213 495 233 481.5Q253 468 287 458.5Q321 449 373 443Q433 436 481 425.5Q529 415 562 395Q595 375 613 343Q631 311 631 261Q631 193 604.5 142Q578 91 534 57.5Q490 24 432.5 7Q375 -10 313 -10Q246 -10 198.5 3.5Q151 17 119.5 41Q88 65 71 99Q54 133 49 173L120 198Q126 123 172.5 89Q219 55 321 55Q364 55 406.5 66Q449 77 483.5 100Q518 123 539.5 160Q561 197 561 249Q561 278 550.5 299.5Q540 321 517 336.5Q494 352 456 362.5Q418 373 363 379Q317 384 274 393.5Q231 403 197.5 422Q164 441 144 471Q124 501 124 548Q124 609 148 654.5Q172 700 212 730Q252 760 304 775Q356 790 412 790Q479 790 526 776.5Q573 763 603.5 739.5Q634 716 650.5 683.5Q667 651 672 612Z" glyph-name="Sacute" horiz-adv-x="710" unicode="&#346;" /><glyph d="M602 588Q596 660 551 692.5Q506 725 405 725Q377 725 341 717.5Q305 710 273 691Q241 672 218.5 639Q196 606 196 554Q196 531 204.5 513Q213 495 233 481.5Q253 468 287 458.5Q321 449 373 443Q433 436 481 425.5Q529 415 562 395Q595 375 613 343Q631 311 631 261Q631 193 604.5 142Q578 91 534 57.5Q490 24 432.5 7Q375 -10 313 -10Q246 -10 198.5 3.5Q151 17 119.5 41Q88 65 71 99Q54 133 49 173L120 198Q126 123 172.5 89Q219 55 321 55Q364 55 406.5 66Q449 77 483.5 100Q518 123 539.5 160Q561 197 561 249Q561 278 550.5 299.5Q540 321 517 336.5Q494 352 456 362.5Q418 373 363 379Q317 384 274 393.5Q231 403 197.5 422Q164 441 144 471Q124 501 124 548Q124 609 148 654.5Q172 700 212 730Q252 760 304 775Q356 790 412 790Q479 790 526 776.5Q573 763 603.5 739.5Q634 716 650.5 683.5Q667 651 672 612ZM326 1030 424 880 560 1030H629L453 822H385L261 1030Z" glyph-name="Scaron" horiz-adv-x="710" unicode="&#352;" /><glyph d="M602 588Q596 660 551 692.5Q506 725 405 725Q377 725 341 717.5Q305 710 273 691Q241 672 218.5 639Q196 606 196 554Q196 531 204.5 513Q213 495 233 481.5Q253 468 287 458.5Q321 449 373 443Q433 436 481 425.5Q529 415 562 395Q595 375 613 343Q631 311 631 261Q631 196 607 146.5Q583 97 542 63.5Q501 30 447.5 12Q394 -6 335 -9L325 -34Q357 -42 379.5 -60.5Q402 -79 402 -114Q402 -164 367 -187Q332 -210 282 -210Q259 -210 237 -204.5Q215 -199 205 -193L225 -149Q234 -153 243 -156Q252 -158 262.5 -160Q273 -162 284 -162Q314 -162 328.5 -151Q343 -140 343 -123Q343 -100 318.5 -89.5Q294 -79 259 -75L290 -9Q229 -7 185.5 7.5Q142 22 113.5 46Q85 70 69.5 102Q54 134 49 173L120 198Q126 123 172.5 89Q219 55 321 55Q364 55 406.5 66Q449 77 483.5 100Q518 123 539.5 160Q561 197 561 249Q561 278 550.5 299.5Q540 321 517 336.5Q494 352 456 362.5Q418 373 363 379Q317 384 274 393.5Q231 403 197.5 422Q164 441 144 471Q124 501 124 548Q124 609 148 654.5Q172 700 212 730Q252 760 304 775Q356 790 412 790Q479 790 526 776.5Q573 763 603.5 739.5Q634 716 650.5 683.5Q667 651 672 612Z" glyph-name="Scedilla" horiz-adv-x="710" unicode="&#350;" /><glyph d="M430 725Q328 725 270.5 691Q213 657 189 582L123 604Q138 645 164 679.5Q190 714 228 738.5Q266 763 318 776.5Q370 790 437 790Q578 790 655 707Q732 624 732 471Q732 359 703 270Q674 181 622 118.5Q570 56 498 23Q426 -10 341 -10Q267 -10 215.5 11Q164 32 131.5 71.5Q99 111 84 167Q69 223 69 292Q69 317 71 348Q73 379 81 433H657Q658 445 658.5 456Q659 467 659 478Q659 603 597.5 664Q536 725 430 725ZM349 55Q409 55 458.5 77Q508 99 546 139.5Q584 180 610 237.5Q636 295 649 367H146Q144 347 142.5 328Q141 309 141 290Q141 181 189.5 118Q238 55 349 55Z" glyph-name="Schwa" horiz-adv-x="785" unicode="&#399;" /><glyph d="M602 588Q596 660 551 692.5Q506 725 405 725Q377 725 341 717.5Q305 710 273 691Q241 672 218.5 639Q196 606 196 554Q196 531 204.5 513Q213 495 233 481.5Q253 468 287 458.5Q321 449 373 443Q433 436 481 425.5Q529 415 562 395Q595 375 613 343Q631 311 631 261Q631 193 604.5 142Q578 91 534 57.5Q490 24 432.5 7Q375 -10 313 -10Q246 -10 198.5 3.5Q151 17 119.5 41Q88 65 71 99Q54 133 49 173L120 198Q126 123 172.5 89Q219 55 321 55Q364 55 406.5 66Q449 77 483.5 100Q518 123 539.5 160Q561 197 561 249Q561 278 550.5 299.5Q540 321 517 336.5Q494 352 456 362.5Q418 373 363 379Q317 384 274 393.5Q231 403 197.5 422Q164 441 144 471Q124 501 124 548Q124 609 148 654.5Q172 700 212 730Q252 760 304 775Q356 790 412 790Q479 790 526 776.5Q573 763 603.5 739.5Q634 716 650.5 683.5Q667 651 672 612ZM533 822 435 972 299 822H230L406 1030H474L598 822Z" glyph-name="Scircumflex" horiz-adv-x="710" unicode="&#348;" /><glyph d="M353 -62 286 -200H219L274 -62ZM602 588Q596 660 551 692.5Q506 725 405 725Q377 725 341 717.5Q305 710 273 691Q241 672 218.5 639Q196 606 196 554Q196 531 204.5 513Q213 495 233 481.5Q253 468 287 458.5Q321 449 373 443Q433 436 481 425.5Q529 415 562 395Q595 375 613 343Q631 311 631 261Q631 193 604.5 142Q578 91 534 57.5Q490 24 432.5 7Q375 -10 313 -10Q246 -10 198.5 3.5Q151 17 119.5 41Q88 65 71 99Q54 133 49 173L120 198Q126 123 172.5 89Q219 55 321 55Q364 55 406.5 66Q449 77 483.5 100Q518 123 539.5 160Q561 197 561 249Q561 278 550.5 299.5Q540 321 517 336.5Q494 352 456 362.5Q418 373 363 379Q317 384 274 393.5Q231 403 197.5 422Q164 441 144 471Q124 501 124 548Q124 609 148 654.5Q172 700 212 730Q252 760 304 775Q356 790 412 790Q479 790 526 776.5Q573 763 603.5 739.5Q634 716 650.5 683.5Q667 651 672 612Z" glyph-name="Scommaaccent" horiz-adv-x="710" unicode="&#536;" /><glyph d="M334 -153H248L258 -67H344ZM602 588Q596 660 551 692.5Q506 725 405 725Q377 725 341 717.5Q305 710 273 691Q241 672 218.5 639Q196 606 196 554Q196 531 204.5 513Q213 495 233 481.5Q253 468 287 458.5Q321 449 373 443Q433 436 481 425.5Q529 415 562 395Q595 375 613 343Q631 311 631 261Q631 193 604.5 142Q578 91 534 57.5Q490 24 432.5 7Q375 -10 313 -10Q246 -10 198.5 3.5Q151 17 119.5 41Q88 65 71 99Q54 133 49 173L120 198Q126 123 172.5 89Q219 55 321 55Q364 55 406.5 66Q449 77 483.5 100Q518 123 539.5 160Q561 197 561 249Q561 278 550.5 299.5Q540 321 517 336.5Q494 352 456 362.5Q418 373 363 379Q317 384 274 393.5Q231 403 197.5 422Q164 441 144 471Q124 501 124 548Q124 609 148 654.5Q172 700 212 730Q252 760 304 775Q356 790 412 790Q479 790 526 776.5Q573 763 603.5 739.5Q634 716 650.5 683.5Q667 651 672 612Z" glyph-name="Sdotbelow" horiz-adv-x="710" unicode="&#7778;" /><glyph d="M305 0H235L322 714H72L80 780H650L642 714H392Z" glyph-name="T" horiz-adv-x="620" unicode="T" /><glyph d="M350 367 305 0H235L280 367H160L168 433H288L322 714H72L80 780H650L642 714H392L358 433H478L470 367Z" glyph-name="Tbar" horiz-adv-x="620" unicode="&#358;" /><glyph d="M305 0H235L322 714H72L80 780H650L642 714H392ZM280 1030 378 880 514 1030H583L407 822H339L215 1030Z" glyph-name="Tcaron" horiz-adv-x="620" unicode="&#356;" /><glyph d="M246 -26Q309 -34 337.5 -56Q366 -78 366 -114Q366 -164 331 -187Q296 -210 246 -210Q223 -210 201 -204.5Q179 -199 169 -193L189 -149Q198 -153 207 -156Q216 -158 226.5 -160Q237 -162 248 -162Q278 -162 292.5 -151Q307 -140 307 -123Q307 -100 282.5 -89.5Q258 -79 223 -75ZM305 0H235L322 714H72L80 780H650L642 714H392Z" glyph-name="Tcedilla" horiz-adv-x="620" unicode="&#57641;" /><glyph d="M305 0H235L322 714H72L80 780H650L642 714H392ZM301 -62 234 -200H167L222 -62Z" glyph-name="Tcommaaccent" horiz-adv-x="620" unicode="&#354;" /><glyph d="M305 0H235L322 714H72L80 780H650L642 714H392ZM294 -153H208L218 -67H304Z" glyph-name="Tdotbelow" horiz-adv-x="620" unicode="&#7788;" /><glyph d="M196 622H402Q444 622 483.5 614Q523 606 554.5 585Q586 564 605 528.5Q624 493 624 439Q624 366 599.5 316Q575 266 535.5 235.5Q496 205 446.5 191.5Q397 178 347 178H141L120 0H50L145 780H215ZM366 244Q396 244 428 252Q460 260 486.5 281Q513 302 530.5 339Q548 376 548 433Q548 474 534.5 498.5Q521 523 500 536Q479 549 453.5 552.5Q428 556 405 556H188L149 244Z" glyph-name="Thorn" horiz-adv-x="650" unicode="&#222;" /><glyph d="M345 -10Q258 -10 202 12.5Q146 35 115 74Q84 113 75.5 166Q67 219 74 280L135 780H207L146 278Q140 231 144.5 190.5Q149 150 171.5 120Q194 90 237.5 72.5Q281 55 353 55Q425 55 472.5 72.5Q520 90 550 120Q580 150 595 190.5Q610 231 616 278L677 780H749L688 280Q681 219 658.5 166Q636 113 595.5 74Q555 35 493.5 12.5Q432 -10 345 -10Z" glyph-name="U" horiz-adv-x="774" unicode="U" /><glyph d="M619 1030 482 822H417L537 1030ZM345 -10Q258 -10 202 12.5Q146 35 115 74Q84 113 75.5 166Q67 219 74 280L135 780H207L146 278Q140 231 144.5 190.5Q149 150 171.5 120Q194 90 237.5 72.5Q281 55 353 55Q425 55 472.5 72.5Q520 90 550 120Q580 150 595 190.5Q610 231 616 278L677 780H749L688 280Q681 219 658.5 166Q636 113 595.5 74Q555 35 493.5 12.5Q432 -10 345 -10Z" glyph-name="Uacute" horiz-adv-x="774" unicode="&#218;" /><glyph d="M345 -10Q258 -10 202 12.5Q146 35 115 74Q84 113 75.5 166Q67 219 74 280L135 780H207L146 278Q140 231 144.5 190.5Q149 150 171.5 120Q194 90 237.5 72.5Q281 55 353 55Q425 55 472.5 72.5Q520 90 550 120Q580 150 595 190.5Q610 231 616 278L677 780H749L688 280Q681 219 658.5 166Q636 113 595.5 74Q555 35 493.5 12.5Q432 -10 345 -10ZM652 1030Q646 983 632.5 946Q619 909 595.5 883.5Q572 858 536 845Q500 832 449 832Q398 832 365.5 845Q333 858 315.5 883.5Q298 909 294 946Q290 983 296 1030H350Q340 951 364.5 919.5Q389 888 454 888Q519 888 551.5 919.5Q584 951 594 1030Z" glyph-name="Ubreve" horiz-adv-x="774" unicode="&#364;" /><glyph d="M345 -10Q258 -10 202 12.5Q146 35 115 74Q84 113 75.5 166Q67 219 74 280L135 780H207L146 278Q140 231 144.5 190.5Q149 150 171.5 120Q194 90 237.5 72.5Q281 55 353 55Q425 55 472.5 72.5Q520 90 550 120Q580 150 595 190.5Q610 231 616 278L677 780H749L688 280Q681 219 658.5 166Q636 113 595.5 74Q555 35 493.5 12.5Q432 -10 345 -10ZM357 1030 455 880 591 1030H660L484 822H416L292 1030Z" glyph-name="Ucaron" horiz-adv-x="774" unicode="&#467;" /><glyph d="M345 -10Q258 -10 202 12.5Q146 35 115 74Q84 113 75.5 166Q67 219 74 280L135 780H207L146 278Q140 231 144.5 190.5Q149 150 171.5 120Q194 90 237.5 72.5Q281 55 353 55Q425 55 472.5 72.5Q520 90 550 120Q580 150 595 190.5Q610 231 616 278L677 780H749L688 280Q681 219 658.5 166Q636 113 595.5 74Q555 35 493.5 12.5Q432 -10 345 -10ZM564 822 466 972 330 822H261L437 1030H505L629 822Z" glyph-name="Ucircumflex" horiz-adv-x="774" unicode="&#219;" /><glyph d="M405 883H319L329 969H415ZM591 883H505L515 969H601ZM345 -10Q258 -10 202 12.5Q146 35 115 74Q84 113 75.5 166Q67 219 74 280L135 780H207L146 278Q140 231 144.5 190.5Q149 150 171.5 120Q194 90 237.5 72.5Q281 55 353 55Q425 55 472.5 72.5Q520 90 550 120Q580 150 595 190.5Q610 231 616 278L677 780H749L688 280Q681 219 658.5 166Q636 113 595.5 74Q555 35 493.5 12.5Q432 -10 345 -10Z" glyph-name="Udieresis" horiz-adv-x="774" unicode="&#220;" /><glyph d="M345 -10Q258 -10 202 12.5Q146 35 115 74Q84 113 75.5 166Q67 219 74 280L135 780H207L146 278Q140 231 144.5 190.5Q149 150 171.5 120Q194 90 237.5 72.5Q281 55 353 55Q425 55 472.5 72.5Q520 90 550 120Q580 150 595 190.5Q610 231 616 278L677 780H749L688 280Q681 219 658.5 166Q636 113 595.5 74Q555 35 493.5 12.5Q432 -10 345 -10ZM371 -153H285L295 -67H381Z" glyph-name="Udotbelow" horiz-adv-x="774" unicode="&#7908;" /><glyph d="M349 1030 417 822H352L267 1030ZM489 1030 557 822H492L407 1030ZM345 -10Q258 -10 202 12.5Q146 35 115 74Q84 113 75.5 166Q67 219 74 280L135 780H207L146 278Q140 231 144.5 190.5Q149 150 171.5 120Q194 90 237.5 72.5Q281 55 353 55Q425 55 472.5 72.5Q520 90 550 120Q580 150 595 190.5Q610 231 616 278L677 780H749L688 280Q681 219 658.5 166Q636 113 595.5 74Q555 35 493.5 12.5Q432 -10 345 -10Z" glyph-name="Udoublegrave" horiz-adv-x="774" unicode="&#532;" /><glyph d="M420 1030 488 822H423L338 1030ZM345 -10Q258 -10 202 12.5Q146 35 115 74Q84 113 75.5 166Q67 219 74 280L135 780H207L146 278Q140 231 144.5 190.5Q149 150 171.5 120Q194 90 237.5 72.5Q281 55 353 55Q425 55 472.5 72.5Q520 90 550 120Q580 150 595 190.5Q610 231 616 278L677 780H749L688 280Q681 219 658.5 166Q636 113 595.5 74Q555 35 493.5 12.5Q432 -10 345 -10Z" glyph-name="Ugrave" horiz-adv-x="774" unicode="&#217;" /><glyph d="M679 1030 542 822H477L597 1030ZM539 1030 402 822H337L457 1030ZM345 -10Q258 -10 202 12.5Q146 35 115 74Q84 113 75.5 166Q67 219 74 280L135 780H207L146 278Q140 231 144.5 190.5Q149 150 171.5 120Q194 90 237.5 72.5Q281 55 353 55Q425 55 472.5 72.5Q520 90 550 120Q580 150 595 190.5Q610 231 616 278L677 780H749L688 280Q681 219 658.5 166Q636 113 595.5 74Q555 35 493.5 12.5Q432 -10 345 -10Z" glyph-name="Uhungarumlaut" horiz-adv-x="774" unicode="&#368;" /><glyph d="M345 -10Q258 -10 202 12.5Q146 35 115 74Q84 113 75.5 166Q67 219 74 280L135 780H207L146 278Q140 231 144.5 190.5Q149 150 171.5 120Q194 90 237.5 72.5Q281 55 353 55Q425 55 472.5 72.5Q520 90 550 120Q580 150 595 190.5Q610 231 616 278L677 780H749L688 280Q681 219 658.5 166Q636 113 595.5 74Q555 35 493.5 12.5Q432 -10 345 -10ZM269 822Q275 869 288.5 906Q302 943 325.5 968.5Q349 994 385 1007Q421 1020 472 1020Q523 1020 555.5 1007Q588 994 605.5 968.5Q623 943 627 906Q631 869 625 822H571Q581 901 556.5 932.5Q532 964 467 964Q402 964 369.5 932.5Q337 901 327 822Z" glyph-name="Uinvertedbreve" horiz-adv-x="774" unicode="&#534;" /><glyph d="M328 958H600L592 894H320ZM345 -10Q258 -10 202 12.5Q146 35 115 74Q84 113 75.5 166Q67 219 74 280L135 780H207L146 278Q140 231 144.5 190.5Q149 150 171.5 120Q194 90 237.5 72.5Q281 55 353 55Q425 55 472.5 72.5Q520 90 550 120Q580 150 595 190.5Q610 231 616 278L677 780H749L688 280Q681 219 658.5 166Q636 113 595.5 74Q555 35 493.5 12.5Q432 -10 345 -10Z" glyph-name="Umacron" horiz-adv-x="774" unicode="&#362;" /><glyph d="M345 -10Q258 -10 202 12.5Q146 35 115 74Q84 113 75.5 166Q67 219 74 280L135 780H207L146 278Q140 231 144.5 190.5Q149 150 171.5 120Q194 90 237.5 72.5Q281 55 353 55Q425 55 472.5 72.5Q520 90 550 120Q580 150 595 190.5Q610 231 616 278L677 780H749L688 280Q681 219 658.5 166Q636 113 595.5 74Q555 35 493.5 12.5Q432 -10 345 -10ZM201 -78H473L465 -142H193Z" glyph-name="Umacronbelow" horiz-adv-x="774" unicode="&#57643;" /><glyph d="M345 -10Q258 -10 201.5 12.5Q145 35 114.5 74Q84 113 75.5 166Q67 219 74 280L135 780H207L146 278Q140 231 145 190.5Q150 150 172 120Q194 90 237.5 72.5Q281 55 353 55Q424 55 472 72.5Q520 90 550 120Q580 150 595 190.5Q610 231 616 278L677 780H749L688 280Q682 230 666.5 186Q651 142 624 106Q597 70 557 43.5Q517 17 463 3Q436 -4 412 -17Q388 -30 370.5 -46.5Q353 -63 343 -81Q333 -99 333 -117Q333 -135 344.5 -145Q356 -155 383 -155Q396 -155 409.5 -151.5Q423 -148 434 -145Q446 -140 458 -134L469 -185Q452 -195 426 -202.5Q400 -210 366 -210Q348 -210 330 -205.5Q312 -201 297.5 -191.5Q283 -182 274.5 -167Q266 -152 266 -130Q266 -97 287 -66.5Q308 -36 345 -10Z" glyph-name="Uogonek" horiz-adv-x="774" unicode="&#370;" /><glyph d="M345 -10Q258 -10 202 12.5Q146 35 115 74Q84 113 75.5 166Q67 219 74 280L135 780H207L146 278Q140 231 144.5 190.5Q149 150 171.5 120Q194 90 237.5 72.5Q281 55 353 55Q425 55 472.5 72.5Q520 90 550 120Q580 150 595 190.5Q610 231 616 278L677 780H749L688 280Q681 219 658.5 166Q636 113 595.5 74Q555 35 493.5 12.5Q432 -10 345 -10ZM446 812Q397 812 371 839Q345 866 345 908Q345 965 380 1002.5Q415 1040 474 1040Q523 1040 549 1013Q575 986 575 944Q575 887 540 849.5Q505 812 446 812ZM467 984Q438 984 421 965Q404 946 404 917Q404 895 416.5 881.5Q429 868 453 868Q482 868 499 887Q516 906 516 935Q516 957 503.5 970.5Q491 984 467 984Z" glyph-name="Uring" horiz-adv-x="774" unicode="&#366;" /><glyph d="M345 -10Q258 -10 202 12.5Q146 35 115 74Q84 113 75.5 166Q67 219 74 280L135 780H207L146 278Q140 231 144.5 190.5Q149 150 171.5 120Q194 90 237.5 72.5Q281 55 353 55Q425 55 472.5 72.5Q520 90 550 120Q580 150 595 190.5Q610 231 616 278L677 780H749L688 280Q681 219 658.5 166Q636 113 595.5 74Q555 35 493.5 12.5Q432 -10 345 -10ZM532 860Q500 860 480.5 871.5Q461 883 446 897.5Q431 912 416.5 923.5Q402 935 380 935Q360 935 346.5 927Q333 919 326 909Q317 898 312 883L258 891Q272 934 302.5 964Q333 994 388 994Q420 994 439.5 982.5Q459 971 474 956.5Q489 942 503.5 930.5Q518 919 540 919Q561 919 574 927Q587 935 595 945Q604 956 608 971L663 963Q648 920 618 890Q588 860 532 860Z" glyph-name="Utilde" horiz-adv-x="774" unicode="&#360;" /><glyph d="M345 -10Q258 -10 202 12.5Q146 35 115 74Q84 113 75.5 166Q67 219 74 280L135 780H207L146 278Q140 231 144.5 190.5Q149 150 171.5 120Q194 90 237.5 72.5Q281 55 353 55Q425 55 472.5 72.5Q520 90 550 120Q580 150 595 190.5Q610 231 616 278L677 780H749L688 280Q681 219 658.5 166Q636 113 595.5 74Q555 35 493.5 12.5Q432 -10 345 -10ZM382 693H296L306 779H392ZM568 693H482L492 779H578Z" glyph-name="Uumlaut.alt" horiz-adv-x="774" /><glyph d="M356 -10H280L77 780H153L281 266L328 68L423 266L677 780H753Z" glyph-name="V" horiz-adv-x="720" unicode="V" /><glyph d="M223 -10H162L97 780H170L211 280L214 100L281 280L501 780H569L667 280L693 100L744 280L900 780H973L714 -10H653L557 495L524 690L443 495Z" glyph-name="W" horiz-adv-x="960" unicode="W" /><glyph d="M223 -10H162L97 780H170L211 280V100L281 280L501 780H569L667 280L693 100L744 280L900 780H973L714 -10H653L557 495L524 690L443 495ZM712 1030 575 822H510L630 1030Z" glyph-name="Wacute" horiz-adv-x="960" unicode="&#7810;" /><glyph d="M223 -10H162L97 780H170L211 280V100L281 280L501 780H569L667 280L693 100L744 280L900 780H973L714 -10H653L557 495L524 690L443 495ZM657 822 559 972 423 822H354L530 1030H598L722 822Z" glyph-name="Wcircumflex" horiz-adv-x="960" unicode="&#372;" /><glyph d="M223 -10H162L97 780H170L211 280V100L281 280L501 780H569L667 280L693 100L744 280L900 780H973L714 -10H653L557 495L524 690L443 495ZM498 883H412L422 969H508ZM684 883H598L608 969H694Z" glyph-name="Wdieresis" horiz-adv-x="960" unicode="&#7812;" /><glyph d="M223 -10H162L97 780H170L211 280V100L281 280L501 780H569L667 280L693 100L744 280L900 780H973L714 -10H653L557 495L524 690L443 495ZM502 1030 570 822H505L420 1030Z" glyph-name="Wgrave" horiz-adv-x="960" unicode="&#7808;" /><glyph d="M243 204 83 0H-2L271 342L321 403L287 461L111 780H193L291 600L366 460L475 600L617 780H701L447 461L399 403L622 0H537L427 204L352 345Z" glyph-name="X" horiz-adv-x="700" unicode="X" /><glyph d="M156 780 288 536 363 395 472 536 664 780H745L391 335L350 0H280L321 335L75 780Z" glyph-name="Y" horiz-adv-x="710" unicode="Y" /><glyph d="M156 780 288 536 363 395 472 536 664 780H745L391 335L350 0H280L321 335L75 780ZM587 1030 450 822H385L505 1030Z" glyph-name="Yacute" horiz-adv-x="710" unicode="&#221;" /><glyph d="M156 780 288 536 363 395 472 536 664 780H745L391 335L350 0H280L321 335L75 780ZM532 822 434 972 298 822H229L405 1030H473L597 822Z" glyph-name="Ycircumflex" horiz-adv-x="710" unicode="&#374;" /><glyph d="M156 780 288 536 363 395 472 536 664 780H745L391 335L350 0H280L321 335L75 780ZM373 883H287L297 969H383ZM559 883H473L483 969H569Z" glyph-name="Ydieresis" horiz-adv-x="710" unicode="&#376;" /><glyph d="M156 780 288 536 363 395 472 536 664 780H745L391 335L350 0H280L321 335L75 780ZM387 1030 455 822H390L305 1030Z" glyph-name="Ygrave" horiz-adv-x="710" unicode="&#7922;" /><glyph d="M156 780 288 536 363 395 472 536 664 780H745L391 335L350 0H280L321 335L75 780ZM296 958H568L560 894H288Z" glyph-name="Ymacron" horiz-adv-x="710" unicode="&#562;" /><glyph d="M156 780 288 536 363 395 472 536 664 780H745L391 335L350 0H280L321 335L75 780ZM491 860Q462 862 444 873Q426 884 412.5 897.5Q399 911 386.5 922.5Q374 934 354 935Q332 937 317.5 929Q303 921 295 911Q285 899 280 883L226 891Q234 913 245 932.5Q256 952 273 966Q290 980 313 988Q336 996 366 994Q395 993 413 981.5Q431 970 444.5 956.5Q458 943 470.5 931.5Q483 920 502 919Q525 917 539.5 925Q554 933 562 944Q572 955 577 971L631 963Q623 941 611.5 921.5Q600 902 583.5 888Q567 874 544 866.5Q521 859 491 860Z" glyph-name="Ytilde" horiz-adv-x="710" unicode="&#7928;" /><glyph d="M20 58 503 610 599 714H120L128 780H695L688 722L204 170L108 66H608L600 0H13Z" glyph-name="Z" horiz-adv-x="690" unicode="Z" /><glyph d="M20 58 503 610 599 714H120L128 780H695L688 722L204 170L108 66H608L600 0H13ZM572 1030 435 822H370L490 1030Z" glyph-name="Zacute" horiz-adv-x="690" unicode="&#377;" /><glyph d="M20 58 503 610 599 714H120L128 780H695L688 722L204 170L108 66H608L600 0H13ZM310 1030 408 880 544 1030H613L437 822H369L245 1030Z" glyph-name="Zcaron" horiz-adv-x="690" unicode="&#381;" /><glyph d="M20 58 503 610 599 714H120L128 780H695L688 722L204 170L108 66H608L600 0H13ZM451 883H365L375 969H461Z" glyph-name="Zdotaccent" horiz-adv-x="690" unicode="&#379;" /><glyph d="M538 406 504 124 495 0H435L433 86Q401 41 351.5 15.5Q302 -10 243 -10Q144 -10 91.5 47Q39 104 39 209Q39 281 57.5 341.5Q76 402 111.5 446Q147 490 197.5 515Q248 540 311 540Q370 540 413 514.5Q456 489 477 444L500 530H560ZM463 326Q463 352 454 379Q445 406 425.5 428Q406 450 376.5 463.5Q347 477 305 477Q260 477 224 457.5Q188 438 162.5 403Q137 368 123 321Q109 274 109 218Q109 137 146.5 95Q184 53 253 53Q294 53 327.5 67Q361 81 386.5 103Q412 125 428 152Q444 179 448 204Z" glyph-name="a" horiz-adv-x="604" unicode="a" /><glyph d="M366 574 536 0H462L414 165H141L54 0H-16L294 574ZM173 226H396L374 306L320 509L216 306Z" glyph-name="a.smcp" horiz-adv-x="600" unicode="&#57857;" /><glyph d="M338 596Q337 610 331 623.5Q325 637 313.5 648.5Q302 660 285 667Q268 674 246 674Q197 674 167 633.5Q137 593 137 530Q137 485 158.5 461.5Q180 438 217 438Q239 438 257.5 445Q276 452 290.5 463.5Q305 475 314.5 489Q324 503 328 516ZM382 473 375 390H321L319 438Q301 412 270.5 397Q240 382 205 382Q142 382 109 417Q76 452 76 518Q75 563 86.5 602Q98 641 120.5 669Q143 697 175 713Q207 729 248 729Q283 729 310 715Q337 701 348 675L362 722H416L402 640Z" glyph-name="a.superior" horiz-adv-x="432" unicode="&#58209;" /><glyph d="M489 800 352 592H287L407 800ZM538 406 504 124 495 0H435L433 86Q401 41 351.5 15.5Q302 -10 243 -10Q144 -10 91.5 47Q39 104 39 209Q39 281 57.5 341.5Q76 402 111.5 446Q147 490 197.5 515Q248 540 311 540Q370 540 413 514.5Q456 489 477 444L500 530H560ZM463 326Q463 352 454 379Q445 406 425.5 428Q406 450 376.5 463.5Q347 477 305 477Q260 477 224 457.5Q188 438 162.5 403Q137 368 123 321Q109 274 109 218Q109 137 146.5 95Q184 53 253 53Q294 53 327.5 67Q361 81 386.5 103Q412 125 428 152Q444 179 448 204Z" glyph-name="aacute" horiz-adv-x="604" unicode="&#225;" /><glyph d="M504 800 367 592H302L422 800ZM366 574 536 0H462L414 165H141L54 0H-16L294 574ZM173 226H396L374 306L320 509L216 306Z" glyph-name="aacute.smcp" horiz-adv-x="600" unicode="&#57889;" /><glyph d="M538 406 504 124 495 0H435L433 86Q401 41 351.5 15.5Q302 -10 243 -10Q144 -10 91.5 47Q39 104 39 209Q39 281 57.5 341.5Q76 402 111.5 446Q147 490 197.5 515Q248 540 311 540Q370 540 413 514.5Q456 489 477 444L500 530H560ZM463 326Q463 352 454 379Q445 406 425.5 428Q406 450 376.5 463.5Q347 477 305 477Q260 477 224 457.5Q188 438 162.5 403Q137 368 123 321Q109 274 109 218Q109 137 146.5 95Q184 53 253 53Q294 53 327.5 67Q361 81 386.5 103Q412 125 428 152Q444 179 448 204ZM521 800Q515 753 501.5 716Q488 679 464.5 653.5Q441 628 405 615Q369 602 318 602Q267 602 234.5 615Q202 628 184.5 653.5Q167 679 163 716Q159 753 165 800H219Q209 721 233.5 689.5Q258 658 323 658Q388 658 420.5 689.5Q453 721 463 800Z" glyph-name="abreve" horiz-adv-x="604" unicode="&#259;" /><glyph d="M536 800Q530 753 516.5 716Q503 679 479.5 653.5Q456 628 420 615Q384 602 333 602Q282 602 249.5 615Q217 628 199.5 653.5Q182 679 178 716Q174 753 180 800H236Q226 721 250.5 689.5Q275 658 340 658Q405 658 437.5 689.5Q470 721 480 800ZM366 574 536 0H462L414 165H141L54 0H-16L294 574ZM173 226H396L374 306L320 509L216 306Z" glyph-name="abreve.smcp" horiz-adv-x="600" unicode="&#57897;" /><glyph d="M538 406 504 124 495 0H435L433 86Q401 41 351.5 15.5Q302 -10 243 -10Q144 -10 91.5 47Q39 104 39 209Q39 281 57.5 341.5Q76 402 111.5 446Q147 490 197.5 515Q248 540 311 540Q370 540 413 514.5Q456 489 477 444L500 530H560ZM463 326Q463 352 454 379Q445 406 425.5 428Q406 450 376.5 463.5Q347 477 305 477Q260 477 224 457.5Q188 438 162.5 403Q137 368 123 321Q109 274 109 218Q109 137 146.5 95Q184 53 253 53Q294 53 327.5 67Q361 81 386.5 103Q412 125 428 152Q444 179 448 204ZM224 800 322 650 458 800H527L351 592H283L159 800Z" glyph-name="acaron" horiz-adv-x="604" unicode="&#462;" /><glyph d="M542 800 366 592H298L174 800H241L339 650L475 800ZM366 574 536 0H462L414 165H141L54 0H-16L294 574ZM173 226H396L374 306L320 509L216 306Z" glyph-name="acaron.smcp" horiz-adv-x="600" unicode="&#57895;" /><glyph d="M538 406 504 124 495 0H435L433 86Q401 41 351.5 15.5Q302 -10 243 -10Q144 -10 91.5 47Q39 104 39 209Q39 281 57.5 341.5Q76 402 111.5 446Q147 490 197.5 515Q248 540 311 540Q370 540 413 514.5Q456 489 477 444L500 530H560ZM463 326Q463 352 454 379Q445 406 425.5 428Q406 450 376.5 463.5Q347 477 305 477Q260 477 224 457.5Q188 438 162.5 403Q137 368 123 321Q109 274 109 218Q109 137 146.5 95Q184 53 253 53Q294 53 327.5 67Q361 81 386.5 103Q412 125 428 152Q444 179 448 204ZM436 592 338 742 202 592H133L309 800H377L501 592Z" glyph-name="acircumflex" horiz-adv-x="604" unicode="&#226;" /><glyph d="M449 592 351 742 215 592H148L324 800H392L516 592ZM366 574 536 0H462L414 165H141L54 0H-16L294 574ZM173 226H396L374 306L320 509L216 306Z" glyph-name="acircumflex.smcp" horiz-adv-x="600" unicode="&#57891;" /><glyph d="M504 800 367 592H302L422 800Z" glyph-name="acute" horiz-adv-x="600" unicode="&#180;" /><glyph d="M532 1030 395 822H330L450 1030Z" glyph-name="acute.cap" horiz-adv-x="600" unicode="&#58402;" /><glyph d="M275 653H189L199 739H285ZM461 653H375L385 739H471ZM538 406 504 124 495 0H435L433 86Q401 41 351.5 15.5Q302 -10 243 -10Q144 -10 91.5 47Q39 104 39 209Q39 281 57.5 341.5Q76 402 111.5 446Q147 490 197.5 515Q248 540 311 540Q370 540 413 514.5Q456 489 477 444L500 530H560ZM463 326Q463 352 454 379Q445 406 425.5 428Q406 450 376.5 463.5Q347 477 305 477Q260 477 224 457.5Q188 438 162.5 403Q137 368 123 321Q109 274 109 218Q109 137 146.5 95Q184 53 253 53Q294 53 327.5 67Q361 81 386.5 103Q412 125 428 152Q444 179 448 204Z" glyph-name="adieresis" horiz-adv-x="604" unicode="&#228;" /><glyph d="M290 653H204L214 739H300ZM476 653H390L400 739H486ZM366 574 536 0H462L414 165H141L54 0H-16L294 574ZM173 226H396L374 306L320 509L216 306Z" glyph-name="adieresis.smcp" horiz-adv-x="600" unicode="&#57892;" /><glyph d="M270 613H184L194 699H280ZM456 613H370L380 699H466ZM210 828H482L474 764H202ZM538 406 504 124 495 0H435L433 86Q401 41 351.5 15.5Q302 -10 243 -10Q144 -10 91.5 47Q39 104 39 209Q39 281 57.5 341.5Q76 402 111.5 446Q147 490 197.5 515Q248 540 311 540Q370 540 413 514.5Q456 489 477 444L500 530H560ZM463 326Q463 352 454 379Q445 406 425.5 428Q406 450 376.5 463.5Q347 477 305 477Q260 477 224 457.5Q188 438 162.5 403Q137 368 123 321Q109 274 109 218Q109 137 146.5 95Q184 53 253 53Q294 53 327.5 67Q361 81 386.5 103Q412 125 428 152Q444 179 448 204Z" glyph-name="adieresismacron" horiz-adv-x="604" unicode="&#479;" /><glyph d="M286 623H200L211 709H297ZM472 623H386L397 709H483ZM225 828H497L489 764H217ZM366 574 536 0H462L414 165H141L54 0H-16L294 574ZM173 226H396L374 306L320 509L216 306Z" glyph-name="adieresismacron.smcp" horiz-adv-x="600" unicode="&#57902;" /><glyph d="M538 406 504 124 495 0H435L433 86Q401 41 351.5 15.5Q302 -10 243 -10Q144 -10 91.5 47Q39 104 39 209Q39 281 57.5 341.5Q76 402 111.5 446Q147 490 197.5 515Q248 540 311 540Q370 540 413 514.5Q456 489 477 444L500 530H560ZM463 326Q463 352 454 379Q445 406 425.5 428Q406 450 376.5 463.5Q347 477 305 477Q260 477 224 457.5Q188 438 162.5 403Q137 368 123 321Q109 274 109 218Q109 137 146.5 95Q184 53 253 53Q294 53 327.5 67Q361 81 386.5 103Q412 125 428 152Q444 179 448 204ZM368 653H282L292 739H378Z" glyph-name="adotabove" horiz-adv-x="604" unicode="&#551;" /><glyph d="M383 653H297L307 739H393ZM366 574 536 0H462L414 165H141L54 0H-16L294 574ZM173 226H396L374 306L320 509L216 306Z" glyph-name="adotabove.smcp" horiz-adv-x="600" unicode="&#57900;" /><glyph d="M354 800 422 592H357L272 800ZM214 800 282 592H217L132 800ZM538 406 504 124 495 0H435L433 86Q401 41 351.5 15.5Q302 -10 243 -10Q144 -10 91.5 47Q39 104 39 209Q39 281 57.5 341.5Q76 402 111.5 446Q147 490 197.5 515Q248 540 311 540Q370 540 413 514.5Q456 489 477 444L500 530H560ZM463 326Q463 352 454 379Q445 406 425.5 428Q406 450 376.5 463.5Q347 477 305 477Q260 477 224 457.5Q188 438 162.5 403Q137 368 123 321Q109 274 109 218Q109 137 146.5 95Q184 53 253 53Q294 53 327.5 67Q361 81 386.5 103Q412 125 428 152Q444 179 448 204Z" glyph-name="adoublegrave" horiz-adv-x="604" unicode="&#59170;" /><glyph d="M369 800 437 592H372L287 800ZM229 800 297 592H232L147 800ZM366 574 536 0H462L414 165H141L54 0H-16L294 574ZM173 226H396L374 306L320 509L216 306Z" glyph-name="adoublegrave.smcp" horiz-adv-x="600" unicode="&#57899;" /><glyph d="M309 540Q381 540 428 517Q475 494 493 446Q531 494 583 517Q635 540 701 540Q802 540 849 486.5Q896 433 896 333Q896 317 894.5 291.5Q893 266 888 239H493Q483 147 524.5 99Q566 51 642 51Q710 51 749 77.5Q788 104 803 153L868 130Q857 102 837.5 76.5Q818 51 789.5 31.5Q761 12 722 1Q683 -10 633 -10Q558 -10 507.5 20.5Q457 51 436 113Q411 76 381 52.5Q351 29 319.5 15Q288 1 256 -4.5Q224 -10 195 -10Q110 -10 68.5 23.5Q27 57 27 117Q27 164 45 198Q63 232 94 254Q125 276 168 287Q211 298 260 298H430L437 356Q445 424 408 451.5Q371 479 294 479Q226 479 191 451.5Q156 424 139 377L74 400Q85 429 104.5 454Q124 479 152.5 498.5Q181 518 220 529Q259 540 309 540ZM693 480Q620 480 568.5 437.5Q517 395 500 298H823Q828 337 823.5 370.5Q819 404 803.5 428.5Q788 453 760.5 466.5Q733 480 693 480ZM252 240Q221 240 193 234Q165 228 144 214.5Q123 201 110.5 179.5Q98 158 98 126Q98 88 125 70Q152 52 203 52Q245 52 282.5 66Q320 80 349 102.5Q378 125 396.5 152Q415 179 419 204L423 239Z" glyph-name="ae" horiz-adv-x="954" unicode="&#230;" /><glyph d="M374 165H160L55 0H-20L350 564H780L772 500H419L431 324H693L685 260H436L449 64H700L693 0H385ZM199 226H369L354 466Z" glyph-name="ae.smcp" horiz-adv-x="821" unicode="&#57905;" /><glyph d="M680 800 543 592H478L598 800ZM309 540Q381 540 428 517Q475 494 493 446Q531 494 583 517Q635 540 701 540Q802 540 849 486.5Q896 433 896 333Q896 317 894.5 291.5Q893 266 888 239H493Q483 147 524.5 99Q566 51 642 51Q710 51 749 77.5Q788 104 803 153L868 130Q857 102 837.5 76.5Q818 51 789.5 31.5Q761 12 722 1Q683 -10 633 -10Q558 -10 507.5 20.5Q457 51 436 113Q411 76 381 52.5Q351 29 319.5 15Q288 1 256 -4.5Q224 -10 195 -10Q110 -10 68.5 23.5Q27 57 27 117Q27 164 45 198Q63 232 94 254Q125 276 168 287Q211 298 260 298H430L437 356Q445 424 408 451.5Q371 479 294 479Q226 479 191 451.5Q156 424 139 377L74 400Q85 429 104.5 454Q124 479 152.5 498.5Q181 518 220 529Q259 540 309 540ZM693 480Q620 480 568.5 437.5Q517 395 500 298H823Q828 337 823.5 370.5Q819 404 803.5 428.5Q788 453 760.5 466.5Q733 480 693 480ZM252 240Q221 240 193 234Q165 228 144 214.5Q123 201 110.5 179.5Q98 158 98 126Q98 88 125 70Q152 52 203 52Q245 52 282.5 66Q320 80 349 102.5Q378 125 396.5 152Q415 179 419 204L423 239Z" glyph-name="aeacute" horiz-adv-x="954" unicode="&#509;" /><glyph d="M374 165H160L55 0H-20L350 564H780L772 500H419L431 324H693L685 260H436L449 64H700L693 0H385ZM199 226H369L354 466ZM567 800 430 592H365L485 800Z" glyph-name="aeacute.smcp" horiz-adv-x="821" unicode="&#63012;" /><glyph d="M389 728H661L653 664H381ZM309 540Q381 540 428 517Q475 494 493 446Q531 494 583 517Q635 540 701 540Q802 540 849 486.5Q896 433 896 333Q896 317 894.5 291.5Q893 266 888 239H493Q483 147 524.5 99Q566 51 642 51Q710 51 749 77.5Q788 104 803 153L868 130Q857 102 837.5 76.5Q818 51 789.5 31.5Q761 12 722 1Q683 -10 633 -10Q558 -10 507.5 20.5Q457 51 436 113Q411 76 381 52.5Q351 29 319.5 15Q288 1 256 -4.5Q224 -10 195 -10Q110 -10 68.5 23.5Q27 57 27 117Q27 164 45 198Q63 232 94 254Q125 276 168 287Q211 298 260 298H430L437 356Q445 424 408 451.5Q371 479 294 479Q226 479 191 451.5Q156 424 139 377L74 400Q85 429 104.5 454Q124 479 152.5 498.5Q181 518 220 529Q259 540 309 540ZM693 480Q620 480 568.5 437.5Q517 395 500 298H823Q828 337 823.5 370.5Q819 404 803.5 428.5Q788 453 760.5 466.5Q733 480 693 480ZM252 240Q221 240 193 234Q165 228 144 214.5Q123 201 110.5 179.5Q98 158 98 126Q98 88 125 70Q152 52 203 52Q245 52 282.5 66Q320 80 349 102.5Q378 125 396.5 152Q415 179 419 204L423 239Z" glyph-name="aemacron" horiz-adv-x="954" unicode="&#483;" /><glyph d="M374 165H160L55 0H-20L350 564H780L772 500H419L431 324H693L685 260H436L449 64H700L693 0H385ZM199 226H369L354 466ZM276 728H548L540 664H268Z" glyph-name="aemacron.smcp" horiz-adv-x="821" unicode="&#57907;" /><glyph d="M378 790H454L659 0H582L520 247H180L58 0H-19ZM312 514 212 313H503L454 514L407 712Z" glyph-name="afii10017" horiz-adv-x="720" unicode="&#1040;" /><glyph d="M207 714 172 428H417Q458 428 495.5 421Q533 414 561.5 395Q590 376 607 343Q624 310 624 258Q624 177 601 127Q578 77 541 48.5Q504 20 458 10Q412 0 365 0H50L145 780H625L617 714ZM164 362 128 66H364Q389 66 420.5 70Q452 74 480.5 91.5Q509 109 528.5 145Q548 181 548 245Q548 287 533.5 310.5Q519 334 497 345.5Q475 357 449 359.5Q423 362 400 362Z" glyph-name="afii10018" horiz-adv-x="695" unicode="&#1041;" /><glyph d="M50 0 145 780H454Q485 780 518 773Q551 766 578.5 747.5Q606 729 623.5 696.5Q641 664 641 614Q641 563 628 525.5Q615 488 595.5 463Q576 438 554 424Q532 410 514 405Q536 401 555.5 389.5Q575 378 590 359Q605 340 614 313Q623 286 623 250Q623 172 599.5 123Q576 74 539 47Q502 20 456 10Q410 0 365 0ZM364 66Q390 66 421.5 70Q453 74 481.5 92Q510 110 529 146.5Q548 183 548 248Q548 288 535 311.5Q522 335 502 347.5Q482 360 456.5 363.5Q431 367 406 367H165L128 66ZM207 714 173 433H401Q436 433 465.5 440.5Q495 448 517.5 467.5Q540 487 552.5 521.5Q565 556 565 611Q565 643 556 663Q547 683 530.5 694Q514 705 489.5 709.5Q465 714 435 714Z" glyph-name="afii10019" horiz-adv-x="695" unicode="&#1042;" /><glyph d="M120 0H50L145 780H625L617 714H207Z" glyph-name="afii10020" horiz-adv-x="585" unicode="&#1043;" /><glyph d="M628 66H699L671 -160H600L620 0H61L41 -160H-30L-2 66H8Q59 66 98 95Q137 124 169 181Q201 238 229.5 323Q258 408 286 520L353 780H715ZM344 465Q321 380 299.5 314.5Q278 249 255.5 201Q233 153 207 120Q181 87 149 66H558L637 714H410Z" glyph-name="afii10021" horiz-adv-x="770" unicode="&#1044;" /><glyph d="M665 780 657 714H207L173 433H583L575 367H165L128 66H598L590 0H50L145 780Z" glyph-name="afii10022" horiz-adv-x="695" unicode="&#1045;" /><glyph d="M665 780 657 714H207L173 433H583L575 367H165L128 66H598L590 0H50L145 780ZM368 883H282L292 969H378ZM554 883H468L478 969H564Z" glyph-name="afii10023" horiz-adv-x="695" unicode="&#1025;" /><glyph d="M788 492Q771 469 746.5 443Q722 417 687 400Q720 383 738.5 357Q757 331 768 308L918 0H835L704 282Q686 323 663.5 345Q641 367 592 367H530L485 0H415L460 367H398Q349 367 321 345Q293 323 264 282L65 0H-18L206 308Q223 331 248 357Q273 383 311 400Q279 417 261 443Q243 469 232 492L92 780H175L296 518Q314 478 337 455.5Q360 433 409 433H468L510 780H580L538 433H597Q646 433 674 455.5Q702 478 730 518L915 780H998Z" glyph-name="afii10024" horiz-adv-x="980" unicode="&#1046;" /><glyph d="M615 240Q615 177 591.5 130.5Q568 84 525 52.5Q482 21 421 5.5Q360 -10 285 -10Q219 -10 173 3.5Q127 17 97 40.5Q67 64 51.5 97Q36 130 31 169L100 193Q102 121 147.5 86Q193 51 293 51Q351 51 398 62Q445 73 478 95.5Q511 118 528.5 154Q546 190 546 239Q546 284 527.5 309.5Q509 335 479.5 347.5Q450 360 413.5 363.5Q377 367 341 367H238L246 433H349Q388 433 426.5 438Q465 443 495.5 461Q526 479 544.5 513Q563 547 563 605Q563 670 515.5 698.5Q468 727 389 727Q287 727 234 694.5Q181 662 161 588L97 610Q111 649 133.5 682Q156 715 191 739Q226 763 274.5 776.5Q323 790 388 790Q438 790 482.5 780Q527 770 560.5 748.5Q594 727 613.5 693.5Q633 660 633 612Q633 559 618 521.5Q603 484 579.5 459Q556 434 527 421Q498 408 470 405Q494 402 520 391Q546 380 567 359.5Q588 339 601.5 309.5Q615 280 615 240Z" glyph-name="afii10025" horiz-adv-x="682" unicode="&#1047;" /><glyph d="M524 515 113 0H50L145 780H216L168 390L132 123L241 265L652 780H715L620 0H549L596 390L633 657Z" glyph-name="afii10026" horiz-adv-x="750" unicode="&#1048;" /><glyph d="M524 515 113 0H50L145 780H216L168 390L132 123L241 265L652 780H715L620 0H549L596 390L633 657ZM639 1030Q633 983 620 946Q607 909 583 883.5Q559 858 523.5 845Q488 832 437 832Q386 832 353.5 845Q321 858 303 883.5Q285 909 281 946Q277 983 283 1030H344Q334 951 356.5 919.5Q379 888 444 888Q509 888 538.5 919.5Q568 951 578 1030Z" glyph-name="afii10027" horiz-adv-x="750" unicode="&#1049;" /><glyph d="M503 492Q486 469 461.5 443Q437 417 402 400Q435 383 453.5 357Q472 331 483 308L633 0H550L419 282Q401 323 378.5 345Q356 367 307 367H165L120 0H50L145 780H215L173 433H312Q361 433 389 455.5Q417 478 445 518L630 780H713Z" glyph-name="afii10028" horiz-adv-x="695" unicode="&#1050;" /><glyph d="M620 0H550L637 714H409L361 530Q327 403 292.5 304.5Q258 206 216.5 138.5Q175 71 123 35.5Q71 0 2 0H-8L-2 66H8Q59 66 98 95Q137 124 169 181Q201 238 229.5 323Q258 408 286 520L353 780H715Z" glyph-name="afii10029" horiz-adv-x="770" unicode="&#1051;" /><glyph d="M230 483 190 624 153 290 118 0H50L145 780H206L373 265L425 76L523 265L816 780H877L782 0H714L749 290L795 630L720 483L449 0H383Z" glyph-name="afii10030" horiz-adv-x="912" unicode="&#1052;" /><glyph d="M715 780 620 0H550L595 367H165L120 0H50L145 780H215L173 433H603L645 780Z" glyph-name="afii10031" horiz-adv-x="750" unicode="&#1053;" /><glyph d="M353 -10Q278 -10 224 11.5Q170 33 135 73Q100 113 83 170Q66 227 66 298Q66 399 89 488.5Q112 578 159.5 645Q207 712 279.5 751Q352 790 451 790Q526 790 580 768.5Q634 747 669.5 707.5Q705 668 721.5 611Q738 554 738 482Q738 381 715 291.5Q692 202 644.5 135Q597 68 524.5 29Q452 -10 353 -10ZM444 725Q356 725 297.5 687.5Q239 650 204 589.5Q169 529 154.5 453.5Q140 378 140 302Q140 250 151 204.5Q162 159 187.5 126Q213 93 255.5 74Q298 55 361 55Q449 55 507.5 92.5Q566 130 600.5 190.5Q635 251 649.5 327Q664 403 664 479Q664 531 653.5 576Q643 621 617.5 654Q592 687 549.5 706Q507 725 444 725Z" glyph-name="afii10032" horiz-adv-x="790" unicode="&#1054;" /><glyph d="M620 0H550L637 714H207L120 0H50L145 780H715Z" glyph-name="afii10033" horiz-adv-x="750" unicode="&#1055;" /><glyph d="M386 402Q416 402 448 410Q480 418 506.5 439Q533 460 550 497Q567 534 567 591Q567 632 553.5 656.5Q540 681 519 694Q498 707 472.5 710.5Q447 714 424 714H207L169 402ZM120 0H50L145 780H421Q463 780 502.5 772Q542 764 573.5 743Q605 722 624 687Q643 652 643 598Q643 525 618.5 475Q594 425 555 394Q516 363 466.5 349.5Q417 336 367 336H161Z" glyph-name="afii10034" horiz-adv-x="650" unicode="&#1056;" /><glyph d="M646 580Q640 655 593 690Q546 725 444 725Q358 725 299.5 689Q241 653 205.5 594Q170 535 155 458.5Q140 382 140 302Q140 250 151 204.5Q162 159 187.5 126Q213 93 255.5 74Q298 55 361 55Q463 55 519 90Q575 125 599 200L664 177Q649 136 624 101.5Q599 67 561 42.5Q523 18 472 4Q421 -10 353 -10Q278 -10 224 11.5Q170 33 135 73Q100 113 83 170Q66 227 66 298Q66 409 91 500Q116 591 164.5 655.5Q213 720 285 755Q357 790 451 790Q518 790 566 776.5Q614 763 645.5 738Q677 713 694 679Q711 645 716 604Z" glyph-name="afii10035" horiz-adv-x="750" unicode="&#1057;" /><glyph d="M305 0H235L322 714H72L80 780H650L642 714H392Z" glyph-name="afii10036" horiz-adv-x="620" unicode="&#1058;" /><glyph d="M124 53Q172 53 202 85.5Q232 118 260 168L291 222L106 780H179L334 298L607 780H684L324 148Q308 119 289 91Q270 63 246 40.5Q222 18 191 4Q160 -10 119 -10Q81 -10 55.5 -4Q30 2 18 8L34 72Q42 68 66.5 60.5Q91 53 124 53Z" glyph-name="afii10037" horiz-adv-x="650" unicode="&#1059;" /><glyph d="M344 115Q208 115 132 176.5Q56 238 56 350Q56 425 82 483.5Q108 542 155 582.5Q202 623 267 644Q332 665 411 665L425 780H495L481 665Q617 665 693 603.5Q769 542 769 430Q769 355 743 296.5Q717 238 670 197.5Q623 157 558 136Q493 115 414 115L400 0H330ZM422 180Q550 180 622.5 240Q695 300 695 429Q695 518 638.5 559Q582 600 473 600ZM403 600Q275 600 202.5 540Q130 480 130 351Q130 262 186.5 221Q243 180 352 180Z" glyph-name="afii10038" horiz-adv-x="810" unicode="&#1060;" /><glyph d="M243 204 83 0H-2L271 342L321 403L287 461L111 780H193L291 600L366 460L475 600L617 780H701L447 461L399 403L433 342L622 0H537L427 204L352 345Z" glyph-name="afii10039" horiz-adv-x="700" unicode="&#1061;" /><glyph d="M145 780H215L128 66H558L645 780H715L628 66H699L671 -160H600L620 0H50Z" glyph-name="afii10040" horiz-adv-x="770" unicode="&#1062;" /><glyph d="M560 0H490L533 353Q497 326 437.5 306.5Q378 287 306 287Q254 287 210.5 299Q167 311 137 334.5Q107 358 92 391.5Q77 425 82 468L120 780H190L154 481Q146 417 187.5 383.5Q229 350 313 350Q356 350 392.5 358Q429 366 458.5 379Q488 392 509.5 407Q531 422 543 435L585 780H655Z" glyph-name="afii10041" horiz-adv-x="690" unicode="&#1063;" /><glyph d="M503 66H808L895 780H965L870 0H50L145 780H215L128 66H433L520 780H590Z" glyph-name="afii10042" horiz-adv-x="1000" unicode="&#1064;" /><glyph d="M503 66H808L895 780H965L878 66H949L921 -160H850L870 0H50L145 780H215L128 66H433L520 780H590Z" glyph-name="afii10043" horiz-adv-x="1020" unicode="&#1065;" /><glyph d="M325 780 282 428H527Q568 428 605.5 421Q643 414 671.5 395Q700 376 717 343Q734 310 734 258Q734 177 711 127Q688 77 651 48.5Q614 20 568 10Q522 0 475 0H160L247 714H72L80 780ZM274 362 238 66H474Q499 66 530.5 70Q562 74 590.5 91.5Q619 109 638.5 145Q658 181 658 245Q658 287 643.5 310.5Q629 334 607 345.5Q585 357 559 359.5Q533 362 510 362Z" glyph-name="afii10044" horiz-adv-x="805" unicode="&#1066;" /><glyph d="M215 780 172 428H417Q458 428 495.5 421Q533 414 561.5 395Q590 376 607 343Q624 310 624 258Q624 177 601 127Q578 77 541 48.5Q504 20 458 10Q412 0 365 0H50L145 780ZM164 362 128 66H364Q389 66 420.5 70Q452 74 480.5 91.5Q509 109 528.5 145Q548 181 548 245Q548 287 533.5 310.5Q519 334 497 345.5Q475 357 449 359.5Q423 362 400 362ZM760 0H690L785 780H855Z" glyph-name="afii10045" horiz-adv-x="910" unicode="&#1067;" /><glyph d="M215 780 172 428H417Q458 428 495.5 421Q533 414 561.5 395Q590 376 607 343Q624 310 624 258Q624 177 601 127Q578 77 541 48.5Q504 20 458 10Q412 0 365 0H50L145 780ZM164 362 128 66H364Q389 66 420.5 70Q452 74 480.5 91.5Q509 109 528.5 145Q548 181 548 245Q548 287 533.5 310.5Q519 334 497 345.5Q475 357 449 359.5Q423 362 400 362Z" glyph-name="afii10046" horiz-adv-x="695" unicode="&#1068;" /><glyph d="M404 725Q302 725 246 690Q190 655 166 580L99 603Q114 644 139.5 678.5Q165 713 203 737.5Q241 762 292.5 776Q344 790 411 790Q486 790 540 768.5Q594 747 629 707Q664 667 681 610Q698 553 698 482Q698 371 673 280.5Q648 190 599.5 125.5Q551 61 479 25.5Q407 -10 313 -10Q246 -10 198 3.5Q150 17 118.5 42Q87 67 70 101Q53 135 48 175L119 200Q125 125 172 90Q219 55 321 55Q394 55 445.5 80Q497 105 531.5 147.5Q566 190 586 246.5Q606 303 615 367H185L193 433H623Q624 444 624 454Q624 464 624 475Q624 528 613.5 573.5Q603 619 577.5 653Q552 687 510 706Q468 725 404 725Z" glyph-name="afii10047" horiz-adv-x="750" unicode="&#1069;" /><glyph d="M603 -10Q528 -10 474 11.5Q420 33 385 73Q350 113 333 170Q316 227 316 298Q316 315 316 332.5Q316 350 318 367H165L120 0H50L145 780H215L173 433H327Q341 510 370 575.5Q399 641 445.5 688.5Q492 736 555.5 763Q619 790 701 790Q776 790 830 768.5Q884 747 919.5 707.5Q955 668 971.5 611Q988 554 988 482Q988 381 965 291.5Q942 202 894.5 135Q847 68 774.5 29Q702 -10 603 -10ZM694 725Q606 725 547.5 687.5Q489 650 454 589.5Q419 529 404.5 453.5Q390 378 390 302Q390 250 401 204.5Q412 159 437.5 126Q463 93 505.5 74Q548 55 611 55Q699 55 757.5 92.5Q816 130 850.5 190.5Q885 251 899.5 327Q914 403 914 479Q914 531 903.5 576Q893 621 867.5 654Q842 687 799.5 706Q757 725 694 725Z" glyph-name="afii10048" horiz-adv-x="1040" unicode="&#1070;" /><glyph d="M202 288Q213 302 226.5 318.5Q240 335 258 349Q224 353 193.5 364Q163 375 139.5 395.5Q116 416 102.5 448Q89 480 89 525Q89 605 114 654.5Q139 704 178 732Q217 760 265 770Q313 780 360 780H660L565 0H495L537 347H398Q373 347 354.5 341.5Q336 336 321 325Q306 314 292.5 298Q279 282 265 262L80 0H-8ZM545 413 582 714H343Q318 714 287 709.5Q256 705 229 687Q202 669 183.5 632Q165 595 165 530Q165 489 178.5 465.5Q192 442 212.5 430.5Q233 419 258 416Q283 413 306 413Z" glyph-name="afii10049" horiz-adv-x="695" unicode="&#1071;" /><glyph d="M617 714H207L120 0H50L145 780H554L574 940H645Z" glyph-name="afii10050" horiz-adv-x="585" unicode="&#1168;" /><glyph d="M300 372Q311 384 328 396.5Q345 409 369 419.5Q393 430 424 436.5Q455 443 494 443Q594 443 645.5 390.5Q697 338 697 241Q697 178 679 130.5Q661 83 628 52Q595 21 550 5.5Q505 -10 451 -10Q437 -10 421.5 -8Q406 -6 395 -2L412 67Q417 65 429.5 61.5Q442 58 460 58Q532 58 577.5 106Q623 154 623 242Q623 305 588 340.5Q553 376 480 376Q434 376 399.5 365.5Q365 355 341 338.5Q317 322 303.5 302.5Q290 283 287 266L255 0H185L272 714H72L80 780H550L542 714H342Z" glyph-name="afii10051" horiz-adv-x="733" unicode="&#1026;" /><glyph d="M120 0H50L145 780H625L617 714H207ZM557 1030 420 822H355L475 1030Z" glyph-name="afii10052" horiz-adv-x="585" unicode="&#1027;" /><glyph d="M444 725Q374 725 323.5 702Q273 679 238.5 639.5Q204 600 183.5 546.5Q163 493 153 433H583L575 367H144Q141 333 141 301Q141 249 151.5 204Q162 159 187.5 126Q213 93 255.5 74Q298 55 361 55Q463 55 519 90Q575 125 599 200L664 177Q649 136 624 101.5Q599 67 561 42.5Q523 18 472 4Q421 -10 353 -10Q278 -10 224 11.5Q170 33 134.5 72.5Q99 112 82.5 169Q66 226 66 298Q66 409 91 500Q116 591 164.5 655.5Q213 720 285 755Q357 790 451 790Q518 790 566 776Q614 762 645.5 737.5Q677 713 694 679Q711 645 716 604L646 580Q640 655 593 690Q546 725 444 725Z" glyph-name="afii10053" horiz-adv-x="750" unicode="&#1028;" /><glyph d="M602 588Q596 660 551 692.5Q506 725 405 725Q377 725 341 717.5Q305 710 273 691Q241 672 218.5 639Q196 606 196 554Q196 531 204.5 513Q213 495 233 481.5Q253 468 287 458.5Q321 449 373 443Q433 436 481 425.5Q529 415 562 395Q595 375 613 343Q631 311 631 261Q631 193 604.5 142Q578 91 534 57.5Q490 24 432.5 7Q375 -10 313 -10Q246 -10 198.5 3.5Q151 17 119.5 41Q88 65 71 99Q54 133 49 173L120 198Q126 123 172.5 89Q219 55 321 55Q364 55 406.5 66Q449 77 483.5 100Q518 123 539.5 160Q561 197 561 249Q561 278 550.5 299.5Q540 321 517 336.5Q494 352 456 362.5Q418 373 363 379Q317 384 274 393.5Q231 403 197.5 422Q164 441 144 471Q124 501 124 548Q124 609 148 654.5Q172 700 212 730Q252 760 304 775Q356 790 412 790Q479 790 526 776.5Q573 763 603.5 739.5Q634 716 650.5 683.5Q667 651 672 612Z" glyph-name="afii10054" horiz-adv-x="710" unicode="&#1029;" /><glyph d="M140 0H70L165 780H235Z" glyph-name="afii10055" horiz-adv-x="290" unicode="&#1030;" /><glyph d="M140 0H70L165 780H235ZM163 883H77L87 969H173ZM349 883H263L273 969H359Z" glyph-name="afii10056" horiz-adv-x="290" unicode="&#1031;" /><glyph d="M477 780 407 210Q401 162 383 121.5Q365 81 335.5 51.5Q306 22 266 6Q226 -10 176 -10Q125 -10 91 2Q57 14 36.5 34Q16 54 7 81Q-2 108 -3 139L69 164Q66 112 92.5 82.5Q119 53 184 55Q317 59 335 199L406 780Z" glyph-name="afii10057" horiz-adv-x="507" unicode="&#1032;" /><glyph d="M672 428H917Q958 428 995.5 421Q1033 414 1061.5 395Q1090 376 1107 343Q1124 310 1124 258Q1124 177 1101 127Q1078 77 1041 48.5Q1004 20 958 10Q912 0 865 0H550L637 714H409L361 530Q328 403 293.5 304Q259 205 217 137.5Q175 70 122.5 35Q70 0 2 0H-8L-2 66H8Q59 66 98 95Q137 124 169 181Q201 238 229 323Q257 408 286 520L353 780H715ZM628 66H864Q889 66 920.5 70Q952 74 980.5 91.5Q1009 109 1028.5 145Q1048 181 1048 245Q1048 287 1033.5 310.5Q1019 334 997 345.5Q975 357 949 359.5Q923 362 900 362H664Z" glyph-name="afii10058" horiz-adv-x="1173" unicode="&#1033;" /><glyph d="M672 428H917Q958 428 995.5 421Q1033 414 1061.5 395Q1090 376 1107 343Q1124 310 1124 258Q1124 177 1101 127Q1078 77 1041 48.5Q1004 20 958 10Q912 0 865 0H550L594 362H164L120 0H50L145 780H215L172 428H602L645 780H715ZM628 66H864Q889 66 920.5 70Q952 74 980.5 91.5Q1009 109 1028.5 145Q1048 181 1048 245Q1048 287 1033.5 310.5Q1019 334 997 345.5Q975 357 949 359.5Q923 362 900 362H664Z" glyph-name="afii10059" horiz-adv-x="1173" unicode="&#1034;" /><glyph d="M272 714H72L80 780H550L542 714H342L297 348Q329 392 379.5 417.5Q430 443 490 443Q531 443 565.5 431.5Q600 420 623.5 398.5Q647 377 658.5 345.5Q670 314 665 273L632 0H561L592 258Q600 318 567.5 346.5Q535 375 472 375Q435 375 402.5 361.5Q370 348 344.5 327Q319 306 303 280Q287 254 283 229L255 0H185Z" glyph-name="afii10060" horiz-adv-x="733" unicode="&#1035;" /><glyph d="M577 1030 440 822H375L495 1030ZM503 492Q486 469 461.5 443Q437 417 402 400Q435 383 453.5 357Q472 331 483 308L633 0H550L419 282Q401 323 378.5 345Q356 367 307 367H165L120 0H50L145 780H215L173 433H312Q361 433 389 455.5Q417 478 445 518L630 780H713Z" glyph-name="afii10061" horiz-adv-x="695" unicode="&#1036;" /><glyph d="M124 53Q172 53 202 85.5Q232 118 260 168L291 222L106 780H179L334 298L607 780H684L324 148Q308 119 289 91Q270 63 246 40.5Q222 18 191 4Q160 -10 119 -10Q81 -10 55.5 -4Q30 2 18 8L34 72Q42 68 66.5 60.5Q91 53 124 53ZM605 1030Q599 983 586 946Q573 909 549 883.5Q525 858 489.5 845Q454 832 403 832Q352 832 319.5 845Q287 858 269 883.5Q251 909 247 946Q243 983 249 1030H310Q300 951 322.5 919.5Q345 888 410 888Q475 888 504.5 919.5Q534 951 544 1030Z" glyph-name="afii10062" horiz-adv-x="650" unicode="&#1038;" /><glyph d="M538 406 504 124 495 0H435L433 86Q401 41 351.5 15.5Q302 -10 243 -10Q144 -10 91.5 47Q39 104 39 209Q39 281 57.5 341.5Q76 402 111.5 446Q147 490 197.5 515Q248 540 311 540Q370 540 413 514.5Q456 489 477 444L500 530H560ZM463 326Q463 352 454 379Q445 406 425.5 428Q406 450 376.5 463.5Q347 477 305 477Q260 477 224 457.5Q188 438 162.5 403Q137 368 123 321Q109 274 109 218Q109 137 146.5 95Q184 53 253 53Q294 53 327.5 67Q361 81 386.5 103Q412 125 428 152Q444 179 448 204Z" glyph-name="afii10065" horiz-adv-x="604" unicode="&#1072;" /><glyph d="M366 574 536 0H462L414 165H141L54 0H-16L294 574ZM173 226H396L374 306L320 509L216 306Z" glyph-name="afii10065.smcp" horiz-adv-x="600" /><glyph d="M249 -10Q150 -10 95 43.5Q40 97 40 206Q40 220 41.5 237Q43 254 45 270Q59 384 80 463Q101 542 127 595Q153 648 184 679Q215 710 249 726.5Q283 743 320.5 749.5Q358 756 396 760Q430 764 455.5 767.5Q481 771 502 775.5Q523 780 542.5 786Q562 792 584 800L575 732Q538 717 499 708Q460 699 400 693Q348 688 307 677Q266 666 234.5 640Q203 614 179 568Q155 522 137 447Q207 540 317 540Q415 540 470.5 486.5Q526 433 526 324Q526 240 505 177.5Q484 115 446.5 73Q409 31 358.5 10.5Q308 -10 249 -10ZM309 478Q267 478 231 463Q195 448 168 416Q141 384 125.5 334Q110 284 110 214Q110 129 149 90.5Q188 52 257 52Q298 52 334.5 67Q371 82 398 114Q425 146 440.5 196Q456 246 456 316Q456 401 417 439.5Q378 478 309 478Z" glyph-name="afii10066" horiz-adv-x="580" unicode="&#1073;" /><glyph d="M157 324H358Q393 324 425.5 318.5Q458 313 483.5 298.5Q509 284 524.5 258Q540 232 540 191Q540 131 520 94Q500 57 468 36Q436 15 397 7.5Q358 0 319 0H50L119 564H529L521 500H179ZM342 64Q363 64 385 68Q407 72 425.5 84.5Q444 97 456 120Q468 143 468 181Q468 207 459 222.5Q450 238 436 246Q422 254 403.5 257Q385 260 366 260H149L125 64Z" glyph-name="afii10066.smcp" horiz-adv-x="596" /><glyph d="M40 0 105 530H350Q375 530 403 526Q431 522 454 509.5Q477 497 492.5 473.5Q508 450 508 412Q508 378 498 354.5Q488 331 473 315Q458 299 440 291Q422 283 405 280Q439 277 466.5 251Q494 225 494 173Q494 118 474.5 84Q455 50 424 31.5Q393 13 355 6.5Q317 0 280 0ZM289 61Q319 61 344 66Q369 71 387 83Q405 95 415 116Q425 137 425 169Q425 213 396 229Q367 245 319 245H136L113 61ZM163 467 143 304H313Q376 304 408 328Q440 352 440 404Q440 439 415 453Q390 467 333 467Z" glyph-name="afii10067" horiz-adv-x="565" unicode="&#1074;" /><glyph d="M50 0 119 564H394Q423 564 451 558.5Q479 553 501 539Q523 525 537 501Q551 477 551 439Q551 403 541 377.5Q531 352 515.5 334.5Q500 317 482 308.5Q464 300 447 298Q482 295 508.5 267Q535 239 535 185Q535 130 515.5 94Q496 58 465 37Q434 16 396 8Q358 0 320 0ZM329 63Q359 63 384 68.5Q409 74 427 87.5Q445 101 455 123.5Q465 146 465 180Q465 225 437 243.5Q409 262 361 262H150L125 63ZM179 499 157 323H355Q482 323 482 434Q482 470 458 484.5Q434 499 377 499Z" glyph-name="afii10067.smcp" horiz-adv-x="605" /><glyph d="M261 245Q222 239 190.5 234.5Q159 230 136.5 220Q114 210 102 191.5Q90 173 90 139Q90 113 103.5 96Q117 79 139 69Q161 59 188 55Q215 51 242 51Q310 51 345 78.5Q380 106 397 153L462 130Q451 102 433 76.5Q415 51 387 31.5Q359 12 320 1Q281 -10 227 -10Q188 -10 151 -2.5Q114 5 85 22.5Q56 40 38 67Q20 94 20 133Q20 190 43.5 222Q67 254 102.5 271Q138 288 179.5 294.5Q221 301 257 306Q291 311 319 315.5Q347 320 367.5 329Q388 338 399.5 354Q411 370 411 399Q411 425 399 440.5Q387 456 368 464.5Q349 473 327 476Q305 479 284 479Q221 479 185.5 452Q150 425 133 377L68 399Q80 431 98.5 456.5Q117 482 144 501Q171 520 209 530Q247 540 298 540Q330 540 362.5 533Q395 526 421 509.5Q447 493 463 467.5Q479 442 479 404Q479 353 456 323Q433 293 399.5 277.5Q366 262 328.5 256Q291 250 261 245Z" glyph-name="afii10068" horiz-adv-x="530" unicode="&#1075;" /><glyph d="M118 0H50L119 564H489L481 500H179Z" glyph-name="afii10068.smcp" horiz-adv-x="490" /><glyph d="M249 -10Q150 -10 95 43.5Q40 97 40 206Q40 290 61 352.5Q82 415 119.5 456.5Q157 498 207.5 519Q258 540 317 540Q427 540 473 447Q473 523 466.5 579.5Q460 636 439.5 673Q419 710 380 728.5Q341 747 276 747Q244 747 200 736Q156 725 118 708L127 774Q164 791 204.5 800.5Q245 810 293 810Q350 810 395 796.5Q440 783 471.5 747Q503 711 520 647.5Q537 584 537 485Q537 393 522 265Q505 126 432.5 58Q360 -10 249 -10ZM309 478Q267 478 231 463Q195 448 168 416Q141 384 125.5 334Q110 284 110 214Q110 129 149 90.5Q188 52 257 52Q298 52 334.5 67Q371 82 398 114Q425 146 440.5 196Q456 246 456 316Q456 401 417 439.5Q378 478 309 478Z" glyph-name="afii10069" horiz-adv-x="578" unicode="&#1076;" /><glyph d="M7 64H37Q73 64 99.5 77Q126 90 147 118Q168 146 185.5 189.5Q203 233 220 294L296 564H622L560 64H628L601 -160H533L553 0H68L48 -160H-20ZM288 303Q260 202 232 146.5Q204 91 165 64H492L546 500H343Z" glyph-name="afii10069.smcp" horiz-adv-x="710" /><glyph d="M484 130Q473 102 453.5 76.5Q434 51 405.5 31.5Q377 12 338 1Q299 -10 249 -10Q150 -10 94 44Q38 98 38 207Q38 283 58 344.5Q78 406 114.5 449.5Q151 493 202.5 516.5Q254 540 317 540Q418 540 465 486.5Q512 433 512 333Q512 317 510.5 293.5Q509 270 504 239H109Q99 147 140.5 99Q182 51 258 51Q326 51 365 77.5Q404 104 419 153ZM314 480Q240 480 186.5 438.5Q133 397 116 298H439Q444 336 440 369Q436 402 421 427Q406 452 379.5 466Q353 480 314 480Z" glyph-name="afii10070" horiz-adv-x="570" unicode="&#1077;" /><glyph d="M529 564 521 500H179L157 324H461L453 260H149L125 64H487L480 0H50L119 564Z" glyph-name="afii10070.smcp" horiz-adv-x="590" /><glyph d="M281 653H195L205 739H291ZM467 653H381L391 739H477ZM484 130Q473 102 453.5 76.5Q434 51 405.5 31.5Q377 12 338 1Q299 -10 249 -10Q150 -10 94 44Q38 98 38 207Q38 283 58 344.5Q78 406 114.5 449.5Q151 493 202.5 516.5Q254 540 317 540Q418 540 465 486.5Q512 433 512 333Q512 317 510.5 293.5Q509 270 504 239H109Q99 147 140.5 99Q182 51 258 51Q326 51 365 77.5Q404 104 419 153ZM314 480Q240 480 186.5 438.5Q133 397 116 298H439Q444 336 440 369Q436 402 421 427Q406 452 379.5 466Q353 480 314 480Z" glyph-name="afii10071" horiz-adv-x="570" unicode="&#1105;" /><glyph d="M529 564 521 500H179L157 324H461L453 260H149L125 64H487L480 0H50L119 564ZM290 653H204L214 739H300ZM476 653H390L400 739H486Z" glyph-name="afii10071.smcp" horiz-adv-x="590" /><glyph d="M147 530 213 386Q230 348 251 327Q272 306 318 306H353L381 530H447L419 306H454Q500 306 526.5 327Q553 348 579 386L681 530H758L634 361Q617 340 595 315.5Q573 291 540 275Q571 260 588 235Q605 210 616 189L708 0H631L555 164Q538 202 516.5 223Q495 244 449 244H411L382 0H316L345 244H307Q261 244 235 223Q209 202 183 164L67 0H-10L128 189Q144 210 167 235Q190 260 224 275Q195 291 179 315.5Q163 340 152 361L70 530Z" glyph-name="afii10072" horiz-adv-x="778" unicode="&#1078;" /><glyph d="M161 564 233 407Q242 388 251.5 372.5Q261 357 273 346Q285 335 301 329.5Q317 324 341 324H399L429 564H497L467 324H525Q572 324 598.5 346Q625 368 653 407L765 564H844L710 381Q694 359 671 334Q648 309 614 292Q646 277 663.5 251.5Q681 226 692 204L792 0H712L629 178Q612 217 589.5 238.5Q567 260 520 260H459L428 0H360L391 260H330Q283 260 256 238.5Q229 217 201 178L76 0H-4L146 204Q162 226 185.5 251.5Q209 277 244 292Q215 309 198 334Q181 359 170 381L82 564Z" glyph-name="afii10072.smcp" horiz-adv-x="868" /><glyph d="M470 159Q470 117 451 85Q432 53 399.5 32Q367 11 323 0.5Q279 -10 229 -10Q180 -10 144 1Q108 12 83 31Q58 50 44.5 75.5Q31 101 26 129L97 153Q103 105 133.5 77.5Q164 50 234 50Q315 50 358.5 77Q402 104 402 165Q402 193 390.5 208Q379 223 360.5 230Q342 237 319.5 238Q297 239 274 239H193L200 298H281Q305 298 329 301.5Q353 305 371.5 316.5Q390 328 402 349.5Q414 371 414 406Q414 448 380.5 463.5Q347 479 290 479Q227 479 190 455.5Q153 432 134 377L69 399Q94 465 148.5 502.5Q203 540 299 540Q335 540 367.5 533Q400 526 425.5 510.5Q451 495 466 469Q481 443 481 405Q481 375 471 352.5Q461 330 445 313.5Q429 297 410.5 287.5Q392 278 375 274Q390 271 407 264Q424 257 438 243.5Q452 230 461 209.5Q470 189 470 159Z" glyph-name="afii10073" horiz-adv-x="546" unicode="&#1079;" /><glyph d="M235 -10Q184 -10 146.5 1.5Q109 13 84 32.5Q59 52 45.5 78.5Q32 105 27 135L98 159Q103 108 135.5 79Q168 50 243 50Q329 50 376.5 79Q424 108 424 175Q424 205 411.5 221.5Q399 238 378.5 245.5Q358 253 333 254.5Q308 256 284 256H199L206 317H291Q317 317 343 320.5Q369 324 389.5 335.5Q410 347 423 368Q436 389 436 424Q436 476 400 494.5Q364 513 303 513Q234 513 195.5 487.5Q157 462 137 405L72 427Q98 494 154.5 534Q211 574 311 574Q349 574 384 566.5Q419 559 445.5 542Q472 525 488 496Q504 467 504 425Q504 395 493 372Q482 349 465 332.5Q448 316 428 306Q408 296 389 292Q406 289 424 281.5Q442 274 457 259.5Q472 245 482 222Q492 199 492 164Q492 130 476.5 98.5Q461 67 429 43Q397 19 349 4.5Q301 -10 235 -10Z" glyph-name="afii10073.smcp" horiz-adv-x="567" /><glyph d="M408 85Q376 41 325.5 15.5Q275 -10 215 -10Q173 -10 138.5 2Q104 14 80.5 36Q57 58 46 89.5Q35 121 40 160L86 530H152L108 175Q101 117 136 85Q171 53 233 53Q270 53 302.5 67Q335 81 360.5 103Q386 125 402.5 152Q419 179 423 204L463 530H529L479 123L470 0H410Z" glyph-name="afii10074" horiz-adv-x="574" unicode="&#1080;" /><glyph d="M111 0H50L119 564H188L153 278L127 104L254 247L541 564H602L533 0H464L498 285L524 459L397 317Z" glyph-name="afii10074.smcp" horiz-adv-x="663" /><glyph d="M408 85Q376 41 325.5 15.5Q275 -10 215 -10Q173 -10 138.5 2Q104 14 80.5 36Q57 58 46 89.5Q35 121 40 160L86 530H152L108 175Q101 117 136 85Q171 53 233 53Q270 53 302.5 67Q335 81 360.5 103Q386 125 402.5 152Q419 179 423 204L463 530H529L479 123L470 0H410ZM518 800Q512 753 498.5 716Q485 679 461.5 653.5Q438 628 402 615Q366 602 315 602Q264 602 231.5 615Q199 628 181.5 653.5Q164 679 160 716Q156 753 162 800H216Q206 721 230.5 689.5Q255 658 320 658Q385 658 417.5 689.5Q450 721 460 800Z" glyph-name="afii10075" horiz-adv-x="574" unicode="&#1081;" /><glyph d="M111 0H50L119 564H188L153 278L127 104L254 247L541 564H602L533 0H464L498 285L524 459L397 317ZM568 800Q562 753 548.5 716Q535 679 511.5 653.5Q488 628 452 615Q416 602 365 602Q314 602 281.5 615Q249 628 231.5 653.5Q214 679 210 716Q206 753 212 800H273Q263 721 285.5 689.5Q308 658 372 658Q437 658 467 689.5Q497 721 507 800Z" glyph-name="afii10075.smcp" horiz-adv-x="663" /><glyph d="M552 530 428 361Q411 340 389 315.5Q367 291 334 275Q365 260 382 235Q399 210 410 189L502 0H425L349 164Q332 202 310.5 223Q289 244 243 244H135L106 0H40L105 530H171L143 306H248Q294 306 320.5 327Q347 348 373 386L475 530Z" glyph-name="afii10076" horiz-adv-x="572" unicode="&#1082;" /><glyph d="M574 564 440 381Q424 359 401 334Q378 309 344 292Q376 277 393.5 251.5Q411 226 422 204L522 0H442L359 178Q342 217 319.5 238.5Q297 260 250 260H149L118 0H50L119 564H187L157 324H255Q302 324 328.5 346Q355 368 383 407L495 564Z" glyph-name="afii10076.smcp" horiz-adv-x="598" /><glyph d="M462 0H396L453 468H305L251 277Q228 197 203 143.5Q178 90 149.5 58Q121 26 86.5 13Q52 0 10 0H0L6 62H15Q49 62 73 71.5Q97 81 116 104.5Q135 128 151 168Q167 208 184 268L259 530H527Z" glyph-name="afii10077" horiz-adv-x="582" unicode="&#1083;" /><glyph d="M529 0H461L522 500H319L264 303Q239 213 212.5 154Q186 95 155.5 61Q125 27 89.5 13.5Q54 0 10 0H0L6 64H15Q50 64 76 76.5Q102 89 122.5 116.5Q143 144 160.5 188Q178 232 196 294L272 564H598Z" glyph-name="afii10077.smcp" horiz-adv-x="659" /><glyph d="M359 0H293L150 418L135 259L104 0H40L105 530H176L291 196L333 63L409 196L606 530H677L612 0H548L579 259L604 418Z" glyph-name="afii10078" horiz-adv-x="732" unicode="&#1084;" /><glyph d="M220 279 166 440 151 286 116 0H50L119 564H190L314 206L357 70L434 206L646 564H717L648 0H582L616 280L640 440L546 279L382 0H316Z" glyph-name="afii10078.smcp" horiz-adv-x="778" /><glyph d="M171 530 143 308H445L473 530H539L474 0H408L438 246H136L106 0H40L105 530Z" glyph-name="afii10079" horiz-adv-x="594" unicode="&#1085;" /><glyph d="M602 564 533 0H465L496 260H149L118 0H50L119 564H187L157 324H504L534 564Z" glyph-name="afii10079.smcp" horiz-adv-x="663" /><glyph d="M247 -10Q149 -10 93.5 43.5Q38 97 38 206Q38 282 57.5 343.5Q77 405 113.5 448.5Q150 492 201 516Q252 540 315 540Q414 540 469 486.5Q524 433 524 324Q524 248 504.5 186.5Q485 125 448.5 81.5Q412 38 361 14Q310 -10 247 -10ZM307 478Q261 478 224.5 459.5Q188 441 162 406.5Q136 372 122 323.5Q108 275 108 214Q108 129 147 90.5Q186 52 255 52Q301 52 337.5 70.5Q374 89 400 123.5Q426 158 440 206.5Q454 255 454 316Q454 401 415 439.5Q376 478 307 478Z" glyph-name="afii10080" horiz-adv-x="578" unicode="&#1086;" /><glyph d="M298 -10Q186 -10 121 51.5Q56 113 56 231Q56 318 80 382.5Q104 447 146.5 489.5Q189 532 246.5 553Q304 574 370 574Q482 574 547 512.5Q612 451 612 333Q612 246 588 181.5Q564 117 521.5 74.5Q479 32 421.5 11Q364 -10 298 -10ZM362 512Q316 512 273 495.5Q230 479 198 445.5Q166 412 146.5 360Q127 308 127 236Q127 141 177 96.5Q227 52 306 52Q353 52 395.5 68.5Q438 85 470 118.5Q502 152 521.5 204.5Q541 257 541 329Q541 424 491 468Q441 512 362 512Z" glyph-name="afii10080.smcp" horiz-adv-x="680" /><glyph d="M150 445Q182 489 232.5 514.5Q283 540 343 540Q385 540 419.5 528Q454 516 477.5 494Q501 472 512 440.5Q523 409 518 370L473 0H407L450 355Q457 412 422.5 444.5Q388 477 325 477Q288 477 255.5 463Q223 449 197.5 427Q172 405 156 378Q140 351 136 326L96 0H30L79 407L89 530H149Z" glyph-name="afii10081" horiz-adv-x="574" unicode="&#1087;" /><glyph d="M602 564 533 0H465L526 500H179L118 0H50L119 564Z" glyph-name="afii10081.smcp" horiz-adv-x="663" /><glyph d="M71 -200H5L79 406L89 530H149L150 444Q182 489 231.5 514.5Q281 540 340 540Q440 540 492.5 483.5Q545 427 545 321Q545 249 526 188.5Q507 128 471.5 84Q436 40 385.5 15Q335 -10 272 -10Q213 -10 170 15.5Q127 41 106 85ZM278 53Q323 53 359.5 73Q396 93 421.5 127.5Q447 162 460.5 209.5Q474 257 474 312Q474 393 436.5 435Q399 477 330 477Q290 477 256 463Q222 449 196.5 427Q171 405 155.5 378.5Q140 352 136 326L121 204Q121 178 130 151Q139 124 158 102.5Q177 81 206.5 67Q236 53 278 53Z" glyph-name="afii10082" horiz-adv-x="599" unicode="&#1088;" /><glyph d="M179 500 154 294H333Q354 294 374.5 299Q395 304 412 317.5Q429 331 439.5 355.5Q450 380 450 420Q450 445 442.5 460.5Q435 476 422 485Q409 494 392.5 497Q376 500 358 500ZM119 564H350Q384 564 415 558Q446 552 470 536.5Q494 521 508 495Q522 469 522 429Q522 369 503.5 330.5Q485 292 454.5 269.5Q424 247 386 238.5Q348 230 309 230H146L118 0H50Z" glyph-name="afii10082.smcp" horiz-adv-x="550" /><glyph d="M438 377Q433 425 404.5 452Q376 479 311 479Q264 479 226.5 459.5Q189 440 162.5 405.5Q136 371 122 323Q108 275 108 218Q108 135 147.5 93Q187 51 259 51Q323 51 358 78Q393 105 410 153L475 130Q451 68 397 29Q343 -10 245 -10Q145 -10 92 47Q39 104 39 210Q39 282 58 342.5Q77 403 112.5 447Q148 491 198.5 515.5Q249 540 313 540Q361 540 396 530Q431 520 454 501.5Q477 483 490 457.5Q503 432 508 401Z" glyph-name="afii10083" horiz-adv-x="550" unicode="&#1089;" /><glyph d="M361 511Q302 511 258.5 489Q215 467 186 429Q157 391 143 340.5Q129 290 129 233Q129 144 173.5 98.5Q218 53 298 53Q374 53 419.5 80Q465 107 484 161L550 138Q524 71 462 30.5Q400 -10 291 -10Q177 -10 116 51Q55 112 55 225Q55 308 77.5 372.5Q100 437 140.5 482Q181 527 238 550.5Q295 574 363 574Q471 574 523.5 533.5Q576 493 586 427L514 403Q509 454 471 482.5Q433 511 361 511Z" glyph-name="afii10083.smcp" horiz-adv-x="640" /><glyph d="M150 445Q180 489 224.5 514.5Q269 540 320 540Q384 540 423.5 512Q463 484 473 430Q509 487 557 513.5Q605 540 653 540Q738 540 777.5 494Q817 448 807 370L762 0H696L739 355Q746 412 723.5 444.5Q701 477 635 477Q603 477 575 463Q547 449 525 427Q503 405 488.5 378Q474 351 469 326L429 0H363L406 355Q413 412 390.5 444.5Q368 477 302 477Q270 477 241.5 463Q213 449 191 427Q169 405 154.5 378Q140 351 136 326L96 0H30L79 407L89 530H149Z" glyph-name="afii10084" horiz-adv-x="863" unicode="&#1090;" /><glyph d="M255 0H188L249 500H46L54 564H527L519 500H316Z" glyph-name="afii10084.smcp" horiz-adv-x="523" /><glyph d="M41 -147Q77 -147 101 -128Q125 -109 147 -68L195 20L43 530H120L199 239L240 87L317 239L469 530H547L218 -74Q199 -109 180.5 -134.5Q162 -160 141 -177Q120 -194 94 -202Q68 -210 34 -210Q20 -210 4 -208Q-12 -206 -22 -202L-6 -138Q-1 -140 11 -143.5Q23 -147 41 -147Z" glyph-name="afii10085" horiz-adv-x="540" unicode="&#1091;" /><glyph d="M85 564H160L294 212L515 564H596L302 108Q289 89 273 68Q257 47 236 30Q215 13 188 2Q161 -9 127 -9Q95 -9 73 -4Q51 1 41 6L58 67Q63 64 85 57.5Q107 51 135 51Q164 51 186.5 71Q209 91 234 129L249 152Z" glyph-name="afii10085.smcp" horiz-adv-x="593" /><glyph d="M287 -10Q232 -10 182 7Q132 24 96 58.5Q60 93 41.5 144.5Q23 196 32 265Q41 334 71.5 385.5Q102 437 147 471.5Q192 506 246 523Q300 540 355 540L387 800H453L421 540Q476 540 526 523Q576 506 612 471.5Q648 437 666.5 385.5Q685 334 676 265Q667 196 636.5 144.5Q606 93 561 58.5Q516 24 462 7Q408 -10 353 -10L330 -200H264ZM361 52Q400 52 440.5 63Q481 74 515.5 98.5Q550 123 575 164Q600 205 607 265Q615 325 600 366Q585 407 556.5 431.5Q528 456 490 467Q452 478 413 478ZM101 265Q94 205 108.5 164Q123 123 151.5 98.5Q180 74 218 63Q256 52 295 52L347 478Q308 478 267.5 467Q227 456 192.5 431.5Q158 407 133.5 366Q109 325 101 265Z" glyph-name="afii10086" horiz-adv-x="724" unicode="&#1092;" /><glyph d="M276 82Q168 82 104 128.5Q40 175 40 258Q40 315 61.5 357Q83 399 121 427Q159 455 211 468.5Q263 482 325 482L335 564H403L393 482Q501 482 565 435.5Q629 389 629 306Q629 249 607.5 207Q586 165 548 137Q510 109 458 95.5Q406 82 344 82L334 0H266ZM351 145Q396 145 433.5 152Q471 159 499 176.5Q527 194 542.5 224.5Q558 255 558 302Q558 367 511 393Q464 419 385 419ZM318 419Q273 419 235.5 412Q198 405 170 387.5Q142 370 126.5 339.5Q111 309 111 262Q111 197 158 171Q205 145 284 145Z" glyph-name="afii10086.smcp" horiz-adv-x="680" /><glyph d="M171 125 64 0H-17L170 220L218 276L183 331L61 530H142L207 419L264 322L344 419L437 530H517L347 331L299 276L334 220L467 0H386L310 125L252 222Z" glyph-name="afii10087" horiz-adv-x="530" unicode="&#1093;" /><glyph d="M231 169 83 0H-2L220 247L265 299L233 347L88 564H167L269 404L308 343L361 404L503 564H586L385 347L341 299L376 247L538 0H457L349 169L300 248Z" glyph-name="afii10087.smcp" horiz-adv-x="616" /><glyph d="M417 85Q385 41 334.5 15.5Q284 -10 224 -10Q182 -10 147.5 2Q113 14 89.5 36Q66 58 55 89.5Q44 121 49 160L94 530H160L117 175Q110 118 144.5 85.5Q179 53 242 53Q279 53 311.5 67Q344 81 369.5 103Q395 125 411 152Q427 179 431 204L471 530H537L481 62H547L520 -160H454L474 0H418Z" glyph-name="afii10088" horiz-adv-x="624" unicode="&#1094;" /><glyph d="M608 64 581 -160H513L533 0H50L119 564H187L125 64H472L534 564H602L540 64Z" glyph-name="afii10088.smcp" horiz-adv-x="690" /><glyph d="M473 0H407L433 219Q412 204 363.5 188Q315 172 247 172Q209 172 175 181.5Q141 191 116 210.5Q91 230 78 259.5Q65 289 70 330L95 530H161L137 340Q133 309 141 289Q149 269 166 257Q183 245 208 240Q233 235 264 235Q301 235 331.5 241.5Q362 248 384.5 256.5Q407 265 421.5 274Q436 283 442 288L472 530H538Z" glyph-name="afii10089" horiz-adv-x="584" unicode="&#1095;" /><glyph d="M488 0H420L448 229Q426 213 376 196.5Q326 180 256 180Q217 180 181.5 189.5Q146 199 120.5 219.5Q95 240 82 270.5Q69 301 74 343L101 564H169L143 353Q139 322 147.5 301Q156 280 173.5 267.5Q191 255 217 250Q243 245 274 245Q312 245 343.5 251.5Q375 258 398 267Q421 276 436 285.5Q451 295 456 300L489 564H557Z" glyph-name="afii10089.smcp" horiz-adv-x="618" /><glyph d="M701 85Q671 41 626.5 15.5Q582 -10 531 -10Q467 -10 427.5 18Q388 46 378 100Q342 43 294 16.5Q246 -10 198 -10Q113 -10 73.5 36Q34 82 44 160L89 530H155L112 175Q105 118 127.5 85.5Q150 53 216 53Q248 53 276 67Q304 81 326 103Q348 125 363 152Q378 179 382 204L422 530H488L445 175Q438 118 460.5 85.5Q483 53 549 53Q581 53 609.5 67Q638 81 660 103Q682 125 696.5 152Q711 179 715 204L755 530H821L772 123L762 0H702Z" glyph-name="afii10090" horiz-adv-x="863" unicode="&#1096;" /><glyph d="M461 564H529L467 64H741L803 564H871L802 0H50L119 564H187L125 64H399Z" glyph-name="afii10090.smcp" horiz-adv-x="932" /><glyph d="M701 85Q671 41 626.5 15.5Q582 -10 531 -10Q467 -10 427.5 18Q388 46 378 100Q342 43 294 16.5Q246 -10 198 -10Q113 -10 73.5 36Q34 82 44 160L89 530H155L112 175Q105 118 127.5 85.5Q150 53 216 53Q248 53 276 67Q304 81 326 103Q348 125 363 152Q378 179 382 204L422 530H488L445 175Q438 118 460.5 85.5Q483 53 549 53Q581 53 609.5 67Q638 81 660 103Q682 125 696.5 152Q711 179 715 204L755 530H821L764 62H830L803 -160H737L757 0H702Z" glyph-name="afii10091" horiz-adv-x="907" unicode="&#1097;" /><glyph d="M50 0 119 564H187L125 64H399L461 564H529L467 64H741L803 564H871L810 64H877L850 -160H782L802 0Z" glyph-name="afii10091.smcp" horiz-adv-x="959" /><glyph d="M54 530H242L214 308H364Q400 308 433.5 302Q467 296 491.5 279Q516 262 528.5 232Q541 202 535 154Q529 106 509.5 76Q490 46 461.5 29Q433 12 398 6Q363 0 327 0H111L168 468H46ZM350 62Q369 62 388.5 65.5Q408 69 424 78.5Q440 88 451.5 106Q463 124 466 154Q470 184 463 202Q456 220 442.5 229.5Q429 239 410.5 242.5Q392 246 373 246H207L184 62Z" glyph-name="afii10092" horiz-adv-x="596" unicode="&#1098;" /><glyph d="M248 324H449Q484 324 516.5 318.5Q549 313 574.5 298.5Q600 284 615.5 258Q631 232 631 191Q631 131 611 94Q591 57 559 36Q527 15 488 7.5Q449 0 410 0H141L202 500H46L54 564H278ZM433 64Q454 64 476 68Q498 72 516.5 84.5Q535 97 547 120Q559 143 559 181Q559 207 550 222.5Q541 238 527 246Q513 254 494.5 257Q476 260 457 260H240L216 64Z" glyph-name="afii10092.smcp" horiz-adv-x="687" /><glyph d="M279 62Q298 62 317.5 65.5Q337 69 353 78.5Q369 88 380.5 106Q392 124 395 154Q399 184 392 202Q385 220 371.5 229.5Q358 239 339.5 242.5Q321 246 302 246H136L113 62ZM105 530H171L143 308H293Q329 308 362.5 302Q396 296 420.5 279Q445 262 457.5 232Q470 202 464 154Q458 106 438.5 76Q419 46 390.5 29Q362 12 327 6Q292 0 256 0H40ZM567 530H633L568 0H502Z" glyph-name="afii10093" horiz-adv-x="688" unicode="&#1099;" /><glyph d="M655 564H723L654 0H586ZM342 64Q363 64 385 68Q407 72 425.5 84.5Q444 97 456 120Q468 143 468 181Q468 207 459 222.5Q450 238 436 246Q422 254 403.5 257Q385 260 366 260H149L125 64ZM119 564H187L157 324H358Q393 324 425.5 318.5Q458 313 483.5 298.5Q509 284 524.5 258Q540 232 540 191Q540 131 520 94Q500 57 468 36Q436 15 397 7.5Q358 0 319 0H50Z" glyph-name="afii10093.smcp" horiz-adv-x="784" /><glyph d="M279 62Q298 62 317.5 65.5Q337 69 353 78.5Q369 88 380.5 106Q392 124 395 154Q399 184 392 202Q385 220 371.5 229.5Q358 239 339.5 242.5Q321 246 302 246H136L113 62ZM105 530H171L143 308H293Q329 308 362.5 302Q396 296 420.5 279Q445 262 457.5 232Q470 202 464 154Q458 106 438.5 76Q419 46 390.5 29Q362 12 327 6Q292 0 256 0H40Z" glyph-name="afii10094" horiz-adv-x="525" unicode="&#1100;" /><glyph d="M342 64Q363 64 385 68Q407 72 425.5 84.5Q444 97 456 120Q468 143 468 181Q468 207 459 222.5Q450 238 436 246Q422 254 403.5 257Q385 260 366 260H149L125 64ZM119 564H187L157 324H358Q393 324 425.5 318.5Q458 313 483.5 298.5Q509 284 524.5 258Q540 232 540 191Q540 131 520 94Q500 57 468 36Q436 15 397 7.5Q358 0 319 0H50Z" glyph-name="afii10094.smcp" horiz-adv-x="596" /><glyph d="M305 540Q404 540 460 484Q516 428 516 319Q516 235 495.5 173.5Q475 112 438 71Q401 30 350 10Q299 -10 237 -10Q187 -10 151 1Q115 12 91 31Q67 50 54 75.5Q41 101 36 129L107 153Q113 107 141.5 79Q170 51 237 51Q275 51 308 61Q341 71 367 93Q393 115 411.5 151Q430 187 439 239H196L203 298H446Q446 304 446.5 310Q447 316 447 322Q447 406 406.5 443Q366 480 297 480Q229 480 192.5 454Q156 428 139 377L74 399Q98 462 153 501Q208 540 305 540Z" glyph-name="afii10095" horiz-adv-x="570" unicode="&#1101;" /><glyph d="M180 324H499Q499 416 455.5 463.5Q412 511 330 511Q253 511 208.5 484Q164 457 144 403L77 426Q103 492 165.5 533Q228 574 337 574Q451 574 512 509Q573 444 573 331Q573 249 550.5 185.5Q528 122 487 78.5Q446 35 389.5 12.5Q333 -10 265 -10Q156 -10 104.5 30.5Q53 71 42 136L114 161Q120 110 157 81.5Q194 53 267 53Q355 53 414 103Q473 153 492 260H172Z" glyph-name="afii10095.smcp" horiz-adv-x="640" /><glyph d="M457 -10Q359 -10 303.5 43.5Q248 97 248 206Q248 216 248 226Q248 236 249 246H136L106 0H40L105 530H171L143 308H258Q281 416 351 478Q421 540 525 540Q624 540 679 486.5Q734 433 734 324Q734 248 714.5 186.5Q695 125 658.5 81.5Q622 38 571 14Q520 -10 457 -10ZM517 478Q471 478 434.5 459.5Q398 441 372 406.5Q346 372 332 323.5Q318 275 318 214Q318 129 357 90.5Q396 52 465 52Q511 52 547.5 70.5Q584 89 610 123.5Q636 158 650 206.5Q664 255 664 316Q664 401 625 439.5Q586 478 517 478Z" glyph-name="afii10096" horiz-adv-x="788" unicode="&#1102;" /><glyph d="M528 -10Q416 -10 351 51.5Q286 113 286 231Q286 239 286 245.5Q286 252 287 260H149L118 0H50L119 564H187L157 324H294Q306 387 334 434Q362 481 402 512Q442 543 492.5 558.5Q543 574 600 574Q712 574 777 512.5Q842 451 842 333Q842 246 818 181.5Q794 117 751.5 74.5Q709 32 651.5 11Q594 -10 528 -10ZM592 512Q546 512 503 495.5Q460 479 428 445.5Q396 412 376.5 360Q357 308 357 236Q357 141 407 96.5Q457 52 536 52Q583 52 625.5 68.5Q668 85 700 118.5Q732 152 751.5 204.5Q771 257 771 329Q771 424 721 468Q671 512 592 512Z" glyph-name="afii10096.smcp" horiz-adv-x="910" /><glyph d="M8 0 131 169Q141 183 153.5 197.5Q166 212 182 226Q136 234 104 261Q72 288 72 347Q72 404 90.5 440Q109 476 139 496Q169 516 207 523Q245 530 283 530H499L434 0H368L395 222H314Q268 222 242 202Q216 182 190 144L89 0ZM259 468Q239 468 218.5 464Q198 460 181 448.5Q164 437 153 415Q142 393 142 357Q142 334 150 319.5Q158 305 171.5 297Q185 289 201.5 286.5Q218 284 236 284H402L425 468Z" glyph-name="afii10097" horiz-adv-x="554" unicode="&#1103;" /><glyph d="M468 0H400L429 240H288Q244 238 219.5 217Q195 196 169 159L58 0H-26L109 185Q126 208 140 221.5Q154 235 172 243Q120 251 83.5 282Q47 313 47 377Q47 437 67 474Q87 511 118.5 531Q150 551 189.5 557.5Q229 564 268 564H537ZM244 500Q223 500 200.5 496Q178 492 159.5 479.5Q141 467 129.5 443.5Q118 420 118 381Q118 356 127 341Q136 326 150.5 318Q165 310 183 307Q201 304 220 304H437L461 500Z" glyph-name="afii10097.smcp" horiz-adv-x="544" /><glyph d="M423 468H163L106 0H40L105 530H365L384 690H450Z" glyph-name="afii10098" horiz-adv-x="435" unicode="&#1169;" /><glyph d="M481 500H179L118 0H50L119 564H421L440 724H508Z" glyph-name="afii10098.smcp" horiz-adv-x="490" /><glyph d="M274 -147Q304 -147 326.5 -141.5Q349 -136 364.5 -120.5Q380 -105 390 -76.5Q400 -48 406 -2L450 355Q458 415 423 446Q388 477 325 477Q288 477 255.5 463Q223 449 197.5 427Q172 405 156 378Q140 351 136 326L96 0H30L106 627H-5L3 689H114L128 800H194L180 689H321L313 627H172L150 440Q182 484 232.5 512Q283 540 343 540Q384 540 418.5 528.5Q453 517 476.5 495.5Q500 474 511.5 442.5Q523 411 518 370L472 -2Q467 -43 456.5 -81Q446 -119 423.5 -147.5Q401 -176 363.5 -193Q326 -210 267 -210Q253 -210 237 -208Q221 -206 211 -202L227 -138Q232 -140 244 -143.5Q256 -147 274 -147Z" glyph-name="afii10099" horiz-adv-x="574" unicode="&#1106;" /><glyph d="M253 287Q283 311 324 322.5Q365 334 414 334Q491 334 537.5 295Q584 256 584 175Q584 132 570.5 97.5Q557 63 532.5 39Q508 15 474.5 2.5Q441 -10 400 -10Q381 -10 367 -7Q353 -4 345 0L358 60Q363 58 374 55Q385 52 401 52Q448 52 479 79.5Q510 107 510 169Q510 223 478 247Q446 271 393 271Q339 271 299.5 250Q260 229 243 206L218 0H150L211 500H51L59 564H447L439 500H279Z" glyph-name="afii10099.smcp" horiz-adv-x="660" /><glyph d="M464 800 327 592H262L382 800ZM261 245Q222 239 190.5 234.5Q159 230 136.5 220Q114 210 102 191.5Q90 173 90 139Q90 113 103.5 96Q117 79 139 69Q161 59 188 55Q215 51 242 51Q310 51 345 78.5Q380 106 397 153L462 130Q451 102 433 76.5Q415 51 387 31.5Q359 12 320 1Q281 -10 227 -10Q188 -10 151 -2.5Q114 5 85 22.5Q56 40 38 67Q20 94 20 133Q20 190 43.5 222Q67 254 102.5 271Q138 288 179.5 294.5Q221 301 257 306Q291 311 319 315.5Q347 320 367.5 329Q388 338 399.5 354Q411 370 411 399Q411 425 399 440.5Q387 456 368 464.5Q349 473 327 476Q305 479 284 479Q221 479 185.5 452Q150 425 133 377L68 399Q80 431 98.5 456.5Q117 482 144 501Q171 520 209 530Q247 540 298 540Q330 540 362.5 533Q395 526 421 509.5Q447 493 463 467.5Q479 442 479 404Q479 353 456 323Q433 293 399.5 277.5Q366 262 328.5 256Q291 250 261 245Z" glyph-name="afii10100" horiz-adv-x="530" unicode="&#1107;" /><glyph d="M118 0H50L119 564H489L481 500H179ZM476 800 339 592H274L394 800Z" glyph-name="afii10100.smcp" horiz-adv-x="490" /><glyph d="M317 540Q414 540 458.5 501.5Q503 463 513 401L443 377Q438 425 409.5 452.5Q381 480 315 480Q240 480 187 439Q134 398 116 298H359L352 239H109Q108 231 108 224Q108 217 108 209Q108 124 148.5 87.5Q189 51 258 51Q329 51 365.5 77.5Q402 104 419 153L484 130Q473 102 453.5 76.5Q434 51 405.5 31.5Q377 12 338 1Q299 -10 249 -10Q149 -10 93.5 44Q38 98 38 207Q38 290 59.5 352.5Q81 415 118.5 456.5Q156 498 207 519Q258 540 317 540Z" glyph-name="afii10101" horiz-adv-x="570" unicode="&#1108;" /><glyph d="M447 260H126Q120 154 166.5 103.5Q213 53 295 53Q372 53 416.5 80Q461 107 481 161L548 138Q522 72 460 31Q398 -10 288 -10Q174 -10 113 55Q52 120 52 233Q52 315 74.5 378.5Q97 442 138 485.5Q179 529 235.5 551.5Q292 574 360 574Q469 574 521 533.5Q573 493 583 428L511 403Q505 454 468 482.5Q431 511 358 511Q181 511 136 324H455Z" glyph-name="afii10101.smcp" horiz-adv-x="640" /><glyph d="M91 153Q97 107 126 79Q155 51 222 51Q252 51 283.5 56Q315 61 340.5 74Q366 87 382 110Q398 133 398 168Q398 191 387.5 204Q377 217 358 224.5Q339 232 312 236Q285 240 251 245Q226 249 193.5 254.5Q161 260 132.5 272Q104 284 84.5 306Q65 328 65 365Q65 413 86 446Q107 479 139.5 500Q172 521 211 530.5Q250 540 286 540Q334 540 369 530Q404 520 427 501.5Q450 483 463 457.5Q476 432 481 401L411 377Q406 425 377.5 452Q349 479 284 479Q261 479 234.5 475Q208 471 186 460Q164 449 149.5 428.5Q135 408 135 375Q135 355 145 343.5Q155 332 173 325Q191 318 215.5 314.5Q240 311 269 306Q301 301 336.5 296Q372 291 402 278Q432 265 451.5 241.5Q471 218 471 177Q471 127 448.5 91.5Q426 56 390 33.5Q354 11 309.5 0.5Q265 -10 221 -10Q172 -10 136 1Q100 12 75.5 31Q51 50 38 75Q25 100 20 128Z" glyph-name="afii10102" horiz-adv-x="530" unicode="&#1109;" /><glyph d="M298 267Q267 271 232 278Q197 285 168 300Q139 315 120 341Q101 367 101 408Q101 453 121.5 484.5Q142 516 175 536Q208 556 249.5 565Q291 574 332 574Q440 574 491.5 537Q543 500 551 431L479 407Q476 464 441.5 487.5Q407 511 332 511Q309 511 281 508Q253 505 228.5 494.5Q204 484 187.5 464Q171 444 171 410Q171 369 206 353Q241 337 314 326Q355 320 393.5 313Q432 306 462 291Q492 276 510 249Q528 222 528 177Q528 126 505 90.5Q482 55 445 32.5Q408 10 361.5 0Q315 -10 268 -10Q162 -10 106.5 28.5Q51 67 44 136L115 161Q117 106 158.5 79.5Q200 53 272 53Q305 54 337.5 59.5Q370 65 396.5 78Q423 91 439.5 113.5Q456 136 456 170Q456 195 446.5 211.5Q437 228 417.5 238.5Q398 249 368.5 255Q339 261 298 267Z" glyph-name="afii10102.smcp" horiz-adv-x="615" /><glyph d="M208 653H122L132 739H218ZM117 530H183L118 0H52Z" glyph-name="afii10103" horiz-adv-x="250" unicode="&#1110;" /><glyph d="M139 0H71L140 564H208Z" glyph-name="afii10103.smcp" horiz-adv-x="290" /><glyph d="M117 530H183L118 0H52ZM115 653H29L39 739H125ZM301 653H215L225 739H311Z" glyph-name="afii10104" horiz-adv-x="250" unicode="&#1111;" /><glyph d="M139 0H71L140 564H208ZM135 653H49L59 739H145ZM321 653H235L245 739H331Z" glyph-name="afii10104.smcp" horiz-adv-x="290" /><glyph d="M-80 -147Q-50 -147 -28 -141.5Q-6 -136 9.5 -120.5Q25 -105 35 -76.5Q45 -48 51 -2L117 530H183L117 -2Q112 -43 101.5 -81Q91 -119 68.5 -147.5Q46 -176 8.5 -193Q-29 -210 -87 -210Q-101 -210 -117 -208Q-133 -206 -143 -202L-127 -138Q-122 -140 -110 -143.5Q-98 -147 -80 -147ZM208 653H122L132 739H218Z" glyph-name="afii10105" horiz-adv-x="250" unicode="&#1112;" /><glyph d="M401 564 353 175Q343 90 294.5 40Q246 -10 151 -10Q100 -10 69 2.5Q38 15 21 34Q4 53 -1 77Q-6 101 -4 123L67 148Q65 132 66 114.5Q67 97 76 83.5Q85 70 104.5 61Q124 52 159 52Q221 52 249 83.5Q277 115 285 180L332 564Z" glyph-name="afii10105.smcp" horiz-adv-x="460" /><glyph d="M453 468H305L251 277Q228 196 203.5 143Q179 90 150 58Q121 26 86.5 13Q52 0 10 0H0L6 62H15Q49 62 73.5 71.5Q98 81 116.5 104.5Q135 128 151 168Q167 208 184 268L259 530H527L499 308H649Q682 308 713.5 303Q745 298 769 284Q793 270 807.5 245.5Q822 221 822 182Q822 125 803.5 89.5Q785 54 755 34Q725 14 687.5 7Q650 0 612 0H396ZM635 62Q655 62 675.5 66Q696 70 713 81.5Q730 93 741 114.5Q752 136 752 172Q752 196 744 210.5Q736 225 722.5 233Q709 241 692.5 243.5Q676 246 658 246H492L469 62Z" glyph-name="afii10106" horiz-adv-x="881" unicode="&#1113;" /><glyph d="M548 324H749Q784 324 816.5 318.5Q849 313 874.5 298.5Q900 284 915.5 258Q931 232 931 191Q931 131 911 94Q891 57 859 36Q827 15 788 7.5Q749 0 710 0H441L502 500H319L264 303Q239 213 212.5 154Q186 95 155.5 61Q125 27 89.5 13.5Q54 0 10 0H0L6 64H15Q50 64 75.5 76.5Q101 89 122 116.5Q143 144 160.5 188Q178 232 196 294L272 564H578ZM733 64Q754 64 776 68Q798 72 816.5 84.5Q835 97 847 120Q859 143 859 181Q859 207 850 222.5Q841 238 827 246Q813 254 794.5 257Q776 260 757 260H540L516 64Z" glyph-name="afii10106.smcp" horiz-adv-x="987" /><glyph d="M428 246H126L96 0H30L95 530H161L133 308H435L463 530H529L501 308H651Q684 308 715.5 303Q747 298 771 284Q795 270 809.5 245.5Q824 221 824 182Q824 125 805.5 89.5Q787 54 757 34Q727 14 689.5 7Q652 0 614 0H398ZM637 62Q657 62 677.5 66Q698 70 715 81.5Q732 93 743 114.5Q754 136 754 172Q754 196 746 210.5Q738 225 724.5 233Q711 241 694.5 243.5Q678 246 660 246H494L471 62Z" glyph-name="afii10107" horiz-adv-x="883" unicode="&#1114;" /><glyph d="M476 260H149L118 0H50L119 564H187L157 324H484L514 564H582L552 324H753Q788 324 820.5 318.5Q853 313 878.5 298.5Q904 284 919.5 258Q935 232 935 191Q935 131 915 94Q895 57 863 36Q831 15 792 7.5Q753 0 714 0H445ZM737 64Q758 64 780 68Q802 72 820.5 84.5Q839 97 851 120Q863 143 863 181Q863 207 854 222.5Q845 238 831 246Q817 254 798.5 257Q780 260 761 260H544L520 64Z" glyph-name="afii10107.smcp" horiz-adv-x="991" /><glyph d="M172 627 150 440Q182 484 232.5 512Q283 540 343 540Q384 540 418.5 528.5Q453 517 476.5 495.5Q500 474 511.5 442.5Q523 411 518 370L473 0H407L450 355Q458 415 423 446Q388 477 325 477Q288 477 255.5 463Q223 449 197.5 427Q172 405 156 378Q140 351 136 326L96 0H30L106 627H-5L3 689H114L128 800H194L180 689H321L313 627Z" glyph-name="afii10108" horiz-adv-x="574" unicode="&#1115;" /><glyph d="M211 500H51L59 564H447L439 500H279L250 263Q280 300 323.5 317Q367 334 415 334Q450 334 480 324.5Q510 315 531 296Q552 277 562 247.5Q572 218 567 178L546 0H478L498 168Q505 223 479 246Q453 269 397 269Q343 269 303 244.5Q263 220 239 175L218 0H150Z" glyph-name="afii10108.smcp" horiz-adv-x="658" /><glyph d="M476 800 339 592H274L394 800ZM552 530 428 361Q411 340 389 315.5Q367 291 334 275Q365 260 382 235Q399 210 410 189L502 0H425L349 164Q332 202 310.5 223Q289 244 243 244H135L106 0H40L105 530H171L143 306H248Q294 306 320.5 327Q347 348 373 386L475 530Z" glyph-name="afii10109" horiz-adv-x="572" unicode="&#1116;" /><glyph d="M494 800 357 592H292L412 800ZM574 564 440 381Q424 359 401 334Q378 309 344 292Q376 277 393.5 251.5Q411 226 422 204L522 0H442L359 178Q342 217 319.5 238.5Q297 260 250 260H149L118 0H50L119 564H187L157 324H255Q302 324 328.5 346Q355 368 383 407L495 564Z" glyph-name="afii10109.smcp" horiz-adv-x="598" /><glyph d="M506 800Q500 753 486.5 716Q473 679 449.5 653.5Q426 628 390 615Q354 602 303 602Q252 602 219.5 615Q187 628 169.5 653.5Q152 679 148 716Q144 753 150 800H211Q201 721 223.5 689.5Q246 658 310 658Q375 658 405 689.5Q435 721 445 800ZM41 -147Q77 -147 101 -128Q125 -109 147 -68L195 20L43 530H120L199 239L240 87L317 239L469 530H547L218 -74Q199 -109 180.5 -134.5Q162 -160 141 -177Q120 -194 94 -202Q68 -210 34 -210Q20 -210 4 -208Q-12 -206 -22 -202L-6 -138Q-1 -140 11 -143.5Q23 -147 41 -147Z" glyph-name="afii10110" horiz-adv-x="540" unicode="&#1118;" /><glyph d="M547 800Q541 753 527.5 716Q514 679 490.5 653.5Q467 628 431 615Q395 602 344 602Q293 602 260.5 615Q228 628 210.5 653.5Q193 679 189 716Q185 753 191 800H252Q242 721 264.5 689.5Q287 658 351 658Q416 658 446 689.5Q476 721 486 800ZM85 564H160L294 212L515 564H596L302 108Q289 89 273 68Q257 47 236 30Q215 13 188 2Q161 -9 127 -9Q95 -9 73 -4Q51 1 41 6L58 67Q63 64 85 57.5Q107 51 135 51Q164 51 186.5 71Q209 91 234 129L249 152Z" glyph-name="afii10110.smcp" horiz-adv-x="593" /><glyph d="M145 780H215L128 66H558L645 780H715L620 0H371L351 -160H279L299 0H50Z" glyph-name="afii10145" horiz-adv-x="750" unicode="&#1039;" /><glyph d="M408 85Q376 41 325.5 15.5Q275 -10 215 -10Q173 -10 138.5 2Q104 14 80.5 36Q57 58 46 89.5Q35 121 40 160L86 530H152L108 175Q101 117 136 85Q171 53 233 53Q270 53 302.5 67Q335 81 360.5 103Q386 125 402.5 152Q419 179 423 204L463 530H529L479 123L470 0H410ZM188 -200 208 -40H268L248 -200Z" glyph-name="afii10193" horiz-adv-x="574" unicode="&#1119;" /><glyph d="M50 0 119 564H187L125 64H472L534 564H602L533 0H325L305 -160H238L258 0Z" glyph-name="afii10193.smcp" horiz-adv-x="663" /><glyph d="M231 0H159L770 780H842ZM738 -10Q655 -10 613 41.5Q571 93 583 195Q596 297 651 348.5Q706 400 789 400Q873 400 914.5 348.5Q956 297 943 195Q931 93 876.5 41.5Q822 -10 738 -10ZM781 341Q728 341 693 306.5Q658 272 648 195Q639 118 666 83.5Q693 49 746 49Q800 49 834.5 83.5Q869 118 878 195Q888 272 861.5 306.5Q835 341 781 341ZM79 544Q79 598 93.5 643Q108 688 134.5 720.5Q161 753 199 771.5Q237 790 285 790Q360 790 393 760Q426 730 433 683L369 661Q364 694 345.5 713Q327 732 281 732Q250 732 224.5 718.5Q199 705 181 681Q163 657 153.5 624.5Q144 592 144 554Q144 497 170 467.5Q196 438 244 438Q290 438 313.5 457Q337 476 350 509L410 488Q391 441 351 410.5Q311 380 235 380Q160 380 119.5 423Q79 466 79 544Z" glyph-name="afii61248" horiz-adv-x="1010" unicode="&#8453;" /><glyph d="M20 259Q27 263 37 270Q47 277 62 290V548Q62 615 72 659Q82 703 99 728.5Q116 754 140 764Q164 774 191 774Q243 774 270.5 735.5Q298 697 298 634Q298 577 282 521.5Q266 466 241 417.5Q216 369 186 329Q156 289 128 262V128Q128 85 142 68Q156 51 196 51Q214 51 228 54Q242 57 250 60L262 1Q251 -4 229.5 -7Q208 -10 196 -10Q133 -10 97.5 18.5Q62 47 62 117V210Q46 197 36 190Q26 183 20 180ZM128 350Q148 373 167 404Q186 435 200.5 472Q215 509 224 551Q233 593 233 638Q233 672 224 693.5Q215 715 191 715Q163 715 145.5 676Q128 637 128 543Z" glyph-name="afii61289" horiz-adv-x="330" unicode="&#8467;" /><glyph d="M974 224Q876 224 820.5 277.5Q765 331 765 440Q765 516 784.5 577.5Q804 639 840 682.5Q876 726 927.5 750Q979 774 1042 774Q1141 774 1196 720Q1251 666 1251 556Q1251 481 1231 419.5Q1211 358 1175 314.5Q1139 271 1088 247.5Q1037 224 974 224ZM1034 712Q988 712 951 693.5Q914 675 888.5 640.5Q863 606 849 557Q835 508 835 447Q835 362 874 324Q913 286 982 286Q1027 286 1064 304.5Q1101 323 1127 357.5Q1153 392 1167 440.5Q1181 489 1181 550Q1181 635 1142 673.5Q1103 712 1034 712ZM990 0H904L914 86H1000ZM452 270 517 138 537 320 590 764H661L568 0H505L193 626L174 444L121 0H50L143 764H206Z" glyph-name="afii61352" horiz-adv-x="1276" unicode="&#8470;" /><glyph d="M289 800 357 592H292L207 800ZM538 406 504 124 495 0H435L433 86Q401 41 351.5 15.5Q302 -10 243 -10Q144 -10 91.5 47Q39 104 39 209Q39 281 57.5 341.5Q76 402 111.5 446Q147 490 197.5 515Q248 540 311 540Q370 540 413 514.5Q456 489 477 444L500 530H560ZM463 326Q463 352 454 379Q445 406 425.5 428Q406 450 376.5 463.5Q347 477 305 477Q260 477 224 457.5Q188 438 162.5 403Q137 368 123 321Q109 274 109 218Q109 137 146.5 95Q184 53 253 53Q294 53 327.5 67Q361 81 386.5 103Q412 125 428 152Q444 179 448 204Z" glyph-name="agrave" horiz-adv-x="604" unicode="&#224;" /><glyph d="M294 800 362 592H297L212 800ZM366 574 536 0H462L414 165H141L54 0H-16L294 574ZM173 226H396L374 306L320 509L216 306Z" glyph-name="agrave.smcp" horiz-adv-x="600" unicode="&#57890;" /><glyph d="M538 406 504 124 495 0H435L433 86Q401 41 351.5 15.5Q302 -10 243 -10Q144 -10 91.5 47Q39 104 39 209Q39 281 57.5 341.5Q76 402 111.5 446Q147 490 197.5 515Q248 540 311 540Q370 540 413 514.5Q456 489 477 444L500 530H560ZM463 326Q463 352 454 379Q445 406 425.5 428Q406 450 376.5 463.5Q347 477 305 477Q260 477 224 457.5Q188 438 162.5 403Q137 368 123 321Q109 274 109 218Q109 137 146.5 95Q184 53 253 53Q294 53 327.5 67Q361 81 386.5 103Q412 125 428 152Q444 179 448 204ZM139 592Q145 639 158.5 676Q172 713 195.5 738.5Q219 764 255 777Q291 790 342 790Q393 790 425.5 777Q458 764 475.5 738.5Q493 713 497 676Q501 639 495 592H441Q451 671 426.5 702.5Q402 734 337 734Q272 734 239.5 702.5Q207 671 197 592Z" glyph-name="ainvertedbreve" horiz-adv-x="604" unicode="&#515;" /><glyph d="M454 592Q464 671 439.5 702.5Q415 734 350 734Q285 734 252.5 702.5Q220 671 210 592H154Q160 639 173 676Q186 713 210 738.5Q234 764 269.5 777Q305 790 356 790Q407 790 439.5 777Q472 764 490 738.5Q508 713 512 676Q516 639 510 592ZM366 574 536 0H462L414 165H141L54 0H-16L294 574ZM173 226H396L374 306L320 509L216 306Z" glyph-name="ainvertedbreve.smcp" horiz-adv-x="600" unicode="&#57898;" /><glyph d="M224 -26Q287 -34 315.5 -56Q344 -78 344 -114Q344 -164 309 -187Q274 -210 224 -210Q201 -210 179 -204.5Q157 -199 147 -193L167 -149Q176 -153 185 -156Q194 -158 204.5 -160Q215 -162 226 -162Q256 -162 270.5 -151Q285 -140 285 -123Q285 -100 260.5 -89.5Q236 -79 201 -75Z" glyph-name="altcedilla" horiz-adv-x="600" unicode="&#58390;" /><glyph d="M198 728H470L462 664H190ZM538 406 504 124 495 0H435L433 86Q401 41 351.5 15.5Q302 -10 243 -10Q144 -10 91.5 47Q39 104 39 209Q39 281 57.5 341.5Q76 402 111.5 446Q147 490 197.5 515Q248 540 311 540Q370 540 413 514.5Q456 489 477 444L500 530H560ZM463 326Q463 352 454 379Q445 406 425.5 428Q406 450 376.5 463.5Q347 477 305 477Q260 477 224 457.5Q188 438 162.5 403Q137 368 123 321Q109 274 109 218Q109 137 146.5 95Q184 53 253 53Q294 53 327.5 67Q361 81 386.5 103Q412 125 428 152Q444 179 448 204Z" glyph-name="amacron" horiz-adv-x="604" unicode="&#257;" /><glyph d="M213 728H485L477 664H205ZM366 574 536 0H462L414 165H141L54 0H-16L294 574ZM173 226H396L374 306L320 509L216 306Z" glyph-name="amacron.smcp" horiz-adv-x="600" unicode="&#57896;" /><glyph d="M483 164Q458 186 429 213.5Q400 241 368.5 271Q337 301 304.5 332.5Q272 364 240 395Q170 358 131 310Q92 262 92 184Q92 138 111.5 111Q131 84 157.5 71Q184 58 212 54.5Q240 51 258 51Q336 51 388 80Q440 109 483 164ZM269 468Q313 423 347.5 389Q382 355 411.5 326.5Q441 298 467.5 273.5Q494 249 522 224Q559 298 570 376.5Q581 455 572 533L646 507Q649 467 645 423Q641 379 631 336.5Q621 294 605 253.5Q589 213 568 180L675 76L664 -10L530 118Q426 -10 250 -10Q209 -10 168.5 0Q128 10 95.5 32Q63 54 43 89.5Q23 125 23 177Q23 225 37.5 266Q52 307 76.5 340Q101 373 133 397.5Q165 422 201 437Q188 450 174 465Q160 480 149 499Q138 518 130.5 541Q123 564 123 593Q123 688 180 739Q237 790 340 790Q388 790 423 780Q458 770 481 751.5Q504 733 517 707.5Q530 682 535 651L465 627Q460 676 431 702.5Q402 729 337 729Q265 729 228.5 700Q192 671 192 605Q192 581 199 561.5Q206 542 217.5 525.5Q229 509 242.5 495.5Q256 482 269 468Z" glyph-name="ampersand" horiz-adv-x="731" unicode="&amp;" /><glyph d="M282 574Q366 574 405.5 535.5Q445 497 455 435L385 411Q380 460 357.5 485.5Q335 511 274 511Q214 511 189 486Q164 461 164 422Q164 389 182 365.5Q200 342 222 325Q267 290 301 264.5Q335 239 361.5 220Q388 201 409.5 186.5Q431 172 451 158Q476 188 492 223Q508 258 517.5 294Q527 330 531 366Q535 402 535 435L605 411Q605 384 599.5 349Q594 314 582 275.5Q570 237 551 198Q532 159 504 124Q523 111 542.5 99Q562 87 583 74L572 -10L450 70Q406 34 349 12Q292 -10 218 -10Q183 -10 148.5 -2Q114 6 87 24Q60 42 43 70.5Q26 99 26 140Q26 202 61 241.5Q96 281 149 299Q127 320 110 348Q93 376 93 414Q93 486 140.5 530Q188 574 282 574ZM226 51Q280 51 322 66Q364 81 399 107Q351 140 302.5 177Q254 214 197 259Q153 245 125.5 216.5Q98 188 98 149Q98 116 113.5 97Q129 78 150 67.5Q171 57 192.5 54Q214 51 226 51Z" glyph-name="ampersand.smcp" horiz-adv-x="669" unicode="&#63270;" /><glyph d="M174 -130H106L42 350L223 830H291L113 350Z" glyph-name="anglebracketleft" horiz-adv-x="240" unicode="&#12296;" /><glyph d="M179 -90H111L47 390L228 870H296L118 390Z" glyph-name="anglebracketleft.cap" horiz-adv-x="240" unicode="&#58519;" /><glyph d="M95 -80 47 282 184 644H249L116 282L160 -80Z" glyph-name="anglebracketleft.smcp" horiz-adv-x="240" unicode="&#58527;" /><glyph d="M70 830H138L202 350L21 -130H-47L131 350Z" glyph-name="anglebracketright" horiz-adv-x="240" unicode="&#12297;" /><glyph d="M75 870H143L207 390L26 -90H-42L136 390Z" glyph-name="anglebracketright.cap" horiz-adv-x="240" unicode="&#58520;" /><glyph d="M134 644 181 282 45 -80H-20L112 282L69 644Z" glyph-name="anglebracketright.smcp" horiz-adv-x="240" unicode="&#58512;" /><glyph d="M365 574 536 0H462L374 306L320 509L216 306L54 0H-16L293 574Z" glyph-name="anocross.smcp" horiz-adv-x="600" unicode="&#57888;" /><glyph d="M253 53Q294 53 327.5 68.5Q361 84 386 107.5Q411 131 427 158.5Q443 186 448 211Q449 220 451.5 239Q454 258 456 277Q459 300 462 326Q464 352 455 378.5Q446 405 426 427Q406 449 376 463Q346 477 305 477Q260 477 224 457.5Q188 438 162.5 403Q137 368 123 321Q109 274 109 218Q109 137 146.5 95Q184 53 253 53ZM243 -10Q144 -10 91.5 47Q39 104 39 209Q39 281 57.5 341.5Q76 402 111.5 446Q147 490 197.5 515Q248 540 311 540Q370 540 412.5 512Q455 484 476 439L499 530H559L538 406L503 124L494 0Q441 -17 414 -47.5Q387 -78 383 -109Q381 -126 390.5 -140.5Q400 -155 428 -155Q441 -155 454.5 -151.5Q468 -148 479 -145Q491 -140 503 -134L514 -185Q497 -195 470.5 -202.5Q444 -210 410 -210Q391 -210 373 -204Q355 -198 341.5 -186.5Q328 -175 321 -158Q314 -141 317 -120Q322 -82 348.5 -42Q375 -2 436 26V107Q423 83 402 61.5Q381 40 355.5 24Q330 8 301 -1Q272 -10 243 -10Z" glyph-name="aogonek" horiz-adv-x="604" unicode="&#261;" /><glyph d="M366 574 536 0Q508 -4 481.5 -14.5Q455 -25 434 -40.5Q413 -56 400.5 -75.5Q388 -95 388 -117Q388 -135 399.5 -145Q411 -155 438 -155Q451 -155 464.5 -151.5Q478 -148 489 -145Q501 -140 513 -134L524 -185Q507 -195 481 -202.5Q455 -210 421 -210Q403 -210 385 -205.5Q367 -201 352.5 -191.5Q338 -182 329.5 -167Q321 -152 321 -130Q321 -84 358 -44Q395 -4 455 24L414 165H141L54 0H-16L294 574ZM173 226H396L374 306L320 509L216 306Z" glyph-name="aogonek.smcp" horiz-adv-x="600" unicode="&#57903;" /><glyph d="M70 476Q84 493 105 507Q124 519 152 528Q180 537 220 537Q264 537 296 526Q328 515 357 501.5Q386 488 416 477Q446 466 485 466Q516 466 537.5 473.5Q559 481 573 490Q589 501 600 514L630 464Q616 447 595 434Q576 421 548 412Q520 403 480 403Q437 403 404.5 414Q372 425 342.5 438.5Q313 452 283.5 463Q254 474 215 474Q184 474 162.5 466.5Q141 459 127 450Q111 439 100 426ZM630 304Q616 287 595 274Q576 261 548 252Q520 243 480 243Q437 243 404.5 254Q372 265 343 278.5Q314 292 284 303Q254 314 215 314Q184 314 162.5 306.5Q141 299 127 290Q111 279 100 266L70 316Q84 333 105 347Q124 359 152 368Q180 377 220 377Q264 377 296 366Q328 355 357.5 341.5Q387 328 416.5 317Q446 306 485 306Q516 306 537.5 313.5Q559 321 573 330Q589 341 600 354Z" glyph-name="approxequal" horiz-adv-x="700" unicode="&#8776;" /><glyph d="M538 406 504 124 495 0H435L433 86Q401 41 351.5 15.5Q302 -10 243 -10Q144 -10 91.5 47Q39 104 39 209Q39 281 57.5 341.5Q76 402 111.5 446Q147 490 197.5 515Q248 540 311 540Q370 540 413 514.5Q456 489 477 444L500 530H560ZM463 326Q463 352 454 379Q445 406 425.5 428Q406 450 376.5 463.5Q347 477 305 477Q260 477 224 457.5Q188 438 162.5 403Q137 368 123 321Q109 274 109 218Q109 137 146.5 95Q184 53 253 53Q294 53 327.5 67Q361 81 386.5 103Q412 125 428 152Q444 179 448 204ZM316 582Q267 582 241 609Q215 636 215 678Q215 735 250 772.5Q285 810 344 810Q393 810 419 783Q445 756 445 714Q445 657 410 619.5Q375 582 316 582ZM337 754Q308 754 291 735Q274 716 274 687Q274 665 286.5 651.5Q299 638 323 638Q352 638 369 657Q386 676 386 705Q386 727 373.5 740.5Q361 754 337 754Z" glyph-name="aring" horiz-adv-x="604" unicode="&#229;" /><glyph d="M366 574 536 0H462L414 165H141L54 0H-16L294 574ZM173 226H396L374 306L320 509L216 306ZM331 582Q282 582 256 609Q230 636 230 678Q230 735 265 772.5Q300 810 359 810Q408 810 434 783Q460 756 460 714Q460 657 425 619.5Q390 582 331 582ZM352 754Q323 754 306 735Q289 716 289 687Q289 665 301.5 651.5Q314 638 338 638Q367 638 384 657Q401 676 401 705Q401 727 388.5 740.5Q376 754 352 754Z" glyph-name="aring.smcp" horiz-adv-x="600" unicode="&#57894;" /><glyph d="M415 904 344 810Q394 810 419.5 783.5Q445 757 445 714Q445 657 410 619.5Q375 582 316 582Q267 582 241 609Q215 636 215 678Q215 727 242 762L338 904ZM337 754Q308 754 291 735Q274 716 274 687Q274 665 286.5 651.5Q299 638 323 638Q352 638 369.5 657Q387 676 387 705Q387 727 374 740.5Q361 754 337 754ZM538 406 504 124 495 0H435L433 86Q401 41 351.5 15.5Q302 -10 243 -10Q144 -10 91.5 47Q39 104 39 209Q39 281 57.5 341.5Q76 402 111.5 446Q147 490 197.5 515Q248 540 311 540Q370 540 413 514.5Q456 489 477 444L500 530H560ZM463 326Q463 352 454 379Q445 406 425.5 428Q406 450 376.5 463.5Q347 477 305 477Q260 477 224 457.5Q188 438 162.5 403Q137 368 123 321Q109 274 109 218Q109 137 146.5 95Q184 53 253 53Q294 53 327.5 67Q361 81 386.5 103Q412 125 428 152Q444 179 448 204Z" glyph-name="aringacute" horiz-adv-x="604" unicode="&#507;" /><glyph d="M430 904 359 810Q413 810 439 778Q465 746 459 696Q453 646 419 614Q385 582 331 582Q277 582 251 614Q225 646 231 696Q236 735 257 762L353 904ZM289 696Q286 670 299 654Q312 638 338 638Q364 638 381 654Q398 670 401 696Q404 722 391 738Q378 754 352 754Q326 754 309 738Q292 722 289 696ZM366 574 536 0H462L414 165H141L54 0H-16L294 574ZM173 226H396L374 306L320 509L216 306Z" glyph-name="aringacute.smcp" horiz-adv-x="600" unicode="&#63013;" /><glyph d="M401 -10 154 390H229L344 198L399 97L398 200V780H462V200L461 97L516 198L631 390H706L459 -10Z" glyph-name="arrowdown" horiz-adv-x="860" unicode="&#8595;" /><glyph d="M30 419 430 666V591L238 476L137 421L240 422H820V358H240L137 359L238 304L430 189V114L30 361Z" glyph-name="arrowleft" horiz-adv-x="860" unicode="&#8592;" /><glyph d="M830 361 430 114V189L622 304L723 359L620 358H40V422H620L723 421L622 476L430 591V666L830 419Z" glyph-name="arrowright" horiz-adv-x="860" unicode="&#8594;" /><glyph d="M459 790 706 390H631L516 582L461 683L462 580V0H398V580L399 683L344 582L229 390H154L401 790Z" glyph-name="arrowup" horiz-adv-x="860" unicode="&#8593;" /><glyph d="M205 591 92 400H23L255 790H327L465 400H396L329 591L284 725Z" glyph-name="asciicircum" horiz-adv-x="470" unicode="^" /><glyph d="M31 341Q44 358 62 372Q79 384 102.5 393Q126 402 159 402Q192 402 212 390.5Q232 379 249 365.5Q266 352 283.5 341Q301 330 328 331Q350 332 366.5 339.5Q383 347 394 356Q407 366 416 379L440 329Q427 312 409 299Q392 286 368.5 277Q345 268 312 268Q279 268 259 279.5Q239 291 222 304.5Q205 318 187.5 329Q170 340 143 339Q121 338 104.5 330.5Q88 323 77 314Q64 304 55 291Z" glyph-name="asciitilde" horiz-adv-x="470" unicode="~" /><glyph d="M242 780 220 681 315 721 330 652 230 631 286 557 222 514 183 598 123 515 69 558 143 631 50 652 81 722 169 682V780Z" glyph-name="asterisk" horiz-adv-x="300" unicode="*" /><glyph d="M564 800Q668 800 745 774.5Q822 749 872 703.5Q922 658 946.5 594.5Q971 531 971 454Q971 366 953.5 293.5Q936 221 898.5 169Q861 117 802.5 88.5Q744 60 663 60H628L626 146Q599 101 549 75.5Q499 50 447 50Q407 50 371.5 61.5Q336 73 309 97Q282 121 266.5 158.5Q251 196 251 248Q251 319 272 373.5Q293 428 328.5 465Q364 502 410 521Q456 540 507 540Q559 540 602.5 514.5Q646 489 663 444L686 530H746L724 406L697 184L691 120Q753 117 794.5 144Q836 171 861.5 216.5Q887 262 898 320.5Q909 379 909 440Q909 499 890 553Q871 607 829 648Q787 689 719.5 714Q652 739 556 739Q447 739 363 696.5Q279 654 221.5 582Q164 510 134.5 414.5Q105 319 105 212Q105 132 126.5 65.5Q148 -1 191.5 -48.5Q235 -96 301 -122.5Q367 -149 457 -149Q531 -149 587.5 -137.5Q644 -126 683.5 -107.5Q723 -89 747.5 -66.5Q772 -44 782 -22L845 -44Q829 -73 798.5 -102.5Q768 -132 720 -156Q672 -180 605 -195Q538 -210 450 -210Q353 -210 276.5 -182Q200 -154 147.5 -100.5Q95 -47 67.5 29.5Q40 106 40 203Q40 332 78 441.5Q116 551 185 630.5Q254 710 350.5 755Q447 800 564 800ZM649 326Q649 352 641 379Q633 406 615.5 428Q598 450 570 463.5Q542 477 501 477Q461 477 427 463Q393 449 368.5 420.5Q344 392 330.5 350Q317 308 317 252Q317 213 327.5 186.5Q338 160 356.5 143.5Q375 127 400.5 120Q426 113 456 113Q495 113 527.5 127Q560 141 584 163Q608 185 622.5 212Q637 239 641 264Z" glyph-name="at" horiz-adv-x="1010" unicode="@" /><glyph d="M575 895Q679 895 756 869.5Q833 844 883 798.5Q933 753 957.5 689.5Q982 626 982 549Q982 461 964.5 388.5Q947 316 909.5 264Q872 212 813.5 183.5Q755 155 674 155H639L637 241Q610 196 560 170.5Q510 145 458 145Q418 145 382.5 156.5Q347 168 320 192Q293 216 277.5 253.5Q262 291 262 343Q262 414 283 468.5Q304 523 339.5 560Q375 597 421 616Q467 635 518 635Q570 635 613.5 609.5Q657 584 674 539L697 625H757L735 501L708 279L702 215Q764 212 805.5 239Q847 266 872.5 311.5Q898 357 909 415.5Q920 474 920 535Q920 594 901 648Q882 702 840 743Q798 784 730.5 809Q663 834 567 834Q458 834 374 791.5Q290 749 232.5 677Q175 605 145.5 509.5Q116 414 116 307Q116 227 137.5 160.5Q159 94 202.5 46.5Q246 -1 312 -27.5Q378 -54 468 -54Q542 -54 598.5 -42.5Q655 -31 694.5 -12.5Q734 6 758.5 28.5Q783 51 793 73L856 51Q840 22 809.5 -7.5Q779 -37 731 -61Q683 -85 616 -100Q549 -115 461 -115Q364 -115 287.5 -87Q211 -59 158.5 -5.5Q106 48 78.5 124.5Q51 201 51 298Q51 427 89 536.5Q127 646 196 725.5Q265 805 361.5 850Q458 895 575 895ZM660 421Q660 447 652 474Q644 501 626.5 523Q609 545 581 558.5Q553 572 512 572Q472 572 438 558Q404 544 379.5 515.5Q355 487 341.5 445Q328 403 328 347Q328 308 338.5 281.5Q349 255 367.5 238.5Q386 222 411.5 215Q437 208 467 208Q506 208 538.5 222Q571 236 595 258Q619 280 633.5 307Q648 334 652 359Z" glyph-name="at.cap" horiz-adv-x="1010" unicode="&#58643;" /><glyph d="M563 787Q667 787 744 761.5Q821 736 871 690.5Q921 645 945.5 581.5Q970 518 970 441Q970 353 952.5 280.5Q935 208 897.5 156Q860 104 801.5 75.5Q743 47 662 47H627L625 133Q598 88 548 62.5Q498 37 446 37Q406 37 370.5 48.5Q335 60 308 84Q281 108 265.5 145.5Q250 183 250 235Q250 306 271 360.5Q292 415 327.5 452Q363 489 409 508Q455 527 506 527Q558 527 601.5 501.5Q645 476 662 431L685 517H745L723 393L696 171L690 107Q752 104 793.5 131Q835 158 860.5 203.5Q886 249 897 307.5Q908 366 908 427Q908 486 889 540Q870 594 828 635Q786 676 718.5 701Q651 726 555 726Q446 726 362 683.5Q278 641 220.5 569Q163 497 133.5 401.5Q104 306 104 199Q104 119 125.5 52.5Q147 -14 190.5 -61.5Q234 -109 300 -135.5Q366 -162 456 -162Q530 -162 586.5 -150.5Q643 -139 682.5 -120.5Q722 -102 746.5 -79.5Q771 -57 781 -35L844 -57Q828 -86 797.5 -115.5Q767 -145 719 -169Q671 -193 604 -208Q537 -223 449 -223Q352 -223 275.5 -195Q199 -167 146.5 -113.5Q94 -60 66.5 16.5Q39 93 39 190Q39 319 77 428.5Q115 538 184 617.5Q253 697 349.5 742Q446 787 563 787ZM648 313Q648 339 640 366Q632 393 614.5 415Q597 437 569 450.5Q541 464 500 464Q460 464 426 450Q392 436 367.5 407.5Q343 379 329.5 337Q316 295 316 239Q316 200 326.5 173.5Q337 147 355.5 130.5Q374 114 399.5 107Q425 100 455 100Q494 100 526.5 114Q559 128 583 150Q607 172 621.5 199Q636 226 640 251Z" glyph-name="at.smcp" horiz-adv-x="1010" unicode="&#62987;" /><glyph d="M538 406 504 124 495 0H435L433 86Q401 41 351.5 15.5Q302 -10 243 -10Q144 -10 91.5 47Q39 104 39 209Q39 281 57.5 341.5Q76 402 111.5 446Q147 490 197.5 515Q248 540 311 540Q370 540 413 514.5Q456 489 477 444L500 530H560ZM463 326Q463 352 454 379Q445 406 425.5 428Q406 450 376.5 463.5Q347 477 305 477Q260 477 224 457.5Q188 438 162.5 403Q137 368 123 321Q109 274 109 218Q109 137 146.5 95Q184 53 253 53Q294 53 327.5 67Q361 81 386.5 103Q412 125 428 152Q444 179 448 204ZM402 630Q370 630 350.5 641.5Q331 653 316 667.5Q301 682 286.5 693.5Q272 705 250 705Q230 705 216.5 697Q203 689 196 679Q187 668 182 653L128 661Q142 704 172.5 734Q203 764 258 764Q290 764 309.5 752.5Q329 741 344 726.5Q359 712 373.5 700.5Q388 689 410 689Q431 689 444 697Q457 705 465 715Q474 726 478 741L533 733Q518 690 488 660Q458 630 402 630Z" glyph-name="atilde" horiz-adv-x="604" unicode="&#227;" /><glyph d="M408 630Q378 632 360.5 643Q343 654 329.5 667.5Q316 681 303.5 692.5Q291 704 271 705Q249 707 234.5 699Q220 691 212 681Q202 669 197 653L143 661Q151 683 162 702.5Q173 722 190 736Q207 750 229.5 758Q252 766 282 764Q312 763 329.5 751.5Q347 740 360.5 726.5Q374 713 387 701.5Q400 690 419 689Q442 687 456 695Q470 703 479 714Q488 725 493 741L548 733Q540 711 528.5 691.5Q517 672 500 658Q483 644 460.5 636.5Q438 629 408 630ZM366 574 536 0H462L414 165H141L54 0H-16L294 574ZM173 226H396L374 306L320 509L216 306Z" glyph-name="atilde.smcp" horiz-adv-x="600" unicode="&#57893;" /><glyph d="M150 445Q182 489 231.5 514.5Q281 540 340 540Q440 540 492.5 483.5Q545 427 545 321Q545 249 526 188.5Q507 128 471.5 84Q436 40 385.5 15Q335 -10 272 -10Q213 -10 170 15.5Q127 41 106 86L84 0H24L45 124L128 800H194ZM278 53Q323 53 359.5 72.5Q396 92 421.5 127Q447 162 460.5 209.5Q474 257 474 312Q474 392 436.5 434.5Q399 477 330 477Q290 477 256 463Q222 449 196.5 427Q171 405 155.5 378Q140 351 136 326L121 204Q121 177 130 150.5Q139 124 158 102Q177 80 206.5 66.5Q236 53 278 53Z" glyph-name="b" horiz-adv-x="599" unicode="b" /><glyph d="M50 0 119 564H394Q423 564 451 558.5Q479 553 501 539Q523 525 537 501Q551 477 551 439Q551 403 541 377.5Q531 352 515.5 334.5Q500 317 482 308.5Q464 300 447 298Q482 295 508.5 267Q535 239 535 185Q535 130 515.5 94Q496 58 465 37Q434 16 396 8Q358 0 320 0ZM329 63Q359 63 384 68.5Q409 74 427 87.5Q445 101 455 123.5Q465 146 465 180Q465 225 437 243.5Q409 262 361 262H150L125 63ZM179 499 157 323H355Q482 323 482 434Q482 470 458 484.5Q434 499 377 499Z" glyph-name="b.smcp" horiz-adv-x="605" unicode="&#57858;" /><glyph d="M282 729Q346 729 379 693.5Q412 658 412 592Q412 546 400.5 507.5Q389 469 366.5 441Q344 413 312 397.5Q280 382 239 382Q204 382 177.5 397Q151 412 138 438L124 390H71L85 473L136 891H196L170 678Q190 701 219 715Q248 729 282 729ZM150 516Q150 503 156 489Q162 475 173 463.5Q184 452 201 445Q218 438 239 438Q289 438 319 478.5Q349 519 349 582Q349 627 327.5 650.5Q306 674 268 674Q247 674 228.5 667Q210 660 196 648.5Q182 637 172.5 623.5Q163 610 160 596Z" glyph-name="b.superior" horiz-adv-x="432" unicode="&#58210;" /><glyph d="M76 870H146L258 -90H188Z" glyph-name="backslash" horiz-adv-x="320" unicode="\" /><glyph d="M85 800H155L250 -20H180Z" glyph-name="backslash.cap" horiz-adv-x="320" unicode="&#58466;" /><glyph d="M58 584H128L198 -20H128Z" glyph-name="backslash.smcp" horiz-adv-x="320" unicode="&#58472;" /><glyph d="M90 530H620V0H90ZM160 464V66H550V464ZM310 265 180 394 226 440 355 310 484 440 530 394 400 265 530 136 484 90 355 220 226 90 180 136Z" glyph-name="ballotboxwithx" horiz-adv-x="710" unicode="&#9746;" /><glyph d="M114 -130H44L161 830H231Z" glyph-name="bar" horiz-adv-x="270" unicode="|" /><glyph d="M127 -20H57L158 800H228Z" glyph-name="bar.cap" horiz-adv-x="270" unicode="&#58467;" /><glyph d="M127 -20H57L131 584H201Z" glyph-name="bar.smcp" horiz-adv-x="270" unicode="&#58473;" /><glyph d="M361 55Q434 55 485.5 80Q537 105 571.5 147.5Q606 190 626 246.5Q646 303 655 367H144Q138 303 143.5 246.5Q149 190 173 147.5Q197 105 242.5 80Q288 55 361 55ZM444 725Q374 725 323.5 702Q273 679 238.5 639.5Q204 600 183.5 546.5Q163 493 153 433H663Q667 493 659.5 546.5Q652 600 627 639.5Q602 679 558 702Q514 725 444 725ZM353 -10Q278 -10 224 11.5Q170 33 135 73Q100 113 83 170Q66 227 66 298Q66 399 89 488.5Q112 578 159.5 645Q207 712 279.5 751Q352 790 451 790Q526 790 580 768.5Q634 747 669.5 707.5Q705 668 721.5 611Q738 554 738 482Q738 381 715 291.5Q692 202 644.5 135Q597 68 524.5 29Q452 -10 353 -10Z" glyph-name="barredO" horiz-adv-x="790" unicode="&#59192;" /><glyph d="M255 52Q329 52 379.5 95.5Q430 139 447 239H108Q102 140 142 96Q182 52 255 52ZM307 478Q235 478 185 435.5Q135 393 116 298H454Q459 393 419 435.5Q379 478 307 478ZM247 -10Q149 -10 93.5 43.5Q38 97 38 206Q38 282 57.5 343.5Q77 405 113.5 448.5Q150 492 201 516Q252 540 315 540Q414 540 469 486.5Q524 433 524 324Q524 248 504.5 186.5Q485 125 448.5 81.5Q412 38 361 14Q310 -10 247 -10Z" glyph-name="barredo" horiz-adv-x="578" unicode="&#59191;" /><glyph d="M306 52Q348 52 385 64.5Q422 77 452 102.5Q482 128 503 167Q524 206 533 260H127Q124 206 135.5 167Q147 128 171 102.5Q195 77 229.5 64.5Q264 52 306 52ZM362 512Q282 512 221 466.5Q160 421 137 324H540Q541 372 528 407.5Q515 443 491.5 466.5Q468 490 435 501Q402 512 362 512ZM298 -10Q186 -10 121 51.5Q56 113 56 231Q56 318 80 382.5Q104 447 146.5 489.5Q189 532 246.5 553Q304 574 370 574Q482 574 547 512.5Q612 451 612 333Q612 246 588 181.5Q564 117 521.5 74.5Q479 32 421.5 11Q364 -10 298 -10Z" glyph-name="barredo.smcp" horiz-adv-x="680" unicode="&#58007;" /><glyph d="M80 390Q80 473 111.5 546Q143 619 197 673Q251 727 324 758.5Q397 790 480 790Q563 790 636 758.5Q709 727 763 673Q817 619 848.5 546Q880 473 880 390Q880 307 848.5 234Q817 161 763 107Q709 53 636 21.5Q563 -10 480 -10Q397 -10 324 21.5Q251 53 197 107Q143 161 111.5 234Q80 307 80 390Z" glyph-name="blackcircle" horiz-adv-x="960" unicode="&#9679;" /><glyph d="M620 0H90V530H620Z" glyph-name="blacksmallsquare" horiz-adv-x="710" unicode="&#9642;" /><glyph d="M870 0H90V780H870Z" glyph-name="blacksquare" horiz-adv-x="960" unicode="&#9632;" /><glyph d="M33 381Q52 381 66.5 385Q81 389 91.5 399.5Q102 410 108.5 429Q115 448 119 479L144 677Q147 703 156 730.5Q165 758 184 780Q203 802 234 816Q265 830 312 830H331L323 764H304Q285 764 269 760Q253 756 241 745.5Q229 735 220.5 716Q212 697 208 666L184 472Q180 439 167 406Q154 373 123 350Q149 327 154 293.5Q159 260 154 228L131 34Q127 3 131 -16Q135 -35 144.5 -45.5Q154 -56 169 -60Q184 -64 203 -64H222L214 -130H195Q148 -130 120 -116Q92 -102 78.5 -80Q65 -58 62.5 -30.5Q60 -3 63 23L88 221Q92 252 89.5 271Q87 290 79.5 300.5Q72 311 58.5 315Q45 319 26 319H7L14 381Z" glyph-name="braceleft" horiz-adv-x="280" unicode="{" /><glyph d="M38 421Q57 421 71.5 425Q86 429 96.5 439.5Q107 450 113.5 469Q120 488 124 519L149 717Q152 743 161 770.5Q170 798 189 820Q208 842 239 856Q270 870 317 870H336L328 804H309Q290 804 274 800Q258 796 246 785.5Q234 775 225.5 756Q217 737 213 706L189 512Q185 479 172 446Q159 413 128 390Q154 367 159 333.5Q164 300 159 268L136 74Q132 43 136 24Q140 5 149.5 -5.5Q159 -16 174 -20Q189 -24 208 -24H227L219 -90H200Q153 -90 125 -76Q97 -62 83.5 -40Q70 -18 67.5 9.5Q65 37 68 63L93 261Q97 292 94.5 311Q92 330 84.5 340.5Q77 351 63.5 355Q50 359 31 359H12L19 421Z" glyph-name="braceleft.cap" horiz-adv-x="280" unicode="&#58517;" /><glyph d="M25 313Q44 313 58.5 317Q73 321 83.5 331.5Q94 342 100.5 361Q107 380 111 411L121 491Q124 517 133 544.5Q142 572 161 594Q180 616 211.5 630Q243 644 290 644H309L300 578H281Q262 578 246.5 574Q231 570 218.5 559.5Q206 549 197.5 530Q189 511 185 480L176 404Q172 371 159 338Q146 305 115 282Q140 259 145 225.5Q150 192 146 160L137 84Q133 53 137 34Q141 15 150.5 4.5Q160 -6 175 -10Q190 -14 209 -14H228L220 -80H201Q154 -80 126 -66Q98 -52 84.5 -30Q71 -8 68.5 19.5Q66 47 69 73L79 153Q83 184 80.5 203Q78 222 70.5 232.5Q63 243 49.5 247Q36 251 17 251H-2L6 313Z" glyph-name="braceleft.smcp" horiz-adv-x="280" unicode="&#58525;" /><glyph d="M252 319Q233 319 219 315Q205 311 194.5 300.5Q184 290 177 271Q170 252 166 221L141 23Q138 -3 129 -30.5Q120 -58 101 -80Q82 -102 51 -116Q20 -130 -27 -130H-45L-38 -64H-19Q0 -64 16 -60Q32 -56 44 -45.5Q56 -35 64.5 -16Q73 3 77 34L100 228Q105 261 118 294Q131 327 161 350Q136 373 131 406.5Q126 440 130 472L154 666Q158 697 154 716Q150 735 140.5 745.5Q131 756 116 760Q101 764 82 764H63L71 830H90Q137 830 165 816Q193 802 206.5 780Q220 758 222.5 730.5Q225 703 222 677L197 479Q193 448 195.5 429Q198 410 205.5 399.5Q213 389 226.5 385Q240 381 259 381H278L271 319Z" glyph-name="braceright" horiz-adv-x="280" unicode="}" /><glyph d="M257 359Q238 359 224 355Q210 351 199.5 340.5Q189 330 182 311Q175 292 171 261L146 63Q143 37 134 9.5Q125 -18 106 -40Q87 -62 56 -76Q25 -90 -22 -90H-41L-33 -24H-14Q5 -24 21 -20Q37 -16 49 -5.5Q61 5 69.5 24Q78 43 82 74L106 268Q110 301 123 334Q136 367 167 390Q141 413 136 446.5Q131 480 136 512L159 706Q163 737 159 756Q155 775 145.5 785.5Q136 796 121 800Q106 804 87 804H68L76 870H95Q142 870 170 856Q198 842 211.5 820Q225 798 227.5 770.5Q230 743 227 717L202 519Q198 488 200.5 469Q203 450 210.5 439.5Q218 429 231.5 425Q245 421 264 421H283L276 359Z" glyph-name="braceright.cap" horiz-adv-x="280" unicode="&#58518;" /><glyph d="M243 251Q224 251 210 247Q196 243 185.5 232.5Q175 222 168 203Q161 184 157 153L147 73Q144 47 135 19.5Q126 -8 107 -30Q88 -52 57 -66Q26 -80 -21 -80H-40L-32 -14H-13Q6 -14 22 -10Q38 -6 50 4.5Q62 15 70.5 34Q79 53 83 84L92 160Q97 193 109.5 226Q122 259 153 282Q128 305 123 338.5Q118 372 122 404L131 480Q135 511 131.5 530Q128 549 118 559.5Q108 570 93 574Q78 578 59 578H40L49 644H68Q115 644 142.5 630Q170 616 183.5 594Q197 572 199.5 544.5Q202 517 199 491L189 411Q185 380 187.5 361Q190 342 197.5 331.5Q205 321 218.5 317Q232 313 251 313H270L262 251Z" glyph-name="braceright.smcp" horiz-adv-x="280" unicode="&#58526;" /><glyph d="M122 -64H182L174 -130H44L161 830H291L283 764H223Z" glyph-name="bracketleft" horiz-adv-x="240" unicode="[" /><glyph d="M127 -24H187L178 -90H48L166 870H296L288 804H228Z" glyph-name="bracketleft.cap" horiz-adv-x="240" unicode="&#58515;" /><glyph d="M128 -14H188L180 -80H50L139 644H269L260 578H200Z" glyph-name="bracketleft.smcp" horiz-adv-x="240" unicode="&#58523;" /><glyph d="M123 764H63L71 830H201L84 -130H-45L-38 -64H22Z" glyph-name="bracketright" horiz-adv-x="240" unicode="]" /><glyph d="M128 804H68L76 870H206L88 -90H-41L-33 -24H27Z" glyph-name="bracketright.cap" horiz-adv-x="240" unicode="&#58516;" /><glyph d="M100 578H40L49 644H179L90 -80H-40L-32 -14H28Z" glyph-name="bracketright.smcp" horiz-adv-x="240" unicode="&#58524;" /><glyph d="M536 800Q530 753 516.5 716Q503 679 479.5 653.5Q456 628 420 615Q384 602 333 602Q282 602 249.5 615Q217 628 199.5 653.5Q182 679 178 716Q174 753 180 800H234Q224 721 248.5 689.5Q273 658 338 658Q403 658 435.5 689.5Q468 721 478 800Z" glyph-name="breve" horiz-adv-x="600" unicode="&#728;" /><glyph d="M564 1030Q558 983 544.5 946Q531 909 507.5 883.5Q484 858 448 845Q412 832 361 832Q310 832 277.5 845Q245 858 227.5 883.5Q210 909 206 946Q202 983 208 1030H262Q252 951 276.5 919.5Q301 888 366 888Q431 888 463.5 919.5Q496 951 506 1030Z" glyph-name="breve.cap" horiz-adv-x="600" unicode="&#58406;" /><glyph d="M114 -130H44L98 315H168ZM177 385H107L161 830H231Z" glyph-name="brokenbar" horiz-adv-x="270" unicode="&#166;" /><glyph d="M182 425H112L158 800H228ZM173 355 127 -20H57L103 355Z" glyph-name="brokenbar.cap" horiz-adv-x="270" unicode="&#58469;" /><glyph d="M168 317H98L131 584H201ZM160 247 127 -20H57L90 247Z" glyph-name="brokenbar.smcp" horiz-adv-x="270" unicode="&#58475;" /><glyph d="M299 206H41L72 464H330Z" glyph-name="bullet" horiz-adv-x="370" unicode="&#8226;" /><glyph d="M306 261H48L79 519H337Z" glyph-name="bullet.cap" horiz-adv-x="370" unicode="&#58470;" /><glyph d="M292 153H34L66 411H324Z" glyph-name="bullet.smcp" horiz-adv-x="370" unicode="&#58476;" /><glyph d="M80 390Q80 473 111.5 546Q143 619 197 673Q251 727 324 758.5Q397 790 480 790Q563 790 636 758.5Q709 727 763 673Q817 619 848.5 546Q880 473 880 390Q880 307 848.5 234Q817 161 763 107Q709 53 636 21.5Q563 -10 480 -10Q397 -10 324 21.5Q251 53 197 107Q143 161 111.5 234Q80 307 80 390ZM330 390Q330 421 342 448.5Q354 476 374 496Q394 516 421.5 528Q449 540 480 540Q511 540 538.5 528Q566 516 586 496Q606 476 618 448.5Q630 421 630 390Q630 359 618 331.5Q606 304 586 284Q566 264 538.5 252Q511 240 480 240Q449 240 421.5 252Q394 264 374 284Q354 304 342 331.5Q330 359 330 390ZM157 339Q157 282 178.5 232.5Q200 183 236.5 146.5Q273 110 322.5 88.5Q372 67 429 67Q486 67 535.5 88.5Q585 110 622 146.5Q659 183 680.5 232.5Q702 282 702 339Q702 396 680.5 445.5Q659 495 622 532Q585 569 535.5 590.5Q486 612 429 612Q372 612 322.5 590.5Q273 569 236.5 532Q200 495 178.5 445.5Q157 396 157 339Z" glyph-name="bullseye" horiz-adv-x="960" unicode="&#9678;" /><glyph d="M438 377Q433 425 404.5 452Q376 479 311 479Q264 479 226.5 459.5Q189 440 162.5 405.5Q136 371 122 323Q108 275 108 218Q108 135 147.5 93Q187 51 259 51Q323 51 358 78Q393 105 410 153L475 130Q451 68 397 29Q343 -10 245 -10Q145 -10 92 47Q39 104 39 210Q39 282 58 342.5Q77 403 112.5 447Q148 491 198.5 515.5Q249 540 313 540Q361 540 396 530Q431 520 454 501.5Q477 483 490 457.5Q503 432 508 401Z" glyph-name="c" horiz-adv-x="550" unicode="c" /><glyph d="M361 511Q302 511 258.5 489Q215 467 186 429Q157 391 143 340.5Q129 290 129 233Q129 144 173.5 98.5Q218 53 298 53Q374 53 419.5 80Q465 107 484 161L550 138Q524 71 462 30.5Q400 -10 291 -10Q177 -10 116 51Q55 112 55 225Q55 308 77.5 372.5Q100 437 140.5 482Q181 527 238 550.5Q295 574 363 574Q471 574 523.5 533.5Q576 493 586 427L514 403Q509 454 471 482.5Q433 511 361 511Z" glyph-name="c.smcp" horiz-adv-x="640" unicode="&#57859;" /><glyph d="M251 676Q197 676 165.5 635.5Q134 595 134 530Q134 484 157.5 460Q181 436 221 436Q259 436 279 451Q299 466 307 492L363 472Q349 432 314 407Q279 382 210 382Q146 382 111 418Q76 454 76 521Q76 566 88 604.5Q100 643 123 670.5Q146 698 179 713.5Q212 729 253 729Q322 729 351 704Q380 679 383 640L323 619Q321 645 305 660.5Q289 676 251 676Z" glyph-name="c.superior" horiz-adv-x="395" unicode="&#58211;" /><glyph d="M491 800 354 592H289L409 800ZM438 377Q433 425 404.5 452Q376 479 311 479Q264 479 226.5 459.5Q189 440 162.5 405.5Q136 371 122 323Q108 275 108 218Q108 135 147.5 93Q187 51 259 51Q323 51 358 78Q393 105 410 153L475 130Q451 68 397 29Q343 -10 245 -10Q145 -10 92 47Q39 104 39 210Q39 282 58 342.5Q77 403 112.5 447Q148 491 198.5 515.5Q249 540 313 540Q361 540 396 530Q431 520 454 501.5Q477 483 490 457.5Q503 432 508 401Z" glyph-name="cacute" horiz-adv-x="550" unicode="&#263;" /><glyph d="M537 800 400 592H335L455 800ZM361 511Q302 511 258.5 489Q215 467 186 429Q157 391 143 340.5Q129 290 129 233Q129 144 173.5 98.5Q218 53 298 53Q374 53 419.5 80Q465 107 484 161L550 138Q524 71 462 30.5Q400 -10 291 -10Q177 -10 116 51Q55 112 55 225Q55 308 77.5 372.5Q100 437 140.5 482Q181 527 238 550.5Q295 574 363 574Q471 574 523.5 533.5Q576 493 586 427L514 403Q509 454 471 482.5Q433 511 361 511Z" glyph-name="cacute.smcp" horiz-adv-x="640" unicode="&#57908;" /><glyph d="M241 800 339 650 475 800H544L368 592H300L176 800Z" glyph-name="caron" horiz-adv-x="600" unicode="&#711;" /><glyph d="M269 1030 367 880 503 1030H572L396 822H328L204 1030Z" glyph-name="caron.cap" horiz-adv-x="600" unicode="&#58413;" /><glyph d="M464 800 363 592H302L385 800Z" glyph-name="caronSlovak" horiz-adv-x="600" unicode="&#58387;" /><glyph d="M438 377Q433 425 404.5 452Q376 479 311 479Q264 479 226.5 459.5Q189 440 162.5 405.5Q136 371 122 323Q108 275 108 218Q108 135 147.5 93Q187 51 259 51Q323 51 358 78Q393 105 410 153L475 130Q451 68 397 29Q343 -10 245 -10Q145 -10 92 47Q39 104 39 210Q39 282 58 342.5Q77 403 112.5 447Q148 491 198.5 515.5Q249 540 313 540Q361 540 396 530Q431 520 454 501.5Q477 483 490 457.5Q503 432 508 401ZM225 800 323 650 459 800H528L352 592H284L160 800Z" glyph-name="ccaron" horiz-adv-x="550" unicode="&#269;" /><glyph d="M575 800 399 592H331L207 800H274L372 650L508 800ZM361 511Q302 511 258.5 489Q215 467 186 429Q157 391 143 340.5Q129 290 129 233Q129 144 173.5 98.5Q218 53 298 53Q374 53 419.5 80Q465 107 484 161L550 138Q524 71 462 30.5Q400 -10 291 -10Q177 -10 116 51Q55 112 55 225Q55 308 77.5 372.5Q100 437 140.5 482Q181 527 238 550.5Q295 574 363 574Q471 574 523.5 533.5Q576 493 586 427L514 403Q509 454 471 482.5Q433 511 361 511Z" glyph-name="ccaron.smcp" horiz-adv-x="640" unicode="&#57910;" /><glyph d="M438 377Q433 425 404.5 452Q376 479 311 479Q264 479 226.5 459.5Q189 440 162.5 405.5Q136 371 122 323Q108 275 108 218Q108 135 147.5 93Q187 51 259 51Q323 51 358 78Q393 105 410 153L475 130Q452 71 403 33.5Q354 -4 267 -9L257 -34Q289 -42 311.5 -60.5Q334 -79 334 -114Q334 -164 299 -187Q264 -210 214 -210Q191 -210 169 -204.5Q147 -199 137 -193L157 -149Q166 -153 175 -156Q184 -158 194.5 -160Q205 -162 216 -162Q246 -162 260.5 -151Q275 -140 275 -123Q275 -100 250.5 -89.5Q226 -79 191 -75L222 -9Q133 -2 86 54Q39 110 39 210Q39 282 58 342.5Q77 403 112.5 447Q148 491 198.5 515.5Q249 540 313 540Q361 540 396 530Q431 520 454 501.5Q477 483 490 457.5Q503 432 508 401Z" glyph-name="ccedilla" horiz-adv-x="550" unicode="&#231;" /><glyph d="M361 511Q302 511 258.5 489Q215 467 186 429Q157 391 143 340.5Q129 290 129 233Q129 144 173.5 98.5Q218 53 298 53Q374 53 419.5 80Q465 107 484 161L550 138Q525 75 470.5 36Q416 -3 320 -9L310 -34Q342 -42 364.5 -60.5Q387 -79 387 -114Q387 -164 352 -187Q317 -210 267 -210Q244 -210 222 -204.5Q200 -199 190 -193L210 -149Q219 -153 228 -156Q237 -158 247.5 -160Q258 -162 269 -162Q299 -162 313.5 -151Q328 -140 328 -123Q328 -100 303.5 -89.5Q279 -79 244 -75L274 -10Q168 -5 111.5 55.5Q55 116 55 225Q55 308 77.5 372.5Q100 437 140.5 482Q181 527 238 550.5Q295 574 363 574Q471 574 523.5 533.5Q576 493 586 427L514 403Q509 454 471 482.5Q433 511 361 511Z" glyph-name="ccedilla.smcp" horiz-adv-x="640" unicode="&#57912;" /><glyph d="M438 377Q433 425 404.5 452Q376 479 311 479Q264 479 226.5 459.5Q189 440 162.5 405.5Q136 371 122 323Q108 275 108 218Q108 135 147.5 93Q187 51 259 51Q323 51 358 78Q393 105 410 153L475 130Q451 68 397 29Q343 -10 245 -10Q145 -10 92 47Q39 104 39 210Q39 282 58 342.5Q77 403 112.5 447Q148 491 198.5 515.5Q249 540 313 540Q361 540 396 530Q431 520 454 501.5Q477 483 490 457.5Q503 432 508 401ZM438 592 340 742 204 592H135L311 800H379L503 592Z" glyph-name="ccircumflex" horiz-adv-x="550" unicode="&#265;" /><glyph d="M482 592 384 742 248 592H181L357 800H425L549 592ZM361 511Q302 511 258.5 489Q215 467 186 429Q157 391 143 340.5Q129 290 129 233Q129 144 173.5 98.5Q218 53 298 53Q374 53 419.5 80Q465 107 484 161L550 138Q524 71 462 30.5Q400 -10 291 -10Q177 -10 116 51Q55 112 55 225Q55 308 77.5 372.5Q100 437 140.5 482Q181 527 238 550.5Q295 574 363 574Q471 574 523.5 533.5Q576 493 586 427L514 403Q509 454 471 482.5Q433 511 361 511Z" glyph-name="ccircumflex.smcp" horiz-adv-x="640" unicode="&#57909;" /><glyph d="M370 653H284L294 739H380ZM438 377Q433 425 404.5 452Q376 479 311 479Q264 479 226.5 459.5Q189 440 162.5 405.5Q136 371 122 323Q108 275 108 218Q108 135 147.5 93Q187 51 259 51Q323 51 358 78Q393 105 410 153L475 130Q451 68 397 29Q343 -10 245 -10Q145 -10 92 47Q39 104 39 210Q39 282 58 342.5Q77 403 112.5 447Q148 491 198.5 515.5Q249 540 313 540Q361 540 396 530Q431 520 454 501.5Q477 483 490 457.5Q503 432 508 401Z" glyph-name="cdotaccent" horiz-adv-x="550" unicode="&#267;" /><glyph d="M416 653H330L340 739H426ZM361 511Q302 511 258.5 489Q215 467 186 429Q157 391 143 340.5Q129 290 129 233Q129 144 173.5 98.5Q218 53 298 53Q374 53 419.5 80Q465 107 484 161L550 138Q524 71 462 30.5Q400 -10 291 -10Q177 -10 116 51Q55 112 55 225Q55 308 77.5 372.5Q100 437 140.5 482Q181 527 238 550.5Q295 574 363 574Q471 574 523.5 533.5Q576 493 586 427L514 403Q509 454 471 482.5Q433 511 361 511Z" glyph-name="cdotaccent.smcp" horiz-adv-x="640" unicode="&#57911;" /><glyph d="M286 12 267 -34Q299 -42 321.5 -60.5Q344 -79 344 -114Q344 -164 309 -187Q274 -210 224 -210Q201 -210 179 -204.5Q157 -199 147 -193L167 -149Q176 -153 185 -156Q194 -158 204.5 -160Q215 -162 226 -162Q256 -162 270.5 -151Q285 -140 285 -123Q285 -100 260.5 -89.5Q236 -79 201 -75L242 12Z" glyph-name="cedilla" horiz-adv-x="600" unicode="&#184;" /><glyph d="M150 131Q53 183 53 326Q53 398 72 458.5Q91 519 126.5 563Q162 607 213 632Q264 657 327 657Q332 657 336.5 657Q341 657 346 656L386 764H451L407 648Q459 634 486 602.5Q513 571 521 526L452 494Q448 529 432.5 553Q417 577 385 588L230 172Q239 170 250.5 169Q262 168 273 168Q337 168 372.5 195Q408 222 425 270L487 240Q462 180 408.5 143.5Q355 107 260 107Q246 107 232.5 108Q219 109 207 111L166 0H101ZM319 596Q274 595 237.5 575Q201 555 175.5 520.5Q150 486 136 439Q122 392 122 336Q122 241 174 198L323 596Z" glyph-name="cent" horiz-adv-x="550" unicode="&#162;" /><glyph d="M135 14Q39 66 39 209Q39 281 58 341.5Q77 402 112.5 446Q148 490 198.5 515Q249 540 313 540Q318 540 322.5 540Q327 540 332 539L357 607H422L393 531Q445 517 471.5 485.5Q498 454 506 409L438 377Q433 412 417.5 436Q402 460 370 471L215 55Q225 53 236.5 52Q248 51 259 51Q323 51 358 78Q393 105 410 153L472 123Q447 63 393.5 26.5Q340 -10 245 -10Q231 -10 217.5 -9Q204 -8 193 -6L166 -77H101ZM304 479Q258 478 222 458Q186 438 160.5 403Q135 368 121.5 320.5Q108 273 108 217Q108 124 159 81L308 479Z" glyph-name="cent.OP" horiz-adv-x="550" unicode="&#59807;" /><glyph d="M449 592 351 742 215 592H146L322 800H390L514 592Z" glyph-name="circumflex" horiz-adv-x="600" unicode="&#710;" /><glyph d="M477 822 379 972 243 822H174L350 1030H418L542 822Z" glyph-name="circumflex.cap" horiz-adv-x="600" unicode="&#58403;" /><glyph d="M349 0Q368 38 381.5 73.5Q395 109 404.5 147Q414 185 420.5 227Q427 269 431 320L428 321Q415 290 396 261Q377 232 352 209.5Q327 187 296 173.5Q265 160 228 160Q191 160 159 173.5Q127 187 103 210.5Q79 234 65.5 265.5Q52 297 52 334Q52 373 64.5 406Q77 439 100 463Q123 487 155 500.5Q187 514 226 514Q252 514 272.5 507Q293 500 310 491L312 493Q295 518 284.5 547.5Q274 577 274 610Q274 647 287.5 680Q301 713 324.5 737.5Q348 762 380 776Q412 790 450 790Q488 790 520 776Q552 762 575.5 737.5Q599 713 612.5 680Q626 647 626 610Q626 577 615.5 547.5Q605 518 588 493L590 491Q607 500 627.5 507Q648 514 674 514Q713 514 745 500.5Q777 487 800 463Q823 439 835.5 406Q848 373 848 334Q848 297 834.5 265.5Q821 234 797 210.5Q773 187 741 173.5Q709 160 672 160Q635 160 604 173.5Q573 187 548 209.5Q523 232 504 261Q485 290 472 321L469 320Q473 269 479.5 227Q486 185 495.5 147Q505 109 518.5 73.5Q532 38 551 0Z" glyph-name="club" horiz-adv-x="900" unicode="&#9827;" /><glyph d="M113 0H27L37 86H123ZM158 367H72L82 453H168Z" glyph-name="colon" horiz-adv-x="220" unicode=":" /><glyph d="M178 0H92L102 86H188ZM223 367H137L147 453H233Z" glyph-name="colon.T" horiz-adv-x="350" unicode="&#61828;" /><glyph d="M125 86 4 -164H-29L37 86Z" glyph-name="comma" horiz-adv-x="220" unicode="," /><glyph d="M200 86 79 -164H46L112 86Z" glyph-name="comma.T" horiz-adv-x="350" unicode="&#61827;" /><glyph d="M174 -200 210 -62H301L234 -200Z" glyph-name="commaaccent" horiz-adv-x="600" unicode="&#63171;" /><glyph d="M312 822 413 1030H474L391 822Z" glyph-name="commaaccent.cap" horiz-adv-x="600" unicode="&#58414;" /><glyph d="M602 472Q597 520 568.5 547Q540 574 476 574Q384 574 330.5 515.5Q277 457 277 354Q277 279 317 242.5Q357 206 431 206Q495 206 530 233Q565 260 582 308L647 285Q622 222 568.5 183.5Q515 145 417 145Q316 145 261.5 197.5Q207 250 207 346Q207 410 226 463Q245 516 280 554.5Q315 593 365 614Q415 635 477 635Q574 635 619 596.5Q664 558 673 496ZM44 341Q44 431 81.5 512.5Q119 594 181.5 655.5Q244 717 325.5 753.5Q407 790 496 790Q573 790 637.5 763Q702 736 749.5 689Q797 642 823.5 578.5Q850 515 850 441Q850 350 813 268.5Q776 187 713.5 125Q651 63 569 26.5Q487 -10 398 -10Q322 -10 257 17Q192 44 144.5 91.5Q97 139 70.5 203Q44 267 44 341ZM489 725Q415 725 346.5 695Q278 665 225.5 613.5Q173 562 141.5 494Q110 426 110 350Q110 288 132 234Q154 180 193.5 140.5Q233 101 287.5 78Q342 55 406 55Q481 55 549.5 85.5Q618 116 670.5 168Q723 220 754 288Q785 356 785 432Q785 494 763 547.5Q741 601 701.5 640.5Q662 680 607.5 702.5Q553 725 489 725Z" glyph-name="copyright" horiz-adv-x="880" unicode="&#169;" /><glyph d="M79 544Q79 598 93.5 643Q108 688 134.5 720.5Q161 753 199 771.5Q237 790 285 790Q360 790 393 760Q426 730 433 683L369 661Q364 694 345.5 713Q327 732 281 732Q250 732 224.5 718.5Q199 705 181 681Q163 657 153.5 624.5Q144 592 144 554Q144 497 170 467.5Q196 438 244 438Q290 438 313.5 457Q337 476 350 509L410 488Q391 441 351 410.5Q311 380 235 380Q160 380 119.5 423Q79 466 79 544Z" glyph-name="cordinal" horiz-adv-x="440" unicode="&#57729;" /><glyph d="M79 555Q79 608 94 651.5Q109 695 138 725.5Q167 756 209 773Q251 790 305 790Q384 790 428 760Q472 730 479 682L411 659Q411 692 382.5 711Q354 730 304 730Q273 730 244.5 720.5Q216 711 194 690Q172 669 159.5 636Q147 603 147 556Q147 496 179.5 468Q212 440 265 440Q316 440 350.5 458Q385 476 393 511L455 489Q438 441 390 410.5Q342 380 262 380Q222 380 188.5 391.5Q155 403 130.5 425Q106 447 92.5 479.5Q79 512 79 555Z" glyph-name="cordinal.smcp" horiz-adv-x="485" unicode="&#58195;" /><glyph d="M360 153Q401 153 439.5 164Q478 175 507.5 201.5Q537 228 555 272Q573 316 573 382Q573 448 555 492Q537 536 507.5 562.5Q478 589 439.5 600Q401 611 360 611Q319 611 280.5 600Q242 589 212.5 562.5Q183 536 165 492Q147 448 147 382Q147 316 165 272Q183 228 212.5 201.5Q242 175 280.5 164Q319 153 360 153ZM128 195Q104 230 90.5 276Q77 322 77 382Q77 442 90.5 488Q104 534 128 568L20 676L66 722L172 615Q210 646 258 660Q306 674 360 674Q413 674 461.5 660Q510 646 548 615L654 722L700 676L592 568Q616 534 629.5 488Q643 442 643 382Q643 322 629.5 276Q616 230 592 195L700 88L654 42L548 148Q510 118 462 104Q414 90 360 90Q306 90 258 104Q210 118 172 148L66 42L20 88Z" glyph-name="currency" horiz-adv-x="720" unicode="&#164;" /><glyph d="M521 800H587L504 124L495 0H435L433 86Q401 41 351.5 15.5Q302 -10 243 -10Q144 -10 91.5 47Q39 104 39 209Q39 281 57.5 341.5Q76 402 111.5 446Q147 490 197.5 515Q248 540 311 540Q370 540 413 514.5Q456 489 477 445ZM305 477Q260 477 224 457Q188 437 162.5 402.5Q137 368 123 320.5Q109 273 109 218Q109 137 146.5 95Q184 53 253 53Q294 53 327.5 67Q361 81 386.5 103Q412 125 428 152Q444 179 448 204L463 326Q463 352 454 379Q445 406 425.5 427.5Q406 449 376.5 463Q347 477 305 477Z" glyph-name="d" horiz-adv-x="599" unicode="d" /><glyph d="M573 333Q573 262 555.5 201Q538 140 501.5 95.5Q465 51 407.5 25.5Q350 0 269 0H50L119 564H333Q451 564 512 506.5Q573 449 573 333ZM125 64H284Q383 64 441 131.5Q499 199 499 327Q499 417 460 458.5Q421 500 340 500H179Z" glyph-name="d.smcp" horiz-adv-x="640" unicode="&#57860;" /><glyph d="M248 729Q282 729 308 715Q334 701 348 678L374 891H433L382 473L375 390H321L319 438Q301 412 270.5 397Q240 382 205 382Q142 382 109 417Q76 452 76 518Q75 563 86.5 602Q98 641 120.5 669Q143 697 175 713Q207 729 248 729ZM338 596Q337 610 331 623.5Q325 637 313.5 648.5Q302 660 285 667Q268 674 246 674Q197 674 167 633.5Q137 593 137 530Q137 485 158.5 461.5Q180 438 217 438Q239 438 257.5 445Q276 452 290.5 463.5Q305 475 314.5 489Q324 503 328 516Z" glyph-name="d.superior" horiz-adv-x="432" unicode="&#58212;" /><glyph d="M192 390H122L160 608L35 595L44 668L168 656V780H242L214 656L340 668L331 595L208 608Z" glyph-name="dagger" horiz-adv-x="300" unicode="&#8224;" /><glyph d="M311 434 188 447 173 229H103L140 447L15 434L24 507L147 495V551L160 608L35 595L44 668L168 656V780H242L214 656L340 668L331 595L207 608V551L194 495L320 507Z" glyph-name="daggerdbl" horiz-adv-x="300" unicode="&#8225;" /><glyph d="M770 800 669 592H608L691 800ZM521 800H587L504 124L495 0H435L433 86Q401 41 351.5 15.5Q302 -10 243 -10Q144 -10 91.5 47Q39 104 39 209Q39 281 57.5 341.5Q76 402 111.5 446Q147 490 197.5 515Q248 540 311 540Q370 540 413 514.5Q456 489 477 445ZM305 477Q260 477 224 457Q188 437 162.5 402.5Q137 368 123 320.5Q109 273 109 218Q109 137 146.5 95Q184 53 253 53Q294 53 327.5 67Q361 81 386.5 103Q412 125 428 152Q444 179 448 204L463 326Q463 352 454 379Q445 406 425.5 427.5Q406 449 376.5 463Q347 477 305 477Z" glyph-name="dcaron" horiz-adv-x="599" unicode="&#271;" /><glyph d="M542 800 366 592H298L174 800H241L339 650L475 800ZM573 333Q573 262 555.5 201Q538 140 501.5 95.5Q465 51 407.5 25.5Q350 0 269 0H50L119 564H333Q451 564 512 506.5Q573 449 573 333ZM125 64H284Q383 64 441 131.5Q499 199 499 327Q499 417 460 458.5Q421 500 340 500H179Z" glyph-name="dcaron.smcp" horiz-adv-x="640" unicode="&#57913;" /><glyph d="M214 -26Q283 -34 310.5 -59.5Q338 -85 333 -127Q328 -172 294 -191Q260 -210 214 -210Q191 -210 169 -204.5Q147 -199 137 -193L157 -149Q165 -152 174 -155Q182 -158 191.5 -160Q201 -162 212 -162Q242 -163 257.5 -153.5Q273 -144 275 -128Q278 -102 252.5 -90.5Q227 -79 191 -75ZM521 800H587L504 124L495 0H435L433 86Q401 41 351.5 15.5Q302 -10 243 -10Q144 -10 91.5 47Q39 104 39 209Q39 281 57.5 341.5Q76 402 111.5 446Q147 490 197.5 515Q248 540 311 540Q370 540 413 514.5Q456 489 477 445ZM305 477Q260 477 224 457Q188 437 162.5 402.5Q137 368 123 320.5Q109 273 109 218Q109 137 146.5 95Q184 53 253 53Q294 53 327.5 67Q361 81 386.5 103Q412 125 428 152Q444 179 448 204L463 326Q463 352 454 379Q445 406 425.5 427.5Q406 449 376.5 463Q347 477 305 477Z" glyph-name="dcedilla" horiz-adv-x="599" unicode="&#7697;" /><glyph d="M573 333Q573 262 555.5 201Q538 140 501.5 95.5Q465 51 407.5 25.5Q350 0 269 0H50L119 564H333Q451 564 512 506.5Q573 449 573 333ZM125 64H284Q383 64 441 131.5Q499 199 499 327Q499 417 460 458.5Q421 500 340 500H179ZM224 -26Q287 -34 315.5 -56Q344 -78 344 -114Q344 -164 309 -187Q274 -210 224 -210Q201 -210 179 -204.5Q157 -199 147 -193L167 -149Q176 -153 185 -156Q194 -158 204.5 -160Q215 -162 226 -162Q256 -162 270.5 -151Q285 -140 285 -123Q285 -100 260.5 -89.5Q236 -79 201 -75Z" glyph-name="dcedilla.smcp" horiz-adv-x="640" unicode="&#57914;" /><glyph d="M499 627H358L366 689H507L521 800H587L573 689H684L676 627H566L504 124L495 0H435L433 86Q401 41 351.5 15.5Q302 -10 243 -10Q144 -10 91.5 47Q39 104 39 209Q39 281 57.5 341.5Q76 402 111.5 446Q147 490 197.5 515Q248 540 311 540Q370 540 413 514.5Q456 489 477 445ZM305 477Q260 477 224 457Q188 437 162.5 402.5Q137 368 123 320.5Q109 273 109 218Q109 137 146.5 95Q184 53 253 53Q294 53 327.5 67Q361 81 386.5 103Q412 125 428 152Q444 179 448 204L463 326Q463 352 454 379Q445 406 425.5 427.5Q406 449 376.5 463Q347 477 305 477Z" glyph-name="dcroat" horiz-adv-x="629" unicode="&#273;" /><glyph d="M603 333Q603 262 585.5 201Q568 140 531.5 95.5Q495 51 437.5 25.5Q380 0 299 0H80L112 260H20L28 324H120L149 564H363Q481 564 542 506.5Q603 449 603 333ZM187 324H366L358 260H179L155 64H314Q413 64 471 131.5Q529 199 529 327Q529 417 490 458.5Q451 500 370 500H209Z" glyph-name="dcroat.smcp" horiz-adv-x="670" unicode="&#57916;" /><glyph d="M279 -153H193L203 -67H289ZM521 800H587L504 124L495 0H435L433 86Q401 41 351.5 15.5Q302 -10 243 -10Q144 -10 91.5 47Q39 104 39 209Q39 281 57.5 341.5Q76 402 111.5 446Q147 490 197.5 515Q248 540 311 540Q370 540 413 514.5Q456 489 477 445ZM305 477Q260 477 224 457Q188 437 162.5 402.5Q137 368 123 320.5Q109 273 109 218Q109 137 146.5 95Q184 53 253 53Q294 53 327.5 67Q361 81 386.5 103Q412 125 428 152Q444 179 448 204L463 326Q463 352 454 379Q445 406 425.5 427.5Q406 449 376.5 463Q347 477 305 477Z" glyph-name="ddotbelow" horiz-adv-x="599" unicode="&#7693;" /><glyph d="M284 -153H198L208 -67H294ZM573 333Q573 262 555.5 201Q538 140 501.5 95.5Q465 51 407.5 25.5Q350 0 269 0H50L119 564H333Q451 564 512 506.5Q573 449 573 333ZM125 64H284Q383 64 441 131.5Q499 199 499 327Q499 417 460 458.5Q421 500 340 500H179Z" glyph-name="ddotbelow.smcp" horiz-adv-x="640" unicode="&#57915;" /><glyph d="M258 473Q323 473 361.5 510.5Q400 548 400 618Q400 668 369.5 691.5Q339 715 287 715Q223 715 184 678Q145 641 145 572Q145 521 175 497Q205 473 258 473ZM250 414Q176 414 128.5 451Q81 488 81 564Q81 615 97.5 654Q114 693 143 719.5Q172 746 211 760Q250 774 295 774Q369 774 416 737.5Q463 701 463 625Q463 574 446.5 535Q430 496 401 469Q372 442 333.5 428Q295 414 250 414Z" glyph-name="degree" horiz-adv-x="480" unicode="&#176;" /><glyph d="M817 390Q764 348 712.5 300.5Q661 253 614 201.5Q567 150 525.5 96.5Q484 43 451 -10H449Q416 43 374.5 96.5Q333 150 286 201.5Q239 253 187.5 300.5Q136 348 83 390Q136 432 187.5 479.5Q239 527 286 578.5Q333 630 374.5 683.5Q416 737 449 790H451Q484 737 525.5 683.5Q567 630 614 578.5Q661 527 712.5 479.5Q764 432 817 390Z" glyph-name="diamond" horiz-adv-x="900" unicode="&#9830;" /><glyph d="M290 653H204L214 739H300ZM476 653H390L400 739H486Z" glyph-name="dieresis" horiz-adv-x="600" unicode="&#168;" /><glyph d="M318 883H232L242 969H328ZM504 883H418L428 969H514Z" glyph-name="dieresis.cap" horiz-adv-x="600" unicode="&#58409;" /><glyph d="M80 358V422H620V358ZM393 134H307V220H393ZM393 560H307V646H393Z" glyph-name="divide" horiz-adv-x="700" unicode="&#247;" /><glyph d="M40 358V422H820V358ZM473 0H387V86H473ZM473 694H387V780H473Z" glyph-name="divide.cap" horiz-adv-x="860" unicode="&#58772;" /><glyph d="M390 651Q435 643 467.5 628.5Q500 614 521 597L499 540Q473 560 440 573.5Q407 587 368 592L304 419Q334 415 364 408Q394 401 419 388Q444 375 459.5 352.5Q475 330 475 294Q475 245 452.5 209Q430 173 394 150Q358 127 313 116Q268 105 222 105Q213 105 204.5 105Q196 105 188 106L148 0H83L126 116Q91 124 65 137.5Q39 151 22 165L44 222Q87 188 148 175L220 367Q195 371 169 377.5Q143 384 121.5 397Q100 410 86.5 430.5Q73 451 73 482Q73 530 95.5 563.5Q118 597 153.5 617.5Q189 638 233.5 647.5Q278 657 322 657H328L368 764H433ZM210 166H230Q264 166 295.5 171.5Q327 177 351 190Q375 203 389.5 225.5Q404 248 404 282Q404 303 395.5 316Q387 329 371 337Q355 345 332.5 349.5Q310 354 281 358ZM305 596Q274 596 244.5 591.5Q215 587 192 575.5Q169 564 155.5 544Q142 524 142 493Q142 458 169 446.5Q196 435 242 428Z" glyph-name="dollar" horiz-adv-x="530" unicode="$" /></font>
</defs>
</svg>
