<?xml version="1.0" encoding="utf-8"?>
<!-- Generated by IcoMoon.io -->
<!DOCTYPE svg PUBLIC "-//W3C//DTD SVG 1.1//EN" "http://www.w3.org/Graphics/SVG/1.1/DTD/svg11.dtd">
<svg version="1.1" xmlns="http://www.w3.org/2000/svg" xmlns:xlink="http://www.w3.org/1999/xlink" width="1584" height="284" viewBox="0 0 1584 284">
<g transform="translate(0 0)">
	<path d="M42 0c-23.196 0-42 18.804-42 42s18.804 42 42 42 42-18.804 42-42-18.804-42-42-42zM42 76.125c-18.847 0-34.125-15.278-34.125-34.125s15.278-34.125 34.125-34.125 34.125 15.278 34.125 34.125-15.278 34.125-34.125 34.125zM31.5 23.625l31.5 18.375-31.5 18.375z" fill="#000000" />
</g>
<g transform="translate(100 0)">
	<path d="M73.5 10.5v68.25h-55.125c-4.349 0-7.875-3.526-7.875-7.875 0-4.349 3.526-7.875 7.875-7.875h49.875v-63h-52.5c-5.775 0-10.5 4.725-10.5 10.5v63c0 5.775 4.725 10.5 10.5 10.5h63v-73.5h-5.25zM21 68.25h47.25v5.25h-47.25z" fill="#000000" />
</g>
<g transform="translate(200 0)">
	<path d="M84 49.875l-15.75-15.75v-23.625h-10.5v13.125l-15.75-15.75-42 42v2.625h10.5v26.25h26.25v-15.75h10.5v15.75h26.25v-26.25h10.5z" fill="#000000" />
</g>
<g transform="translate(300 0)">
	<path d="M70.875 0c7.249 0 13.125 5.876 13.125 13.125 0 2.955-0.977 5.681-2.625 7.875l-5.25 5.25-18.375-18.375 5.25-5.25c2.194-1.648 4.92-2.625 7.875-2.625zM5.25 60.375l-5.25 23.625 23.625-5.25 48.563-48.563-18.375-18.375-48.563 48.563zM58.7 29.825l-36.75 36.75-4.525-4.525 36.75-36.75 4.525 4.525z" fill="#000000" />
</g>
<g transform="translate(400 0)">
	<path d="M84 26.25l-42-21-42 21 42 21 42-21zM42 12.22l28.059 14.030-28.059 14.030-28.059-14.030 28.059-14.030zM75.587 37.794l8.413 4.206-42 21-42-21 8.413-4.206 33.587 16.794zM75.587 53.544l8.413 4.206-42 21-42-21 8.413-4.206 33.587 16.794z" fill="#000000" />
</g>
<g transform="translate(500 0)">
	<path d="M84 68.25v-63h-84v63h36.75v5.25h-15.75v5.25h42v-5.25h-15.75v-5.25h36.75zM10.5 15.75h63v42h-63v-42z" fill="#000000" />
</g>
<g transform="translate(600 0)">
	<path d="M47.25 5.25c20.296 0 36.75 16.454 36.75 36.75s-16.454 36.75-36.75 36.75v-7.875c7.713 0 14.964-3.003 20.418-8.457 5.454-5.454 8.457-12.705 8.457-20.418 0-7.713-3.003-14.964-8.457-20.418-5.454-5.454-12.705-8.457-20.418-8.457-7.713 0-14.964 3.003-20.418 8.457-4.195 4.195-6.938 9.454-7.982 15.168h15.275l-18.375 21-18.375-21h13.5c2.548-17.809 17.861-31.5 36.375-31.5zM63 36.75v10.5h-21v-26.25h10.5v15.75z" fill="#000000" />
</g>
<g transform="translate(700 0)">
	<path d="M76.125 10.5h-68.25c-4.331 0-7.875 3.544-7.875 7.875v52.5c0 4.331 3.544 7.875 7.875 7.875h68.25c4.331 0 7.875-3.544 7.875-7.875v-52.5c0-4.331-3.544-7.875-7.875-7.875zM32.709 45.148l-22.209 17.3v-41.15l22.209 23.851zM14.469 21h55.063l-27.531 20.672-27.531-20.672zM33.574 46.077l8.426 9.048 8.425-9.048 17.272 22.173h-51.395l17.272-22.173zM51.291 45.148l22.209-23.851v41.15l-22.209-17.3z" fill="#000000" />
</g>
<g transform="translate(800 0)">
	<path d="M57.75 52.5c-5.25 5.25-5.25 10.5-10.5 10.5s-10.5-5.25-15.75-10.5-10.5-10.5-10.5-15.75 5.25-5.25 10.5-10.5-10.5-21-15.75-21-15.75 15.75-15.75 15.75c0 10.5 10.787 31.787 21 42s31.5 21 42 21c0 0 15.75-10.5 15.75-15.75s-15.75-21-21-15.75z" fill="#000000" />
</g>
<g transform="translate(900 0)">
	<path d="M59.8 42c11.3-7.164 18.95-20.935 18.95-36.75 0-1.778-0.098-3.53-0.285-5.25h-72.929c-0.188 1.72-0.285 3.472-0.285 5.25 0 15.815 7.65 29.586 18.95 36.75-11.3 7.164-18.95 20.935-18.95 36.75 0 1.778 0.098 3.53 0.285 5.25h72.929c0.188-1.72 0.285-3.472 0.285-5.25 0-15.815-7.65-29.586-18.95-36.75zM13.125 78.75c0-15.333 6.576-28.335 18.375-32.624v-8.251c-11.799-4.289-18.375-17.292-18.375-32.624v0h57.75c0 15.333-6.576 28.335-18.375 32.624v8.251c11.799 4.29 18.375 17.292 18.375 32.624h-57.75zM50.829 54.928c-5.878-3.334-6.202-7.659-6.204-10.284v-5.269c0-2.625 0.312-6.966 6.213-10.308 3.159-1.835 5.891-4.622 7.961-8.067h-33.599c2.073 3.448 4.808 6.238 7.971 8.072 5.878 3.334 6.202 7.659 6.204 10.284v5.269c0 2.624-0.312 6.966-6.213 10.308-5.957 3.46-10.396 10.31-11.738 18.567h41.153c-1.342-8.261-5.786-15.114-11.748-18.572z" fill="#000000" />
</g>
<g transform="translate(1000 0)">
	<path d="M21 26.25c0-11.598 9.402-21 21-21s21 9.402 21 21c0 11.598-9.402 21-21 21-11.598 0-21-9.402-21-21zM63 52.5h-42c-11.598 0-21 9.402-21 21v5.25h84v-5.25c0-11.598-9.402-21-21-21z" fill="#000000" />
</g>
<g transform="translate(1100 0)">
	<path d="M81.396 71.482l-19.897-16.923c-2.057-1.851-4.257-2.701-6.034-2.619 4.697-5.502 7.534-12.639 7.534-20.44 0-17.397-14.103-31.5-31.5-31.5-17.397 0-31.5 14.103-31.5 31.5 0 17.397 14.103 31.5 31.5 31.5 7.801 0 14.939-2.837 20.44-7.534-0.082 1.777 0.768 3.977 2.619 6.034l16.923 19.897c2.898 3.219 7.631 3.491 10.518 0.603s2.616-7.621-0.603-10.518zM31.5 52.5c-11.598 0-21-9.402-21-21s9.402-21 21-21 21 9.402 21 21-9.402 21-21 21z" fill="#000000" />
</g>
<g transform="translate(1200 0)">
	<path d="M76.6 50.060c-4.407-7.633-1.757-17.416 5.919-21.86l-8.254-14.297c-2.358 1.383-5.1 2.175-8.026 2.175-8.821 0-15.972-7.198-15.972-16.077h-16.509c0.022 2.741-0.662 5.519-2.129 8.060-4.407 7.633-14.204 10.229-21.891 5.804l-8.254 14.297c2.376 1.351 4.434 3.329 5.897 5.863 4.4 7.621 1.765 17.384-5.882 21.839l8.254 14.297c2.35-1.37 5.079-2.154 7.99-2.154 8.793 0 15.926 7.152 15.971 15.993h16.509c-0.007-2.713 0.679-5.461 2.13-7.975 4.4-7.621 14.173-10.221 21.854-5.825l8.254-14.297c-2.361-1.351-4.404-3.322-5.86-5.843zM42 59.008c-9.393 0-17.008-7.614-17.008-17.008 0-9.393 7.615-17.008 17.008-17.008 9.393 0 17.008 7.615 17.008 17.008-0 9.393-7.614 17.008-17.008 17.008z" fill="#000000" />
</g>
<g transform="translate(1300 0)">
	<path d="M84 32.571l-29.021-4.217-12.979-26.298-12.979 26.298-29.021 4.217 21 20.47-4.957 28.904 25.957-13.647 25.957 13.647-4.957-28.904 21-20.47z" fill="#000000" />
</g>
<g transform="translate(1400 0)">
	<path d="M84 32.571l-29.021-4.217-12.979-26.298-12.979 26.298-29.021 4.217 21 20.47-4.957 28.904 25.957-13.647 25.957 13.647-4.957-28.904 21-20.47zM42 61.81l-0.077 0.041 0.077-46.821 9.166 18.572 20.494 2.978-14.83 14.456 3.501 20.412-18.331-9.637z" fill="#000000" />
</g>
<g transform="translate(1500 0)">
	<path d="M84 32.571l-29.021-4.217-12.979-26.298-12.979 26.298-29.021 4.217 21 20.47-4.957 28.904 25.957-13.647 25.957 13.647-4.957-28.904 21-20.47zM42 61.81l-18.331 9.637 3.501-20.412-14.83-14.456 20.495-2.978 9.166-18.572 9.166 18.572 20.494 2.978-14.83 14.456 3.501 20.412-18.331-9.637z" fill="#000000" />
</g>
<g transform="translate(0 100)">
	<path d="M42 13.020l-28.287 60.48h56.574l-28.287-60.48zM42 0v0c1.81 0 3.621 1.221 4.994 3.663l35.854 71.458c2.747 4.883 0.41 8.879-5.193 8.879h-71.31c-5.603 0-7.94-3.996-5.193-8.879l35.854-71.458c1.374-2.442 3.184-3.663 4.994-3.663zM36.75 63c0-2.899 2.351-5.25 5.25-5.25s5.25 2.351 5.25 5.25c0 2.899-2.351 5.25-5.25 5.25-2.899 0-5.25-2.351-5.25-5.25zM42 31.5c2.899 0 5.25 2.351 5.25 5.25l-1.641 15.75h-7.219l-1.641-15.75c0-2.899 2.351-5.25 5.25-5.25z" fill="#000000" />
</g>
<g transform="translate(100 100)">
	<path d="M26.25 10.5v28.531c-6.637-1.842-8.252-2.773-15.258-2.773-6.061 0-10.992 4.931-10.992 10.992 0 6.061 4.931 10.992 10.992 10.992 8.529 0 12.465 3.176 16.875 9.441 0.131 0.186 0.259 0.376 0.386 0.567h-7.253v15.75h52.5v-15.75h-4.676c0.353-5.222 1.82-6.654 3.616-8.404 1.386-1.35 3.11-3.029 4.37-6.073 1.323-3.195 1.94-7.354 1.94-13.086v-5.33c0-5.081-4.206-9.214-9.375-9.214-0.859 0-1.712 0.117-2.535 0.344-1.722-1.617-4.020-2.54-6.465-2.54-0.859 0-1.712 0.117-2.535 0.344-1.722-1.617-4.020-2.54-6.465-2.54-1.48 0-2.879 0.34-4.125 0.942v-12.193c0-5.799-4.701-10.5-10.5-10.5-5.799 0-10.5 4.701-10.5 10.5zM68.25 76.125c0 1.45-1.175 2.625-2.625 2.625s-2.625-1.175-2.625-2.625 1.175-2.625 2.625-2.625 2.625 1.175 2.625 2.625zM42 10.992v21h5.25v-0.536c0-2.186 1.85-3.964 4.125-3.964 1.425 0 2.731 0.695 3.493 1.858l1.333 2.033 2.129-1.173c0.62-0.342 1.327-0.522 2.045-0.522 1.425 0 2.731 0.695 3.493 1.858l1.333 2.034 2.13-1.173c0.62-0.342 1.327-0.522 2.045-0.522 2.274 0 4.125 1.778 4.125 3.964v5.33c0 10.382-3.134 12.476-5.41 14.693-2.323 2.263-4.921 4.798-5.474 12.378h-27.429c-0.678-1.292-1.416-2.518-2.222-3.663-5.566-7.907-11.447-12.087-21.973-12.087-2.624 0-4.758-2.463-4.758-5.086s2.134-4.922 4.758-4.922c7.027 0 8.647 1.018 15.258 3.032 1.866 0.502 3.714 0.978 5.195 1.302l0.055-35.834c0-2.895 2.355-5.25 5.25-5.25s5.25 2.355 5.25 5.25z" fill="#000000" />
</g>
<g transform="translate(200 100)">
	<path d="M42 7.875c-9.115 0-17.685 3.55-24.13 9.995s-9.995 15.015-9.995 24.13c0 9.115 3.55 17.685 9.995 24.13 6.445 6.445 15.015 9.995 24.13 9.995 9.115 0 17.685-3.55 24.13-9.995 6.445-6.445 9.995-15.015 9.995-24.13 0-9.115-3.55-17.685-9.995-24.13-6.445-6.445-15.015-9.995-24.13-9.995zM42 0v0c23.196 0 42 18.804 42 42s-18.804 42-42 42c-23.196 0-42-18.804-42-42 0-23.196 18.804-42 42-42zM36.75 57.75h10.5v10.5h-10.5zM36.75 15.75h10.5v31.5h-10.5z" fill="#000000" />
</g>
<g transform="translate(300 100)">
	<path d="M36.75 57.75h10.5v10.5h-10.5zM57.75 21c2.899 0 5.25 2.351 5.25 5.25v15.75l-15.75 10.5h-10.5v-5.25l15.75-10.5v-5.25h-26.25v-10.5h31.5zM42 7.875c-9.115 0-17.685 3.55-24.13 9.995s-9.995 15.015-9.995 24.13c0 9.115 3.55 17.685 9.995 24.13 6.445 6.445 15.015 9.995 24.13 9.995 9.115 0 17.685-3.55 24.13-9.995 6.445-6.445 9.995-15.015 9.995-24.13 0-9.115-3.55-17.685-9.995-24.13-6.445-6.445-15.015-9.995-24.13-9.995zM42 0v0c23.196 0 42 18.804 42 42s-18.804 42-42 42c-23.196 0-42-18.804-42-42 0-23.196 18.804-42 42-42z" fill="#000000" />
</g>
<g transform="translate(400 100)">
	<path d="M42 0c-23.196 0-42 18.804-42 42s18.804 42 42 42 42-18.804 42-42-18.804-42-42-42zM42 76.125c-18.847 0-34.125-15.278-34.125-34.125s15.278-34.125 34.125-34.125 34.125 15.278 34.125 34.125-15.278 34.125-34.125 34.125zM36.75 21h10.5v10.5h-10.5zM52.5 63h-21v-5.25h5.25v-15.75h-5.25v-5.25h15.75v21h5.25z" fill="#000000" />
</g>
<g transform="translate(500 100)">
	<path d="M63 52.5v-10.5h-26.25v-10.5h26.25v-10.5l15.75 15.75zM57.75 47.25v21h-26.25v15.75l-31.5-15.75v-68.25h57.75v26.25h-5.25v-21h-42l21 10.5v47.25h21v-15.75z" fill="#000000" />
</g>
<g transform="translate(600 100)">
	<path d="M42 0c-23.196 0-42 18.804-42 42s18.804 42 42 42 42-18.804 42-42-18.804-42-42-42zM36.75 15.75h10.5v10.5h-10.5v-10.5zM52.5 68.25h-21v-5.25h5.25v-21h-5.25v-5.25h15.75v26.25h5.25v5.25z" fill="#000000" />
</g>
<g transform="translate(700 100)">
	<path d="M42 0c-23.196 0-42 18.804-42 42s18.804 42 42 42 42-18.804 42-42-18.804-42-42-42zM34.125 68.25l-17.391-22.641 7.711-8.039 9.68 12.305 30.352-24.773 3.773 3.773-34.125 39.375z" fill="#000000" />
</g>
<g transform="translate(800 100)">
	<path d="M83.234 67.484c-0-0-0.001-0.001-0.001-0.001l-25.483-25.483 25.483-25.483c0-0 0.001-0 0.001-0.001 0.274-0.274 0.473-0.595 0.6-0.936 0.348-0.933 0.15-2.025-0.601-2.775l-12.038-12.038c-0.75-0.75-1.842-0.949-2.775-0.6-0.341 0.127-0.662 0.326-0.937 0.6 0 0-0 0-0.001 0.001l-25.483 25.483-25.483-25.483c-0-0-0-0-0.001-0.001-0.274-0.274-0.595-0.472-0.936-0.6-0.934-0.348-2.025-0.15-2.775 0.6l-12.038 12.038c-0.75 0.75-0.949 1.842-0.601 2.775 0.127 0.341 0.326 0.662 0.6 0.936 0 0 0 0 0.001 0.001l25.483 25.483-25.483 25.483c-0 0-0 0-0.001 0.001-0.274 0.274-0.472 0.595-0.6 0.936-0.348 0.933-0.15 2.025 0.601 2.775l12.038 12.038c0.751 0.75 1.842 0.949 2.775 0.601 0.341-0.127 0.662-0.326 0.936-0.6 0-0 0-0 0.001-0.001l25.483-25.483 25.483 25.483c0 0 0.001 0 0.001 0.001 0.275 0.274 0.595 0.473 0.936 0.6 0.933 0.348 2.025 0.15 2.775-0.601l12.038-12.038c0.75-0.75 0.949-1.842 0.601-2.775-0.127-0.341-0.326-0.662-0.6-0.936z" fill="#000000" />
</g>
<g transform="translate(900 100)">
	<path d="M70.875 10.5l-39.375 39.375-18.375-18.375-13.125 13.125 31.5 31.5 52.5-52.5z" fill="#000000" />
</g>
<g transform="translate(1000 100)">
	<path d="M15.75 10.5l52.5 31.5-52.5 31.5z" fill="#000000" />
</g>
<g transform="translate(1100 100)">
	<path d="M0 10.5l31.5 31.5v31.5l21-5.25v-26.25l31.5-31.5z" fill="#000000" />
</g>
<g transform="translate(1200 100)">
	<path d="M84 42l-42-42v26.25h-42l-0 31.5h42v26.25z" fill="#000000" />
</g>
<g transform="translate(1300 100)">
	<path d="M32.602 75.28l-32.638-32.123 16.191-15.936 16.446 16.187 35.242-34.687 16.191 15.936-51.433 50.623zM8.852 43.156l23.75 23.376 42.546-41.875-7.304-7.189-35.242 34.687-16.446-16.188-7.304 7.189z" fill="#000000" />
</g>
<g transform="translate(1400 100)">
	<path d="M21 5.25h42v10.5h-42zM78.75 21h-73.5c-2.888 0-5.25 2.363-5.25 5.25v26.25c0 2.888 2.362 5.25 5.25 5.25h15.75v21h42v-21h15.75c2.888 0 5.25-2.362 5.25-5.25v-26.25c0-2.887-2.362-5.25-5.25-5.25zM57.75 73.5h-31.5v-26.25h31.5v26.25zM79.931 28.875c0 2.102-1.704 3.806-3.806 3.806-2.102 0-3.806-1.704-3.806-3.806s1.704-3.806 3.806-3.806c2.102 0 3.806 1.704 3.806 3.806z" fill="#000000" />
</g>
<g transform="translate(1500 100)">
	<path d="M5.25 0h31.5v5.25h-31.5zM47.25 0h31.5v5.25h-31.5zM78.094 26.25h-4.594v-21h-21v21h-21v-21h-21v21h-4.594c-3.248 0-5.906 2.658-5.906 5.906v45.938c0 3.248 2.658 5.906 5.906 5.906h24.938c3.248 0 5.906-2.658 5.906-5.906v-30.844h10.5v30.844c0 3.248 2.658 5.906 5.906 5.906h24.938c3.248 0 5.906-2.658 5.906-5.906v-45.938c0-3.248-2.658-5.906-5.906-5.906zM28.547 78.75h-20.344c-1.624 0-2.953-1.181-2.953-2.625s1.329-2.625 2.953-2.625h20.344c1.624 0 2.953 1.181 2.953 2.625s-1.329 2.625-2.953 2.625zM44.625 42h-5.25c-1.444 0-2.625-1.181-2.625-2.625s1.181-2.625 2.625-2.625h5.25c1.444 0 2.625 1.181 2.625 2.625s-1.181 2.625-2.625 2.625zM75.797 78.75h-20.344c-1.624 0-2.953-1.181-2.953-2.625s1.329-2.625 2.953-2.625h20.344c1.624 0 2.953 1.181 2.953 2.625s-1.329 2.625-2.953 2.625z" fill="#000000" />
</g>
<g transform="translate(0 200)">
	<path d="M65.625 10.5h-47.25c-4.349 0-7.875 3.526-7.875 7.875v2.625h63v-2.625c0-4.349-3.526-7.875-7.875-7.875zM51.87 5.25l1.158 8.285h-22.056l1.158-8.285h19.74zM52.5 0h-21c-2.166 0-4.183 1.755-4.482 3.9l-1.535 10.986c-0.3 2.145 1.227 3.9 3.392 3.9h26.25c2.166 0 3.692-1.755 3.393-3.9l-1.535-10.986c-0.3-2.145-2.317-3.9-4.483-3.9v0zM66.938 26.25h-49.875c-2.887 0-5.036 2.353-4.775 5.229l4.299 47.293c0.261 2.876 2.838 5.228 5.725 5.228h39.375c2.888 0 5.464-2.353 5.725-5.228l4.299-47.293c0.262-2.876-1.887-5.229-4.775-5.229zM31.5 73.5h-7.875l-2.625-36.75h10.5v36.75zM47.25 73.5h-10.5v-36.75h10.5v36.75zM60.375 73.5h-7.875v-36.75h10.5l-2.625 36.75z" fill="#000000" />
</g>
</svg>
